<?xml version="1.0" standalone="no"?>
<!DOCTYPE svg PUBLIC "-//W3C//DTD SVG 1.1//EN" "http://www.w3.org/Graphics/SVG/1.1/DTD/svg11.dtd" >
<svg xmlns="http://www.w3.org/2000/svg" xmlns:xlink="http://www.w3.org/1999/xlink" version="1.1">
<metadata>
Created by FontForge 20181014 at Mon Oct  9 11:21:55 2017
 By convertio
Copyright (c) 2014 by Maria Doreuli. All rights reserved. MIA Rossia Segodnia has an exclusive license to use Sputnik Display Bold from the August 2014 till 10th of October 2017
</metadata>
<defs>
<font id="SputnikDisplay-Bold" horiz-adv-x="638" >
  <font-face 
    font-family="SputnikDisplay"
    font-weight="700"
    font-stretch="normal"
    units-per-em="1000"
    panose-1="2 0 8 3 0 0 0 2 0 4"
    ascent="800"
    descent="-200"
    x-height="560"
    cap-height="700"
    bbox="-65 -411 1313 1051"
    underline-thickness="90"
    underline-position="-200"
    unicode-range="U+000D-2265"
  />
<missing-glyph horiz-adv-x="832" 
d="M739 -200h-646v980h646v-980zM590 -73v726h-348v-726h348z" />
    <glyph glyph-name="aogonek_j" unicode="&#x105;j" horiz-adv-x="917" 
d="M842 560v-539q0 -240 -244 -240h-8q-79 0 -129.5 32.5t-50.5 89.5q0 66 57 99q-46 19 -55 60q-59 -72 -182 -72q-88 0 -139 43.5t-51 122.5q0 182 255 182h106q0 98 -117 98q-105 0 -206 -52v142q99 44 219 44q131 0 191.5 -59.5t58.5 -182.5l-3 -160q-2 -50 46 -50
q7 0 21 2v-115q-70 -7 -70 -52q0 -42 56 -42q41 0 65.5 26.5t24.5 80.5v542h155zM675 701q0 39 25.5 61.5t62.5 22.5t62.5 -22.5t25.5 -61.5t-25.5 -61.5t-62.5 -22.5t-62.5 22.5t-25.5 61.5zM271 117q56 0 93 30t37 85v2h-100q-106 0 -106 -62q0 -28 21.5 -41.5t54.5 -13.5
z" />
    <glyph glyph-name=".notdef" horiz-adv-x="832" 
d="M739 -200h-646v980h646v-980zM590 -73v726h-348v-726h348z" />
    <glyph glyph-name=".null" horiz-adv-x="0" 
 />
    <glyph glyph-name="nonmarkingreturn" unicode="&#xd;" horiz-adv-x="250" 
 />
    <glyph glyph-name="null" horiz-adv-x="0" 
 />
    <glyph glyph-name="null" horiz-adv-x="0" 
 />
    <glyph glyph-name="space" unicode=" " horiz-adv-x="250" 
 />
    <glyph glyph-name="exclam" unicode="!" horiz-adv-x="314" 
d="M232 714l-11 -417v-66h-129v66l-12 417h152zM157 -14q-42 0 -67 25t-25 65t25 65.5t67 25.5t67 -25.5t25 -65.5t-25 -65t-67 -25z" />
    <glyph glyph-name="quotedbl" unicode="&#x22;" horiz-adv-x="396" 
d="M241 507l-24 278h147l-25 -278h-98zM56 507l-24 278h147l-25 -278h-98z" />
    <glyph glyph-name="numbersign" unicode="#" horiz-adv-x="740" 
d="M83 411l23 122h102l29 167h121l-28 -167h145l28 167h122l-28 -167h103l-20 -122h-104l-22 -133h103l-20 -122h-104l-26 -156h-122l26 156h-145l-26 -156h-122l26 156h-104l23 122h102l22 133h-104zM309 411l-22 -133h145l22 133h-145z" />
    <glyph glyph-name="dollar" unicode="$" horiz-adv-x="655" 
d="M413 -50h-133v87q-113 8 -205 45v173q50 -38 123 -58t138 -20q56 0 79 10.5t23 41.5q0 26 -25 39t-88 23q-133 22 -194 62.5t-61 134.5q0 86 57.5 136.5t154.5 63.5v92h133v-92q78 -8 153 -33v-157q-39 23 -101.5 39t-120.5 16q-111 0 -111 -47q0 -34 38 -47
q16 -5 87 -19q66 -13 106.5 -26.5t74.5 -36t49 -57t15 -84.5q0 -74 -48.5 -125.5t-143.5 -68.5v-92z" />
    <glyph glyph-name="percent" unicode="%" horiz-adv-x="927" 
d="M882 158q0 -81 -49.5 -126.5t-136.5 -45.5q-80 0 -132 46t-52 126q0 79 49.5 125.5t135.5 46.5q80 0 132.5 -47.5t52.5 -124.5zM697 86q33 0 52.5 19.5t19.5 54.5q0 32 -19 51t-53 19q-33 0 -52.5 -19t-19.5 -52q0 -34 19.5 -53.5t52.5 -19.5zM757 700l-452 -700h-134
l453 700h133zM158 543q0 -34 19.5 -53.5t52.5 -19.5t52.5 19.5t19.5 54.5q0 32 -19 51t-53 19q-33 0 -52.5 -19t-19.5 -52zM415 542q0 -81 -49.5 -126.5t-136.5 -45.5q-80 0 -132 46t-52 126q0 79 49.5 125.5t135.5 46.5q80 0 132.5 -47.5t52.5 -124.5z" />
    <glyph glyph-name="ampersand" unicode="&#x26;" horiz-adv-x="754" 
d="M548 399h142q-14 -145 -70 -242l158 -157h-189l-57 56q-93 -70 -232 -70q-127 0 -193.5 59t-66.5 159q0 73 42 127t122 75q-23 44 -23 100q0 99 62.5 153.5t164.5 54.5q65 0 127 -30v-134q-70 32 -120 32q-41 0 -66.5 -20t-25.5 -57q0 -54 81 -133l113 -113q25 60 31 140
zM297 291l-16 15q-43 -5 -70.5 -31t-27.5 -67q0 -44 35 -69t88 -25q75 0 130 38z" />
    <glyph glyph-name="quotesingle" unicode="'" horiz-adv-x="211" 
d="M56 507l-24 278h147l-25 -278h-98z" />
    <glyph glyph-name="parenleft" unicode="(" horiz-adv-x="393" 
d="M209 292q0 -263 177 -492h-151q-73 85 -124 212t-51 279t51 278t124 211h151q-177 -229 -177 -488z" />
    <glyph glyph-name="parenright" unicode=")" horiz-adv-x="394" 
d="M184 288q0 263 -177 492h151q73 -85 124 -212t51 -279t-51 -278t-124 -211h-151q177 229 177 488z" />
    <glyph glyph-name="asterisk" unicode="*" horiz-adv-x="435" 
d="M178 594l-113 -51l-25 118h123l-83 91l104 60l38 -117l62 108l89 -82l-100 -72l122 -26l-50 -109l-100 73l13 -123l-119 13z" />
    <glyph glyph-name="plus" unicode="+" horiz-adv-x="619" 
d="M40 275v140h199v190h141v-190h199v-140h-199v-193h-141v193h-199z" />
    <glyph glyph-name="comma" unicode="," horiz-adv-x="240" 
d="M88 -26q0 11 -4.5 18.5t-19.5 21.5q-31 28 -31 68q0 36 24.5 58.5t62.5 22.5q46 0 71.5 -30t25.5 -79q0 -127 -137 -214l-55 63q23 18 33 26.5t20 21t10 23.5z" />
    <glyph glyph-name="hyphen" unicode="-" horiz-adv-x="432" 
d="M392 239h-352v140h352v-140z" />
    <glyph glyph-name="period" unicode="." horiz-adv-x="248" 
d="M124 -14q-42 0 -67 25t-25 65t25 65.5t67 25.5t67 -25.5t25 -65.5t-25 -65t-67 -25z" />
    <glyph glyph-name="slash" unicode="/" horiz-adv-x="401" 
d="M-20 -200l279 955h142l-279 -955h-142z" />
    <glyph glyph-name="zero" unicode="0" horiz-adv-x="706" 
d="M353 -14q-136 0 -214.5 84.5t-78.5 242.5v74q0 158 79 242.5t215 84.5q137 0 214.5 -84t77.5 -243v-74q0 -159 -78 -243t-215 -84zM354 571q-63 0 -99 -45.5t-36 -138.5v-74q0 -93 35.5 -138.5t98.5 -45.5t98.5 45.5t35.5 138.5v74q0 93 -35 138.5t-98 45.5z" />
    <glyph glyph-name="one" unicode="1" horiz-adv-x="543" 
d="M60 0v133h157v403q-69 -20 -157 -26v144q153 20 306 60v-581h152v-133h-458z" />
    <glyph glyph-name="two" unicode="2" horiz-adv-x="632" 
d="M297 570q-104 0 -224 -61v156q108 49 235 49q125 0 190 -60t65 -168q0 -96 -63 -168t-177 -143l-56 -35h325v-140h-532v126l153 122q107 85 148.5 131.5t41.5 98.5q0 43 -26.5 67.5t-79.5 24.5z" />
    <glyph glyph-name="three" unicode="3" horiz-adv-x="639" 
d="M193 389l185 169h-312v142h495v-141l-177 -153q100 -2 154 -51.5t54 -141.5q0 -111 -76 -169t-218 -58q-141 0 -238 44v159q105 -60 234 -60q141 0 141 86q0 84 -131 84q-47 0 -111 -6v96z" />
    <glyph glyph-name="four" unicode="4" horiz-adv-x="684" 
d="M35 153v118l273 429h174l-270 -417h203v192h145v-192h87v-130h-87v-153h-145v153h-380z" />
    <glyph glyph-name="five" unicode="5" horiz-adv-x="622" 
d="M577 229q0 -118 -79.5 -180.5t-217.5 -62.5q-121 0 -215 36v158q97 -50 217 -50q138 0 138 91q0 52 -36.5 74t-111.5 22q-78 0 -188 -22l13 405h452v-142h-310l-6 -119q48 12 105 12q109 0 174 -56.5t65 -165.5z" />
    <glyph glyph-name="six" unicode="6" horiz-adv-x="682" 
d="M594 686v-148q-78 37 -171 37q-96 0 -155 -47.5t-69 -137.5q65 86 190 86q107 0 174 -62.5t67 -171.5q0 -121 -74 -188.5t-198 -67.5q-146 0 -223.5 90.5t-77.5 254.5v8q0 179 95 277t267 98q95 0 175 -28zM229 238q0 -53 34 -82.5t92 -29.5q55 0 88.5 29t33.5 82
q0 51 -33 80.5t-88 29.5q-56 0 -91.5 -29.5t-35.5 -79.5z" />
    <glyph glyph-name="seven" unicode="7" horiz-adv-x="607" 
d="M105 0l301 556h-361v144h522v-140l-296 -560h-166z" />
    <glyph glyph-name="eight" unicode="8" horiz-adv-x="672" 
d="M336 -20q-131 0 -208.5 56.5t-77.5 157.5q0 118 109 166q-87 45 -87 147q0 101 75 157t194 56q118 0 189.5 -57t71.5 -155q0 -47 -22 -86t-63 -62q105 -43 105 -160q0 -104 -77 -162t-209 -58zM344 304h-10q-57 0 -92 -25t-35 -73q0 -45 36 -69.5t97 -24.5
q59 0 91.5 25.5t32.5 70.5q0 47 -33 71.5t-87 24.5zM340 588q-50 0 -81 -24t-31 -68q0 -41 30 -64t77 -23h9q48 0 75.5 23t27.5 64q0 44 -29 68t-78 24z" />
    <glyph glyph-name="nine" unicode="9" horiz-adv-x="680" 
d="M88 12v151q73 -38 172 -38q96 0 153.5 47t67.5 136q-57 -83 -178 -83q-111 0 -181 59t-70 172q0 121 76.5 189.5t200.5 68.5q144 0 219 -89.5t75 -247.5v-7q0 -185 -90.5 -285t-269.5 -100q-94 0 -175 27zM453 462q0 51 -33.5 81.5t-90.5 30.5q-55 0 -89 -30.5t-34 -81.5
q0 -50 34.5 -79t89.5 -29t89 29t34 79z" />
    <glyph glyph-name="colon" unicode=":" horiz-adv-x="239" 
d="M124 384q-42 0 -67 25t-25 65t25 65.5t67 25.5t67 -25.5t25 -65.5t-25 -65t-67 -25zM124 -14q-42 0 -67 25t-25 65t25 65.5t67 25.5t67 -25.5t25 -65.5t-25 -65t-67 -25z" />
    <glyph glyph-name="semicolon" unicode=";" horiz-adv-x="240" 
d="M88 -26q0 11 -4.5 18.5t-19.5 21.5q-31 28 -31 68q0 36 24.5 58.5t62.5 22.5q46 0 71.5 -30t25.5 -79q0 -127 -137 -214l-55 63q23 18 33 26.5t20 21t10 23.5zM125 384q-42 0 -67 25t-25 65t25 65.5t67 25.5t67 -25.5t25 -65.5t-25 -65t-67 -25z" />
    <glyph glyph-name="less" unicode="&#x3c;" horiz-adv-x="546" 
d="M42 274v173l444 184v-155l-310 -117l310 -117v-152z" />
    <glyph glyph-name="equal" unicode="=" horiz-adv-x="623" 
d="M65 397v140h493v-140h-493zM65 177v140h493v-140h-493z" />
    <glyph glyph-name="greater" unicode="&#x3e;" horiz-adv-x="546" 
d="M504 447v-173l-444 -184v155l309 117l-309 117v152z" />
    <glyph glyph-name="question" unicode="?" horiz-adv-x="466" 
d="M442 530q0 -49 -21 -87t-67 -76q-52 -41 -70.5 -65.5t-18.5 -62.5v-18h-122q-4 20 -4 51q0 47 22 81t65 69q37 31 52.5 50.5t15.5 43.5q0 32 -23 50t-66 18q-44 0 -94.5 -18.5t-83.5 -43.5v145q83 47 196 47q96 0 157.5 -49.5t61.5 -134.5zM212 -14q-42 0 -67 25t-25 65
t25 65.5t67 25.5t67 -25.5t25 -65.5t-25 -65t-67 -25z" />
    <glyph glyph-name="at" unicode="@" horiz-adv-x="941" 
d="M483 -140q-200 0 -314 111.5t-114 302.5q0 200 119.5 320t325.5 120q178 0 287 -109t109 -281q0 -113 -54 -176.5t-143 -63.5q-95 0 -127 71q-32 -68 -117 -68q-77 0 -120.5 54t-43.5 142q0 91 46.5 146.5t119.5 55.5q57 0 94 -37v29h108v-208q0 -74 44 -74q32 0 48.5 33
t16.5 91q0 123 -72 196.5t-198 73.5q-134 0 -217.5 -82.5t-83.5 -228.5q0 -135 76 -212.5t219 -77.5q43 0 95 12t79 28v-134q-70 -34 -183 -34zM480 197q33 0 50.5 24.5t17.5 66.5t-17.5 65.5t-49.5 23.5q-33 0 -53 -24t-20 -66q0 -41 19.5 -65.5t52.5 -24.5z" />
    <glyph glyph-name="A" unicode="A" horiz-adv-x="741" 
d="M230 157l-52 -157h-161l242 700h220l245 -700h-167l-51 157h-276zM369 579l-94 -285h186z" />
    <glyph glyph-name="B" unicode="B" horiz-adv-x="712" 
d="M90 0v700h294q115 0 177 -48t62 -138t-67 -138q110 -37 110 -167q0 -99 -69.5 -154t-197.5 -55h-309zM404 291h-159v-158h158q55 0 82 18.5t27 59.5t-26 60.5t-82 19.5zM245 567v-148h131q97 0 97 74t-98 74h-130z" />
    <glyph glyph-name="C" unicode="C" horiz-adv-x="685" 
d="M50 346q0 171 104 269.5t270 98.5q127 0 202 -47v-158q-77 61 -188 61q-98 0 -161 -57t-63 -164q0 -104 59 -161.5t162 -57.5q55 0 108.5 14.5t86.5 37.5v-148q-32 -20 -89 -34t-119 -14q-175 0 -273.5 93t-98.5 267z" />
    <glyph glyph-name="D" unicode="D" horiz-adv-x="787" 
d="M90 0v700h251q190 0 293 -87.5t103 -263.5q0 -167 -104.5 -258t-291.5 -91h-251zM249 138h92q122 0 177 53.5t55 156.5q0 105 -55 159.5t-177 54.5h-92v-424z" />
    <glyph glyph-name="E" unicode="E" horiz-adv-x="645" 
d="M90 0v700h500v-137h-342v-146h238v-132h-238v-148h342v-137h-500z" />
    <glyph glyph-name="F" unicode="F" horiz-adv-x="630" 
d="M90 0v700h500v-138h-341v-165h238v-136h-238v-261h-159z" />
    <glyph glyph-name="G" unicode="G" horiz-adv-x="736" 
d="M668 326v-270q-93 -70 -243 -70q-180 0 -277.5 96t-97.5 265q0 166 102 266.5t286 100.5q119 0 207 -47v-158q-83 61 -198 61q-106 0 -169.5 -56t-63.5 -164q0 -106 58.5 -165t161.5 -59q52 0 87 12v188h147z" />
    <glyph glyph-name="H" unicode="H" horiz-adv-x="816" 
d="M90 700h159v-273h318v273h159v-700h-159v287h-318v-287h-159v700z" />
    <glyph glyph-name="I" unicode="I" horiz-adv-x="339" 
d="M90 0v700h159v-700h-159z" />
    <glyph glyph-name="J" unicode="J" horiz-adv-x="551" 
d="M225 -14q-95 0 -170 36v149q67 -41 145 -41q58 0 87 27t29 88v313h-233v142h390v-472q0 -242 -248 -242z" />
    <glyph glyph-name="K" unicode="K" horiz-adv-x="723" 
d="M708 0h-187l-169 289h-103v-289h-159v700h159v-274h105l169 274h178l-214 -337z" />
    <glyph glyph-name="L" unicode="L" horiz-adv-x="604" 
d="M90 0v700h159v-556h310v-144h-469z" />
    <glyph glyph-name="M" unicode="M" horiz-adv-x="956" 
d="M282 700l198 -295l196 295h190v-700h-157v497l-199 -290h-69l-199 290v-497h-152v700h192z" />
    <glyph glyph-name="N" unicode="N" horiz-adv-x="821" 
d="M90 700h164l326 -474v474h151v-700h-163l-327 476v-476h-151v700z" />
    <glyph glyph-name="O" unicode="O" horiz-adv-x="860" 
d="M810 350q0 -167 -104 -265.5t-275 -98.5q-173 0 -277 98.5t-104 265.5t104 265.5t277 98.5q171 0 275 -98.5t104 -265.5zM646 350q0 106 -60.5 162.5t-155.5 56.5q-96 0 -156 -57t-60 -162t60 -162t156 -57q95 0 155.5 57.5t60.5 161.5z" />
    <glyph glyph-name="P" unicode="P" horiz-adv-x="730" 
d="M78 0v424q0 142 82 221.5t229 79.5q133 0 214.5 -78t81.5 -212q0 -124 -77 -203t-202 -79q-100 0 -170 48q0 -15 0.5 -41t0.5 -36v-124h-159zM237 435q0 -64 42 -103.5t106 -39.5q66 0 103.5 38.5t37.5 106.5q0 66 -40 106.5t-101 40.5q-66 0 -107 -39.5t-41 -109.5z" />
    <glyph glyph-name="Q" unicode="Q" horiz-adv-x="865" 
d="M837 -48v-144q-35 -22 -103 -22q-207 0 -306 200q-171 0 -274.5 99t-103.5 265q0 167 104 265.5t277 98.5q171 0 275 -98.5t104 -265.5q0 -124 -57.5 -209t-161.5 -122q57 -83 166 -83q47 0 80 16zM646 350q0 106 -60.5 162.5t-155.5 56.5q-96 0 -156 -57t-60 -162
t60.5 -162.5t156.5 -57.5q95 0 155 57.5t60 162.5z" />
    <glyph glyph-name="R" unicode="R" horiz-adv-x="739" 
d="M90 700h322q128 0 198.5 -58.5t70.5 -175.5q0 -71 -35.5 -126t-102.5 -78l166 -262h-183l-144 236h-133v-236h-159v700zM249 369h143q133 0 133 94q0 53 -33 76t-99 23h-144v-193z" />
    <glyph glyph-name="S" unicode="S" horiz-adv-x="648" 
d="M58 40v160q106 -71 268 -71q120 0 120 68q0 33 -32 49t-113 33q-120 25 -180 76t-60 143q0 105 77.5 160.5t214.5 55.5q127 0 216 -43v-157q-102 58 -214 58q-57 0 -92 -16.5t-35 -49.5t33 -49t120 -37q116 -27 171.5 -75.5t55.5 -140.5q0 -107 -75 -162.5t-212 -55.5
q-149 0 -263 54z" />
    <glyph glyph-name="T" unicode="T" horiz-adv-x="709" 
d="M275 0v556h-245v144h649v-144h-245v-556h-159z" />
    <glyph glyph-name="U" unicode="U" horiz-adv-x="794" 
d="M399 133q75 0 116 44t41 132v391h160v-400q0 -150 -85.5 -232t-233.5 -82t-233.5 82t-85.5 232v400h160v-391q0 -88 42 -132t119 -44z" />
    <glyph glyph-name="V" unicode="V" horiz-adv-x="730" 
d="M188 700l186 -552l181 552h161l-236 -700h-218l-242 700h168z" />
    <glyph glyph-name="W" unicode="W" horiz-adv-x="1017" 
d="M35 700h155l118 -556l120 487h179l119 -487l120 556h148l-158 -700h-206l-113 477l-117 -477h-211z" />
    <glyph glyph-name="X" unicode="X" horiz-adv-x="734" 
d="M547 0l-146 286h-58l-144 -286h-174l192 360l-190 340h175l143 -279h51l144 279h171l-183 -336l196 -364h-177z" />
    <glyph glyph-name="Y" unicode="Y" horiz-adv-x="729" 
d="M334 -15q-145 0 -245 45v164q111 -69 232 -69q90 0 135.5 37.5t45.5 106.5v1v41q-55 -58 -168 -58q-130 0 -199.5 69.5t-69.5 203.5v174h159v-169q0 -135 138 -135q62 0 98 33.5t36 103.5v167h158v-431q0 -284 -320 -284z" />
    <glyph glyph-name="Z" unicode="Z" horiz-adv-x="709" 
d="M71 557v143h568v-143l-379 -414h397v-143h-591v143l376 414h-371z" />
    <glyph glyph-name="bracketleft" unicode="[" horiz-adv-x="398" 
d="M100 -200v980h243v-125h-100v-730h100v-125h-243z" />
    <glyph glyph-name="backslash" unicode="\" horiz-adv-x="421" 
d="M441 -200h-142l-299 955h142z" />
    <glyph glyph-name="bracketright" unicode="]" horiz-adv-x="398" 
d="M298 780v-980h-243v125h100v730h-100v125h243z" />
    <glyph glyph-name="asciicircum" unicode="^" horiz-adv-x="593" 
d="M0 338l213 371h166l214 -371h-156l-140 254l-144 -254h-153z" />
    <glyph glyph-name="underscore" unicode="_" horiz-adv-x="503" 
d="M0 -191v140h503v-140h-503z" />
    <glyph glyph-name="grave" unicode="`" horiz-adv-x="320" 
d="M166 615l-144 154h157l111 -154h-124z" />
    <glyph glyph-name="a" unicode="a" 
d="M80 384v142q99 44 219 44q131 0 191.5 -59.5t58.5 -182.5l-3 -160q-2 -50 46 -50q7 0 21 2v-115q-33 -15 -80 -15q-94 0 -119 72q-58 -72 -182 -72q-88 0 -139 43.5t-51 122.5q0 182 255 182h106q0 98 -117 98q-105 0 -206 -52zM273 117q56 0 93 30t37 85v2h-100
q-106 0 -106 -62q0 -28 21.5 -41.5t54.5 -13.5z" />
    <glyph glyph-name="b" unicode="b" horiz-adv-x="685" 
d="M65 780h155v-169q0 -59 -3 -98q70 57 169 57q122 0 191.5 -75.5t69.5 -206.5q0 -143 -77.5 -222.5t-210.5 -79.5q-139 0 -216.5 73.5t-77.5 215.5v505zM493 281q0 71 -36 109.5t-97 38.5q-64 0 -102.5 -39.5t-38.5 -110.5t37.5 -111t103.5 -40q64 0 98.5 41.5t34.5 111.5
z" />
    <glyph glyph-name="c" unicode="c" horiz-adv-x="566" 
d="M38 277q0 134 82 215.5t221 81.5q101 0 173 -46v-144q-58 49 -160 49q-71 0 -116.5 -38.5t-45.5 -113.5q0 -77 44 -115.5t119 -38.5q103 0 161 49v-142q-62 -48 -179 -48q-140 0 -219.5 81t-79.5 210z" />
    <glyph glyph-name="d" unicode="d" horiz-adv-x="697" 
d="M617 780v-780h-155v27v28q-54 -65 -161 -65q-119 0 -191 76.5t-72 208.5q0 137 77 216t198 79q98 0 151 -53q-2 86 -2 114v149h155zM330 129q63 0 100 40.5t37 113.5q0 70 -36 109t-98 39t-101.5 -41t-39.5 -111q0 -69 38 -109.5t100 -40.5z" />
    <glyph glyph-name="e" unicode="e" horiz-adv-x="620" 
d="M343 574q104 0 171.5 -51.5t67.5 -141.5q0 -89 -69.5 -127t-205.5 -38h-115q17 -50 59.5 -72.5t114.5 -22.5q118 0 194 51v-138q-84 -48 -212 -48q-141 0 -225.5 75t-84.5 219q0 135 85 214.5t220 79.5zM342 445q-59 0 -101.5 -31t-54.5 -89h144q57 0 82 12t25 41t-24 48
t-71 19z" />
    <glyph glyph-name="f" unicode="f" horiz-adv-x="389" 
d="M97 560v9q0 112 56 168.5t158 56.5q54 0 88 -16v-126q-29 8 -58 8q-91 0 -91 -88v-12h133v-130h-131v-430h-155v430h-71v130h71z" />
    <glyph glyph-name="g" unicode="g" horiz-adv-x="685" 
d="M610 560v-505q0 -132 -76 -200.5t-220 -68.5q-136 0 -226 38v152q108 -51 217 -51q88 0 127 34t39 111v4v14q-55 -64 -164 -64q-123 0 -195 71t-72 198q0 131 75 204t194 73q103 0 155 -56v25v21h146zM194 295q0 -64 39 -99t100 -35q58 0 94 36t36 98q0 65 -36 100.5
t-95 35.5q-62 0 -100 -36t-38 -100z" />
    <glyph glyph-name="h" unicode="h" horiz-adv-x="692" 
d="M80 0v780h155v-199q0 -9 -0.5 -32.5t-0.5 -36.5q65 58 169 58q107 0 165.5 -66.5t58.5 -173.5v-330h-155v308q0 122 -114 122q-56 0 -89.5 -33t-33.5 -100v-297h-155z" />
    <glyph glyph-name="i" unicode="i" horiz-adv-x="315" 
d="M156 617q-37 0 -62 22.5t-25 61.5t25 61.5t62 22.5t62.5 -22.5t25.5 -61.5t-25.5 -61.5t-62.5 -22.5zM80 0v560h155v-560h-155z" />
    <glyph glyph-name="j" unicode="j" horiz-adv-x="312" 
d="M158 617q-37 0 -62.5 22.5t-25.5 61.5t25.5 61.5t62.5 22.5t62.5 -22.5t25.5 -61.5t-25.5 -61.5t-62.5 -22.5zM239 560v-539q0 -113 -51 -174t-152 -61q-60 0 -99 16v129q35 -11 65 -11q82 0 82 98v542h155z" />
    <glyph glyph-name="k" unicode="k" horiz-adv-x="645" 
d="M457 0l-139 213h-83v-213h-155v780h155v-433h83l138 213h176l-188 -272l196 -288h-183z" />
    <glyph glyph-name="l" unicode="l" horiz-adv-x="315" 
d="M80 0v780h155v-780h-155z" />
    <glyph glyph-name="m" unicode="m" horiz-adv-x="1030" 
d="M80 560h150v-18v-34q60 62 155 62q116 0 172 -81q68 81 181 81q114 0 170.5 -65t56.5 -184v-321h-155v308q0 122 -101 122q-50 0 -79.5 -27t-29.5 -81v-322h-155v308q0 122 -97 122q-56 0 -84.5 -32t-28.5 -90v-308h-155v560z" />
    <glyph glyph-name="n" unicode="n" horiz-adv-x="676" 
d="M338 574q124 0 198.5 -67t74.5 -187v-320h-158v297q0 134 -115 134t-115 -134v-297h-158v320q0 120 74.5 187t198.5 67z" />
    <glyph glyph-name="o" unicode="o" horiz-adv-x="686" 
d="M648 282q0 -140 -87.5 -218t-217.5 -78q-131 0 -218 77t-87 218q0 138 87.5 215.5t217.5 77.5t217.5 -77t87.5 -215zM494 282q0 74 -43.5 113.5t-107.5 39.5t-107.5 -40.5t-43.5 -113.5t43 -114.5t108 -41.5q64 0 107.5 41.5t43.5 115.5z" />
    <glyph glyph-name="p" unicode="p" horiz-adv-x="681" 
d="M220 -200h-155v478q0 146 82.5 221t214.5 75q131 0 206 -80t75 -214q0 -137 -73.5 -213.5t-200.5 -76.5q-92 0 -150 49q1 -17 1 -51v-188zM489 278q0 72 -34.5 113t-96.5 41q-65 0 -102 -40.5t-37 -110.5q0 -68 38.5 -109t100.5 -41t96.5 39t34.5 108z" />
    <glyph glyph-name="q" unicode="q" horiz-adv-x="697" 
d="M617 560v-760h-155v185q0 41 1 61q-52 -56 -154 -56q-124 0 -197.5 76t-73.5 210q0 136 76.5 215t201.5 79q91 0 151 -54v24v20h150zM192 280q0 -70 38.5 -109.5t99.5 -39.5q64 0 100.5 40t36.5 111q0 70 -37 109t-99 39q-63 0 -101 -40t-38 -110z" />
    <glyph glyph-name="r" unicode="r" horiz-adv-x="466" 
d="M80 0v560h155v-23q0 -5 -0.5 -18.5t-0.5 -21.5q57 73 148 73q32 0 54 -10v-148q-30 10 -61 10q-140 0 -140 -199v-223h-155z" />
    <glyph glyph-name="s" unicode="s" horiz-adv-x="560" 
d="M58 27v156q46 -32 111.5 -51t121.5 -19q92 0 92 45q0 22 -24 34t-78 19q-113 15 -170.5 55t-57.5 117q0 94 70 142.5t181 48.5q108 0 193 -37v-145q-35 23 -89 39t-103 16q-103 0 -103 -44q0 -12 4.5 -19.5t20 -13t26.5 -8t42 -7.5q11 -2 17 -3q111 -19 164.5 -60
t53.5 -122q0 -86 -60.5 -135t-182.5 -49q-128 0 -229 41z" />
    <glyph glyph-name="t" unicode="t" horiz-adv-x="421" 
d="M251 430v-213q0 -47 21 -68.5t69 -21.5q28 0 58 10v-127q-32 -20 -96 -20q-106 0 -156 54.5t-50 169.5v216h-71v130h71v140h154v-140h148v-130h-148z" />
    <glyph glyph-name="u" unicode="u" horiz-adv-x="673" 
d="M608 560v-326q0 -115 -74 -181.5t-197 -66.5q-124 0 -198 66.5t-74 181.5v326h158v-315q0 -53 29.5 -84.5t85.5 -31.5t84 31t28 85v315h158z" />
    <glyph glyph-name="v" unicode="v" horiz-adv-x="640" 
d="M235 0l-210 560h165l142 -408l133 408h160l-202 -560h-188z" />
    <glyph glyph-name="w" unicode="w" horiz-adv-x="912" 
d="M38 560h148l101 -425l95 348h162l96 -348l101 425h144l-142 -560h-192l-89 333l-90 -333h-194z" />
    <glyph glyph-name="x" unicode="x" horiz-adv-x="632" 
d="M17 560h176l109 -204h29l117 204h171l-161 -269l170 -291h-178l-116 214h-31l-112 -214h-172l161 286z" />
    <glyph glyph-name="y" unicode="y" horiz-adv-x="682" 
d="M607 560v-513q0 -131 -81.5 -196t-212.5 -65q-136 0 -226 38v152q108 -51 217 -51q163 0 163 140v4v26q-47 -61 -156 -61q-246 0 -246 254v272h155v-266q0 -64 29 -91.5t86 -27.5q56 0 86.5 30.5t30.5 88.5v266h155z" />
    <glyph glyph-name="z" unicode="z" horiz-adv-x="593" 
d="M52 0v129l288 294h-281v137h478v-126l-289 -297h304v-137h-500z" />
    <glyph glyph-name="braceleft" unicode="{" horiz-adv-x="433" 
d="M52 227h-12v126h12q47 0 65.5 22.5t18.5 82.5v134q0 97 42.5 145t144.5 48q35 0 60 -5v-119h-34q-73 0 -73 -74v-133q0 -130 -83 -162q83 -26 83 -147v-150q0 -76 73 -76h34v-119q-25 -5 -57 -5q-103 0 -146.5 41t-43.5 129v178q0 46 -18.5 65t-65.5 19z" />
    <glyph glyph-name="bar" unicode="|" horiz-adv-x="325" 
d="M90 -200v980h145v-980h-145z" />
    <glyph glyph-name="braceright" unicode="}" horiz-adv-x="433" 
d="M297 615v-178q0 -46 18.5 -65t65.5 -19h12v-126h-12q-47 0 -65.5 -22.5t-18.5 -82.5v-134q0 -97 -42.5 -145t-144.5 -48q-33 0 -60 5v119h34q73 0 73 74v133q0 129 82 161q-82 28 -82 148v150q0 76 -73 76h-34v119q27 5 57 5q103 0 146.5 -41t43.5 -129z" />
    <glyph glyph-name="asciitilde" unicode="~" horiz-adv-x="680" 
d="M496 474h146q-5 -119 -53.5 -182t-131.5 -63q-39 0 -66.5 11.5t-65.5 39.5q-8 6 -21.5 17t-20.5 16t-17.5 10t-20.5 5q-25 0 -42 -24.5t-21 -71.5h-144q6 124 59 185t137 61q62 0 137 -58q6 -5 16.5 -13.5t15 -12t12 -8t14 -6t13.5 -1.5q48 0 54 95z" />
    <glyph glyph-name="exclamdown" unicode="&#xa1;" horiz-adv-x="304" 
d="M152 574q42 0 67 -25t25 -65t-25 -65.5t-67 -25.5t-67 25.5t-25 65.5t25 65t67 25zM228 -210h-152l12 473v66h129v-66z" />
    <glyph glyph-name="cent" unicode="&#xa2;" horiz-adv-x="588" 
d="M279 0v75q-108 20 -168.5 95.5t-60.5 189.5q0 115 60.5 193t168.5 98v79h123v-77q76 -10 124 -42v-145q-63 50 -158 50q-72 0 -118 -39.5t-46 -112.5q0 -77 44.5 -115.5t118.5 -38.5q103 0 161 49v-142q-47 -35 -127 -45v-72h-122z" />
    <glyph glyph-name="sterling" unicode="&#xa3;" horiz-adv-x="645" 
d="M615 0h-560v134q94 19 94 150v16h-74v113h74v21q0 138 67 209t198 71q84 0 142 -25v-134q-57 26 -122 26q-125 0 -125 -154v-14h178v-113h-178v-18q0 -108 -56 -146h362v-136z" />
    <glyph glyph-name="currency" unicode="&#xa4;" horiz-adv-x="814" 
d="M779 99l-82 -83l-125 116q-70 -48 -165 -48t-166 47l-124 -115l-82 83l128 121q-27 54 -27 127q0 71 27 123l-128 122l82 83l124 -116q70 49 166 49t166 -49l124 116l82 -83l-128 -122q27 -56 27 -123t-28 -126zM525 347q0 53 -34.5 85t-83.5 32t-83.5 -31.5t-34.5 -85.5
t34.5 -86.5t83.5 -32.5t83.5 32.5t34.5 86.5z" />
    <glyph glyph-name="yen" unicode="&#xa5;" horiz-adv-x="730" 
d="M291 0v165h-204v103h204l-42 68h-162v103h98l-160 261h178l169 -280l157 280h176l-155 -261h99v-103h-160l-39 -67v-1h199v-103h-199v-165h-159z" />
    <glyph glyph-name="brokenbar" unicode="&#xa6;" horiz-adv-x="325" 
d="M235 397h-145v383h145v-383zM90 -200v395h145v-395h-145z" />
    <glyph glyph-name="section" unicode="&#xa7;" horiz-adv-x="577" 
d="M65 236q0 93 69 152q-69 48 -69 135q0 90 67 140.5t175 50.5q107 0 181 -38v-142q-89 52 -186 52q-43 0 -69.5 -15t-26.5 -42q0 -20 14 -32t31 -17t61 -14l29 -6q86 -17 132.5 -61t46.5 -130q0 -88 -64 -145q76 -46 76 -141q0 -91 -62.5 -144t-182.5 -53q-127 0 -215 45
v149q99 -66 222 -66q98 0 98 57q0 28 -22.5 40.5t-82.5 24.5l-32 6q-190 38 -190 194zM303 168l33 -5l2 -1h2q47 40 47 89q0 39 -24.5 58t-73.5 28l-35 6q-6 0 -7 1q-47 -34 -47 -90q0 -37 25 -57.5t78 -28.5z" />
    <glyph glyph-name="dieresis" unicode="&#xa8;" horiz-adv-x="427" 
d="M313 615q-31 0 -52.5 21.5t-21.5 53.5t21.5 54t52.5 22q30 0 52 -22t22 -54t-22 -53.5t-52 -21.5zM114 615q-30 0 -52 21.5t-22 53.5t22 54t52 22q32 0 53.5 -22t21.5 -54t-21.5 -53.5t-53.5 -21.5z" />
    <glyph glyph-name="copyright" unicode="&#xa9;" horiz-adv-x="860" 
d="M452 115q-111 0 -175.5 65.5t-64.5 166.5q0 107 62.5 171.5t171.5 64.5q85 0 146 -38v-113q-47 39 -128 39q-57 0 -93.5 -30.5t-36.5 -90.5q0 -63 35 -93t95 -30q42 0 76.5 11.5t51.5 27.5v-113q-49 -38 -140 -38zM430 44q139 0 229.5 82.5t90.5 223.5t-90.5 223.5
t-229.5 82.5q-141 0 -230.5 -82.5t-89.5 -223.5t89.5 -223.5t230.5 -82.5zM431 -14q-170 0 -275.5 100t-105.5 264t105.5 264t275.5 100q167 0 273 -100t106 -264q0 -163 -106 -263.5t-273 -100.5z" />
    <glyph glyph-name="ordfeminine" unicode="&#xaa;" horiz-adv-x="494" 
d="M94 593v93q63 28 142 28q166 0 162 -156l-2 -103q0 -32 30 -32q5 0 8 1h5v-73q-21 -10 -53 -10q-59 0 -79 45q-43 -45 -115 -45q-57 0 -89.5 28t-32.5 79q0 117 164 117h63q0 33 -16.5 47t-53.5 14q-65 0 -133 -33zM70 295h369v-94h-369v94zM219 422q35 0 56.5 18.5
t21.5 54.5v1h-65q-57 0 -57 -38q0 -36 44 -36z" />
    <glyph glyph-name="guillemotleft" unicode="&#xab;" horiz-adv-x="519" 
d="M281 510l-127 -226l127 -225h-135l-126 220v11l126 220h135zM494 59h-134l-129 220v11l129 220h134l-128 -226z" />
    <glyph glyph-name="logicalnot" unicode="&#xac;" horiz-adv-x="630" 
d="M428 186v168h-373v140h515v-308h-142z" />
    <glyph glyph-name="registered" unicode="&#xae;" horiz-adv-x="496" 
d="M456 529q0 -97 -59 -152t-149 -55q-91 0 -149.5 54t-58.5 153q0 95 59 149.5t149 54.5q89 0 148.5 -54.5t59.5 -149.5zM409 529q0 80 -45.5 121t-115.5 41t-116 -42t-46 -120q0 -81 45 -123.5t117 -42.5q70 0 115.5 42.5t45.5 123.5zM344 567q0 -45 -44 -63l51 -80h-64
l-39 68h-30v-68h-59v213h98q87 0 87 -70zM218 539h37q31 0 31 26t-31 26h-37v-52z" />
    <glyph glyph-name="macron" unicode="&#xaf;" horiz-adv-x="356" 
d="M38 641v98h280v-98h-280z" />
    <glyph glyph-name="degree" unicode="&#xb0;" horiz-adv-x="399" 
d="M364 556q0 -77 -46.5 -118.5t-117.5 -41.5t-118 41t-47 119q0 75 47.5 116.5t117.5 41.5t117 -41.5t47 -116.5zM276 556q0 36 -22 55.5t-54 19.5q-34 0 -55.5 -19t-21.5 -56t21.5 -57t55.5 -20q32 0 54 19t22 58z" />
    <glyph glyph-name="plusminus" unicode="&#xb1;" horiz-adv-x="653" 
d="M65 360v127h191v154h141v-154h191v-127h-191v-147h-141v147h-191zM65 51v130h523v-130h-523z" />
    <glyph glyph-name="acute" unicode="&#xb4;" horiz-adv-x="349" 
d="M158 616h-126l134 154h161z" />
    <glyph glyph-name="paragraph" unicode="&#xb6;" horiz-adv-x="849" 
d="M593 -200v760h-135v-760h-150v356q-127 0 -201 69t-74 205q0 132 83.5 201t223.5 69h403v-900h-150z" />
    <glyph glyph-name="periodcentered" unicode="&#xb7;" horiz-adv-x="254" 
d="M127 249q-33 0 -56 23.5t-23 56.5q0 34 23.5 57.5t55.5 23.5q33 0 56 -23.5t23 -57.5t-23 -57t-56 -23z" />
    <glyph glyph-name="cedilla" unicode="&#xb8;" horiz-adv-x="267" 
d="M115 -223q-43 0 -74 16l19 65q18 -9 37 -9q15 0 25 7.5t10 19.5q0 33 -56 37l37 87h74l-19 -41q61 -20 61 -82q0 -43 -31 -71.5t-83 -28.5z" />
    <glyph glyph-name="ordmasculine" unicode="&#xba;" horiz-adv-x="487" 
d="M330 529q0 44 -24 66t-62 22q-39 0 -63 -22.5t-24 -65.5q0 -45 23.5 -68.5t63.5 -23.5q38 0 62 23t24 69zM59 295h369v-94h-369v94zM432 529q0 -89 -53.5 -139t-134.5 -50q-82 0 -135.5 48.5t-53.5 140.5q0 87 54 136t135 49t134.5 -49t53.5 -136z" />
    <glyph glyph-name="guillemotright" unicode="&#xbb;" horiz-adv-x="519" 
d="M373 59h-135l126 225l-126 226h135l126 -220v-11zM159 59h-134l128 225l-128 226h134l129 -220v-11z" />
    <glyph glyph-name="questiondown" unicode="&#xbf;" horiz-adv-x="450" 
d="M20 30q0 49 21 87t67 76q39 33 53 46t25 34t11 48v18h122q4 -20 4 -51q0 -47 -22 -81t-65 -69q-37 -31 -52.5 -50.5t-15.5 -43.5q0 -32 23 -50t66 -18q44 0 94.5 18.5t83.5 43.5v-145q-83 -47 -196 -47q-96 0 -157.5 49.5t-61.5 134.5zM254 574q42 0 67 -25.5t25 -65.5
t-25 -65t-67 -25t-67 25t-25 65t25 65.5t67 25.5z" />
    <glyph glyph-name="Agrave" unicode="&#xc0;" horiz-adv-x="741" 
d="M230 157l-52 -157h-161l242 700h220l245 -700h-167l-51 157h-276zM369 579l-94 -285h186zM153 898l174 -141h139l-138 141h-175z" />
    <glyph glyph-name="Aacute" unicode="&#xc1;" horiz-adv-x="741" 
d="M230 157l-52 -157h-161l242 700h220l245 -700h-167l-51 157h-276zM369 579l-94 -285h186zM275 757h142l194 141h-178z" />
    <glyph glyph-name="Acircumflex" unicode="&#xc2;" horiz-adv-x="741" 
d="M230 157l-52 -157h-161l242 700h220l245 -700h-167l-51 157h-276zM369 833l71 -81h126l-140 146h-115l-138 -146h125zM369 579l-94 -285h186z" />
    <glyph glyph-name="Atilde" unicode="&#xc3;" horiz-adv-x="741" 
d="M230 157l-52 -157h-161l242 700h220l245 -700h-167l-51 157h-276zM551 883h-88q-5 -50 -32 -50q-13 0 -40 23q-39 32 -77 32q-100 0 -111 -133h86q5 49 33 49q15 0 39 -22q39 -33 76 -33q50 0 80.5 34.5t33.5 99.5zM369 579l-94 -285h186z" />
    <glyph glyph-name="Adieresis" unicode="&#xc4;" horiz-adv-x="741" 
d="M230 157l-52 -157h-161l242 700h220l245 -700h-167l-51 157h-276zM369 579l-94 -285h186zM189 817q0 -32 22 -53.5t52 -21.5q32 0 53.5 21.5t21.5 53.5t-21.5 54t-53.5 22q-30 0 -52 -22t-22 -54zM399 817q0 -32 21.5 -53.5t52.5 -21.5q30 0 52 21.5t22 53.5t-22 54
t-52 22q-31 0 -52.5 -22t-21.5 -54z" />
    <glyph glyph-name="Aring" unicode="&#xc5;" horiz-adv-x="741" 
d="M369 911q60 0 100 -36t40 -97q0 -49 -28 -84l243 -694h-167l-51 157h-276l-52 -157h-161l240 694q-28 32 -28 84q0 61 40 97t100 36zM369 579l-94 -285h186zM369 714q28 0 45.5 17.5t17.5 46.5t-17.5 46.5t-45.5 17.5t-45.5 -17.5t-17.5 -46.5t17.5 -46.5t45.5 -17.5z
" />
    <glyph glyph-name="AE" unicode="&#xc6;" horiz-adv-x="1052" 
d="M997 0h-488v176h-234l-105 -176h-170l431 700h566v-137h-341v-146h237v-132h-237v-148h341v-137zM509 565l-156 -259h156v259z" />
    <glyph glyph-name="Ccedilla" unicode="&#xc7;" horiz-adv-x="685" 
d="M327 -73l20 64q-141 19 -219 110t-78 245q0 171 104 269.5t270 98.5q127 0 202 -47v-158q-77 61 -188 61q-98 0 -161 -57t-63 -164q0 -104 59 -161.5t162 -57.5q55 0 108.5 14.5t86.5 37.5v-148q-70 -43 -196 -48l-5 -14q49 -27 49 -81q0 -52 -31 -78.5t-82 -26.5
q-38 0 -74 17l20 69q17 -9 36 -9q32 0 32 27q0 33 -52 37z" />
    <glyph glyph-name="Egrave" unicode="&#xc8;" horiz-adv-x="645" 
d="M317 752l-174 141h175l138 -141h-139zM90 0v700h500v-137h-342v-146h238v-132h-238v-148h342v-137h-500z" />
    <glyph glyph-name="Eacute" unicode="&#xc9;" horiz-adv-x="645" 
d="M90 0v700h500v-137h-342v-146h238v-132h-238v-148h342v-137h-500zM375 757h-142l158 141h178z" />
    <glyph glyph-name="Ecircumflex" unicode="&#xca;" horiz-adv-x="645" 
d="M90 0v700h500v-137h-342v-146h238v-132h-238v-148h342v-137h-500zM414 752l-71 81l-71 -81h-125l138 146h115l140 -146h-126z" />
    <glyph glyph-name="Edieresis" unicode="&#xcb;" horiz-adv-x="645" 
d="M90 0v700h500v-137h-342v-146h238v-132h-238v-148h342v-137h-500zM378 817q0 32 21.5 54t52.5 22q30 0 52 -22t22 -54t-22 -53.5t-52 -21.5q-31 0 -52.5 21.5t-21.5 53.5zM168 817q0 32 22 54t52 22q32 0 53.5 -22t21.5 -54t-21.5 -53.5t-53.5 -21.5q-30 0 -52 21.5
t-22 53.5z" />
    <glyph glyph-name="Igrave" unicode="&#xcc;" horiz-adv-x="339" 
d="M90 0v700h159v-700h-159zM120 757l-174 141h175l138 -141h-139z" />
    <glyph glyph-name="Iacute" unicode="&#xcd;" horiz-adv-x="339" 
d="M90 0v700h159v-700h-159zM222 757h-142l158 141h178z" />
    <glyph glyph-name="Icircumflex" unicode="&#xce;" horiz-adv-x="339" 
d="M90 0v700h159v-700h-159zM238 752l-71 81l-71 -81h-125l138 146h115l140 -146h-126z" />
    <glyph glyph-name="Idieresis" unicode="&#xcf;" horiz-adv-x="339" 
d="M90 0v700h159v-700h-159zM200 827q0 32 21.5 54t52.5 22q30 0 52 -22t22 -54t-22 -53.5t-52 -21.5q-31 0 -52.5 21.5t-21.5 53.5zM-10 827q0 32 22 54t52 22q32 0 53.5 -22t21.5 -54t-21.5 -53.5t-53.5 -21.5q-30 0 -52 21.5t-22 53.5z" />
    <glyph glyph-name="Eth" unicode="&#xd0;" horiz-adv-x="814" 
d="M117 0v301h-85v100h85v299h251q190 0 293 -87.5t103 -263.5q0 -167 -104.5 -258t-291.5 -91h-251zM276 138h92q122 0 177 53.5t55 156.5q0 105 -55 159.5t-177 54.5h-92v-161h163v-100h-163v-163z" />
    <glyph glyph-name="Ntilde" unicode="&#xd1;" horiz-adv-x="821" 
d="M90 700h164l326 -474v474h151v-700h-163l-327 476v-476h-151v700zM501 883h88q-3 -65 -33.5 -99.5t-80.5 -34.5q-37 0 -76 33q-24 22 -39 22q-28 0 -33 -49h-86q11 133 111 133q38 0 77 -32q27 -23 40 -23q27 0 32 50z" />
    <glyph glyph-name="Ograve" unicode="&#xd2;" horiz-adv-x="860" 
d="M405 757l-174 141h175l138 -141h-139zM810 350q0 -167 -104 -265.5t-275 -98.5q-173 0 -277 98.5t-104 265.5t104 265.5t277 98.5q171 0 275 -98.5t104 -265.5zM646 350q0 106 -60.5 162.5t-155.5 56.5q-96 0 -156 -57t-60 -162t60 -162t156 -57q95 0 155.5 57.5
t60.5 161.5z" />
    <glyph glyph-name="Oacute" unicode="&#xd3;" horiz-adv-x="860" 
d="M472 754h-142l158 141h178zM810 350q0 -167 -104 -265.5t-275 -98.5q-173 0 -277 98.5t-104 265.5t104 265.5t277 98.5q171 0 275 -98.5t104 -265.5zM646 350q0 106 -60.5 162.5t-155.5 56.5q-96 0 -156 -57t-60 -162t60 -162t156 -57q95 0 155.5 57.5t60.5 161.5z" />
    <glyph glyph-name="Ocircumflex" unicode="&#xd4;" horiz-adv-x="860" 
d="M810 350q0 -167 -104 -265.5t-275 -98.5q-173 0 -277 98.5t-104 265.5t104 265.5t277 98.5q171 0 275 -98.5t104 -265.5zM646 350q0 106 -60.5 162.5t-155.5 56.5q-96 0 -156 -57t-60 -162t60 -162t156 -57q95 0 155.5 57.5t60.5 161.5zM501 747l-71 81l-71 -81h-125
l138 146h115l140 -146h-126z" />
    <glyph glyph-name="Otilde" unicode="&#xd5;" horiz-adv-x="860" 
d="M514 885h88q-3 -65 -33.5 -99.5t-80.5 -34.5q-37 0 -76 33q-24 22 -39 22q-28 0 -33 -49h-86q11 133 111 133q38 0 77 -32q27 -23 40 -23q27 0 32 50zM810 350q0 -167 -104 -265.5t-275 -98.5q-173 0 -277 98.5t-104 265.5t104 265.5t277 98.5q171 0 275 -98.5
t104 -265.5zM646 350q0 106 -60.5 162.5t-155.5 56.5q-96 0 -156 -57t-60 -162t60 -162t156 -57q95 0 155.5 57.5t60.5 161.5z" />
    <glyph glyph-name="Odieresis" unicode="&#xd6;" horiz-adv-x="860" 
d="M459 822q0 32 21.5 54t52.5 22q30 0 52 -22t22 -54t-22 -53.5t-52 -21.5q-31 0 -52.5 21.5t-21.5 53.5zM249 822q0 32 22 54t52 22q32 0 53.5 -22t21.5 -54t-21.5 -53.5t-53.5 -21.5q-30 0 -52 21.5t-22 53.5zM810 350q0 -167 -104 -265.5t-275 -98.5q-173 0 -277 98.5
t-104 265.5t104 265.5t277 98.5q171 0 275 -98.5t104 -265.5zM646 350q0 106 -60.5 162.5t-155.5 56.5q-96 0 -156 -57t-60 -162t60 -162t156 -57q95 0 155.5 57.5t60.5 161.5z" />
    <glyph glyph-name="multiply" unicode="&#xd7;" horiz-adv-x="572" 
d="M138 103l-93 93l147 147l-146 146l95 96l146 -147l148 147l92 -92l-147 -147l145 -145l-94 -97l-147 146z" />
    <glyph glyph-name="Oslash" unicode="&#xd8;" horiz-adv-x="868" 
d="M813 350q0 -167 -103.5 -265.5t-274.5 -98.5q-133 0 -225 58l-67 -70l-67 67l62 64q-83 92 -83 245q0 167 103.5 265.5t276.5 98.5q135 0 230 -64l68 70l70 -65l-67 -69q77 -96 77 -236zM216 350q0 -75 33 -130l309 319q-53 32 -124 32q-96 0 -157 -57.5t-61 -163.5z
M652 350q0 71 -28 120l-306 -315q45 -26 116 -26q95 0 156.5 57.5t61.5 163.5z" />
    <glyph glyph-name="Ugrave" unicode="&#xd9;" horiz-adv-x="794" 
d="M357 742l-174 141h175l138 -141h-139zM399 133q75 0 116 44t41 132v391h160v-400q0 -150 -85.5 -232t-233.5 -82t-233.5 82t-85.5 232v400h160v-391q0 -88 42 -132t119 -44z" />
    <glyph glyph-name="Uacute" unicode="&#xda;" horiz-adv-x="794" 
d="M442 742h-142l158 141h178zM399 133q75 0 116 44t41 132v391h160v-400q0 -150 -85.5 -232t-233.5 -82t-233.5 82t-85.5 232v400h160v-391q0 -88 42 -132t119 -44z" />
    <glyph glyph-name="Ucircumflex" unicode="&#xdb;" horiz-adv-x="794" 
d="M399 133q75 0 116 44t41 132v391h160v-400q0 -150 -85.5 -232t-233.5 -82t-233.5 82t-85.5 232v400h160v-391q0 -88 42 -132t119 -44zM464 747l-71 81l-71 -81h-125l138 146h115l140 -146h-126z" />
    <glyph glyph-name="Udieresis" unicode="&#xdc;" horiz-adv-x="794" 
d="M428 817q0 32 21.5 54t52.5 22q30 0 52 -22t22 -54t-22 -53.5t-52 -21.5q-31 0 -52.5 21.5t-21.5 53.5zM218 817q0 32 22 54t52 22q32 0 53.5 -22t21.5 -54t-21.5 -53.5t-53.5 -21.5q-30 0 -52 21.5t-22 53.5zM399 133q75 0 116 44t41 132v391h160v-400
q0 -150 -85.5 -232t-233.5 -82t-233.5 82t-85.5 232v400h160v-391q0 -88 42 -132t119 -44z" />
    <glyph glyph-name="Yacute" unicode="&#xdd;" horiz-adv-x="729" 
d="M334 -15q-145 0 -245 45v164q111 -69 232 -69q90 0 135.5 37.5t45.5 106.5v1v41q-55 -58 -168 -58q-130 0 -199.5 69.5t-69.5 203.5v174h159v-169q0 -135 138 -135q62 0 98 33.5t36 103.5v167h158v-431q0 -284 -320 -284zM408 742h-142l158 141h178z" />
    <glyph glyph-name="Thorn" unicode="&#xde;" horiz-adv-x="740" 
d="M246 -10h-156v720h156v-75q0 -6 -0.5 -22.5t-0.5 -27.5q68 51 171 51q120 0 197 -78t77 -201q0 -124 -76.5 -201.5t-197.5 -77.5q-104 0 -171 44q1 -19 1 -53v-79zM238 355q0 -68 44 -105t110 -37t106.5 39t40.5 104q0 66 -40.5 105t-106.5 39q-65 0 -109.5 -39
t-44.5 -106z" />
    <glyph glyph-name="germandbls" unicode="&#xdf;" horiz-adv-x="706" 
d="M369 794q116 0 182 -57.5t66 -150.5q0 -53 -21.5 -95t-63.5 -62q61 -17 96.5 -66t35.5 -119q0 -117 -63 -184t-187 -67q-48 0 -82 8v134q25 -5 55 -5q123 0 123 111q0 110 -125 110h-53v128h30q105 0 105 90q0 43 -26 67t-73 24q-53 0 -84.5 -31.5t-31.5 -97.5v-531h-155
v430h-71v130h72v3q0 111 73.5 171t197.5 60z" />
    <glyph glyph-name="agrave" unicode="&#xe0;" 
d="M80 384v142q99 44 219 44q131 0 191.5 -59.5t58.5 -182.5l-3 -160q-2 -50 46 -50q7 0 21 2v-115q-33 -15 -80 -15q-94 0 -119 72q-58 -72 -182 -72q-88 0 -139 43.5t-51 122.5q0 182 255 182h106q0 98 -117 98q-105 0 -206 -52zM267 619l-144 154h157l111 -154h-124z
M273 117q56 0 93 30t37 85v2h-100q-106 0 -106 -62q0 -28 21.5 -41.5t54.5 -13.5z" />
    <glyph glyph-name="aacute" unicode="&#xe1;" 
d="M80 384v142q99 44 219 44q131 0 191.5 -59.5t58.5 -182.5l-3 -160q-2 -50 46 -50q7 0 21 2v-115q-33 -15 -80 -15q-94 0 -119 72q-58 -72 -182 -72q-88 0 -139 43.5t-51 122.5q0 182 255 182h106q0 98 -117 98q-105 0 -206 -52zM318 619h-126l134 154h161zM273 117
q56 0 93 30t37 85v2h-100q-106 0 -106 -62q0 -28 21.5 -41.5t54.5 -13.5z" />
    <glyph glyph-name="acircumflex" unicode="&#xe2;" 
d="M80 384v142q99 44 219 44q131 0 191.5 -59.5t58.5 -182.5l-3 -160q-2 -50 46 -50q7 0 21 2v-115q-33 -15 -80 -15q-94 0 -119 72q-58 -72 -182 -72q-88 0 -139 43.5t-51 122.5q0 182 255 182h106q0 98 -117 98q-105 0 -206 -52zM346 618l-58 92l-63 -92h-119l125 162h113
l125 -162h-123zM273 117q56 0 93 30t37 85v2h-100q-106 0 -106 -62q0 -28 21.5 -41.5t54.5 -13.5z" />
    <glyph glyph-name="atilde" unicode="&#xe3;" 
d="M80 384v142q99 44 219 44q131 0 191.5 -59.5t58.5 -182.5l-3 -160q-2 -50 46 -50q7 0 21 2v-115q-33 -15 -80 -15q-94 0 -119 72q-58 -72 -182 -72q-88 0 -139 43.5t-51 122.5q0 182 255 182h106q0 98 -117 98q-105 0 -206 -52zM382 767h88q-3 -66 -34 -105.5t-80 -39.5
q-35 0 -70 28q-3 3 -13 12.5t-17 13.5t-15 4q-27 0 -33 -52h-86q6 70 35 107t75 37q36 0 77 -34q3 -3 8 -7t8 -7t7 -5.5t8.5 -4t9.5 -1.5q27 0 32 54zM273 117q56 0 93 30t37 85v2h-100q-106 0 -106 -62q0 -28 21.5 -41.5t54.5 -13.5z" />
    <glyph glyph-name="adieresis" unicode="&#xe4;" 
d="M80 384v142q99 44 219 44q131 0 191.5 -59.5t58.5 -182.5l-3 -160q-2 -50 46 -50q7 0 21 2v-115q-33 -15 -80 -15q-94 0 -119 72q-58 -72 -182 -72q-88 0 -139 43.5t-51 122.5q0 182 255 182h106q0 98 -117 98q-105 0 -206 -52zM273 117q56 0 93 30t37 85v2h-100
q-106 0 -106 -62q0 -28 21.5 -41.5t54.5 -13.5zM196 624q-30 0 -52 21.5t-22 53.5t22 54t52 22q32 0 53.5 -22t21.5 -54t-21.5 -53.5t-53.5 -21.5zM395 624q-31 0 -52.5 21.5t-21.5 53.5t21.5 54t52.5 22q30 0 52 -22t22 -54t-22 -53.5t-52 -21.5z" />
    <glyph glyph-name="aring" unicode="&#xe5;" 
d="M80 384v142q99 44 219 44q131 0 191.5 -59.5t58.5 -182.5l-3 -160q-2 -50 46 -50q7 0 21 2v-115q-33 -15 -80 -15q-94 0 -119 72q-58 -72 -182 -72q-88 0 -139 43.5t-51 122.5q0 182 255 182h106q0 98 -117 98q-105 0 -206 -52zM297 606q-49 0 -78 26t-29 73t29 73t78 26
t78 -26t29 -73t-29 -73t-78 -26zM273 117q56 0 93 30t37 85v2h-100q-106 0 -106 -62q0 -28 21.5 -41.5t54.5 -13.5zM297 747q-18 0 -30 -11t-12 -31t12 -31t30 -11q19 0 30.5 11t11.5 31t-11.5 31t-30.5 11z" />
    <glyph glyph-name="ae" unicode="&#xe6;" horiz-adv-x="956" 
d="M896 172v-138q-76 -48 -198 -48q-159 0 -232 98q-72 -98 -219 -98q-92 0 -148.5 45.5t-56.5 124.5q0 97 67 137.5t192 40.5h107q-4 101 -126 101q-96 0 -202 -51v141q105 45 213 45q130 0 193 -80q75 84 204 84q103 0 165.5 -51t62.5 -137q0 -91 -61 -126t-195 -35h-118
q28 -104 160 -104q113 0 192 51zM686 445q-51 0 -92.5 -30.5t-52.5 -85.5h124q58 0 83 11.5t25 41.5q0 63 -87 63zM271 117q53 0 94 31.5t45 81.5h-114q-101 0 -101 -58q0 -28 21.5 -41.5t54.5 -13.5z" />
    <glyph glyph-name="ccedilla" unicode="&#xe7;" horiz-adv-x="566" 
d="M38 277q0 134 82 215.5t221 81.5q101 0 173 -46v-144q-58 49 -160 49q-71 0 -116.5 -38.5t-45.5 -113.5q0 -77 44 -115.5t119 -38.5q103 0 161 49v-142q-55 -43 -160 -47l-8 -19q61 -20 61 -82q0 -43 -31 -71.5t-83 -28.5q-43 0 -74 16l19 65q18 -9 37 -9q15 0 25 7.5
t10 19.5q0 33 -56 37l28 67q-116 14 -181 93t-65 195z" />
    <glyph glyph-name="egrave" unicode="&#xe8;" horiz-adv-x="620" 
d="M343 574q104 0 171.5 -51.5t67.5 -141.5q0 -89 -69.5 -127t-205.5 -38h-115q17 -50 59.5 -72.5t114.5 -22.5q118 0 194 51v-138q-84 -48 -212 -48q-141 0 -225.5 75t-84.5 219q0 135 85 214.5t220 79.5zM342 445q-59 0 -101.5 -31t-54.5 -89h144q57 0 82 12t25 41t-24 48
t-71 19zM295 626l-144 154h157l111 -154h-124z" />
    <glyph glyph-name="eacute" unicode="&#xe9;" horiz-adv-x="620" 
d="M343 574q104 0 171.5 -51.5t67.5 -141.5q0 -89 -69.5 -127t-205.5 -38h-115q17 -50 59.5 -72.5t114.5 -22.5q118 0 194 51v-138q-84 -48 -212 -48q-141 0 -225.5 75t-84.5 219q0 135 85 214.5t220 79.5zM342 445q-59 0 -101.5 -31t-54.5 -89h144q57 0 82 12t25 41t-24 48
t-71 19zM369 626h-126l134 154h161z" />
    <glyph glyph-name="ecircumflex" unicode="&#xea;" horiz-adv-x="620" 
d="M343 574q104 0 171.5 -51.5t67.5 -141.5q0 -89 -69.5 -127t-205.5 -38h-115q17 -50 59.5 -72.5t114.5 -22.5q118 0 194 51v-138q-84 -48 -212 -48q-141 0 -225.5 75t-84.5 219q0 135 85 214.5t220 79.5zM387 618l-58 92l-63 -92h-119l125 162h113l125 -162h-123zM342 445
q-59 0 -101.5 -31t-54.5 -89h144q57 0 82 12t25 41t-24 48t-71 19z" />
    <glyph glyph-name="edieresis" unicode="&#xeb;" horiz-adv-x="620" 
d="M343 574q104 0 171.5 -51.5t67.5 -141.5q0 -89 -69.5 -127t-205.5 -38h-115q17 -50 59.5 -72.5t114.5 -22.5q118 0 194 51v-138q-84 -48 -212 -48q-141 0 -225.5 75t-84.5 219q0 135 85 214.5t220 79.5zM342 445q-59 0 -101.5 -31t-54.5 -89h144q57 0 82 12t25 41t-24 48
t-71 19zM234 624q-30 0 -52 21.5t-22 53.5t22 54t52 22q32 0 53.5 -22t21.5 -54t-21.5 -53.5t-53.5 -21.5zM433 624q-31 0 -52.5 21.5t-21.5 53.5t21.5 54t52.5 22q30 0 52 -22t22 -54t-22 -53.5t-52 -21.5z" />
    <glyph glyph-name="igrave" unicode="&#xec;" horiz-adv-x="315" 
d="M80 0v560h155v-560h-155zM120 626l-144 154h157l111 -154h-124z" />
    <glyph glyph-name="iacute" unicode="&#xed;" horiz-adv-x="315" 
d="M198 626h-126l134 154h161zM80 0v560h155v-560h-155z" />
    <glyph glyph-name="icircumflex" unicode="&#xee;" horiz-adv-x="315" 
d="M80 0v560h155v-560h-155zM217 618l-58 92l-63 -92h-119l125 162h113l125 -162h-123z" />
    <glyph glyph-name="idieresis" unicode="&#xef;" horiz-adv-x="315" 
d="M80 0v560h155v-560h-155zM257 624q-31 0 -52.5 21.5t-21.5 53.5t21.5 54t52.5 22q30 0 52 -22t22 -54t-22 -53.5t-52 -21.5zM58 624q-30 0 -52 21.5t-22 53.5t22 54t52 22q32 0 53.5 -22t21.5 -54t-21.5 -53.5t-53.5 -21.5z" />
    <glyph glyph-name="eth" unicode="&#xf0;" horiz-adv-x="655" 
d="M332 780l44 -45l101 60l34 -56l-89 -53q19 -21 77 -93q109 -143 109 -304q0 -139 -75.5 -221t-206.5 -82q-127 0 -204.5 75.5t-77.5 202.5q0 124 76.5 192.5t190.5 68.5q54 0 103 -30l-18 23q-18 22 -90 100l-121 -72l-33 55l107 64q-36 37 -118 115h191zM325 399
q-60 0 -96.5 -38t-36.5 -98q0 -61 37.5 -101t96.5 -40q62 0 97 38.5t35 100.5q0 64 -37 101t-96 37z" />
    <glyph glyph-name="ntilde" unicode="&#xf1;" horiz-adv-x="676" 
d="M338 574q124 0 198.5 -67t74.5 -187v-320h-158v297q0 134 -115 134t-115 -134v-297h-158v320q0 120 74.5 187t198.5 67zM422 767h88q-3 -66 -34 -105.5t-80 -39.5q-35 0 -70 28q-3 3 -13 12.5t-17 13.5t-15 4q-27 0 -33 -52h-86q6 70 35 107t75 37q36 0 77 -34q3 -3 8 -7
t8 -7t7 -5.5t8.5 -4t9.5 -1.5q27 0 32 54z" />
    <glyph glyph-name="ograve" unicode="&#xf2;" horiz-adv-x="686" 
d="M648 282q0 -140 -87.5 -218t-217.5 -78q-131 0 -218 77t-87 218q0 138 87.5 215.5t217.5 77.5t217.5 -77t87.5 -215zM494 282q0 74 -43.5 113.5t-107.5 39.5t-107.5 -40.5t-43.5 -113.5t43 -114.5t108 -41.5q64 0 107.5 41.5t43.5 115.5zM301 626l-144 154h157l111 -154
h-124z" />
    <glyph glyph-name="oacute" unicode="&#xf3;" horiz-adv-x="686" 
d="M648 282q0 -140 -87.5 -218t-217.5 -78q-131 0 -218 77t-87 218q0 138 87.5 215.5t217.5 77.5t217.5 -77t87.5 -215zM494 282q0 74 -43.5 113.5t-107.5 39.5t-107.5 -40.5t-43.5 -113.5t43 -114.5t108 -41.5q64 0 107.5 41.5t43.5 115.5zM366 626h-126l134 154h161z" />
    <glyph glyph-name="ocircumflex" unicode="&#xf4;" horiz-adv-x="686" 
d="M648 282q0 -140 -87.5 -218t-217.5 -78q-131 0 -218 77t-87 218q0 138 87.5 215.5t217.5 77.5t217.5 -77t87.5 -215zM494 282q0 74 -43.5 113.5t-107.5 39.5t-107.5 -40.5t-43.5 -113.5t43 -114.5t108 -41.5q64 0 107.5 41.5t43.5 115.5zM400 618l-58 92l-63 -92h-119
l125 162h113l125 -162h-123z" />
    <glyph glyph-name="otilde" unicode="&#xf5;" horiz-adv-x="686" 
d="M648 282q0 -140 -87.5 -218t-217.5 -78q-131 0 -218 77t-87 218q0 138 87.5 215.5t217.5 77.5t217.5 -77t87.5 -215zM494 282q0 74 -43.5 113.5t-107.5 39.5t-107.5 -40.5t-43.5 -113.5t43 -114.5t108 -41.5q64 0 107.5 41.5t43.5 115.5zM429 767h88q-3 -66 -34 -105.5
t-80 -39.5q-35 0 -70 28q-3 3 -13 12.5t-17 13.5t-15 4q-27 0 -33 -52h-86q6 70 35 107t75 37q36 0 77 -34q3 -3 8 -7t8 -7t7 -5.5t8.5 -4t9.5 -1.5q27 0 32 54z" />
    <glyph glyph-name="odieresis" unicode="&#xf6;" horiz-adv-x="686" 
d="M648 282q0 -140 -87.5 -218t-217.5 -78q-131 0 -218 77t-87 218q0 138 87.5 215.5t217.5 77.5t217.5 -77t87.5 -215zM494 282q0 74 -43.5 113.5t-107.5 39.5t-107.5 -40.5t-43.5 -113.5t43 -114.5t108 -41.5q64 0 107.5 41.5t43.5 115.5zM439 624q-31 0 -52.5 21.5
t-21.5 53.5t21.5 54t52.5 22q30 0 52 -22t22 -54t-22 -53.5t-52 -21.5zM240 624q-30 0 -52 21.5t-22 53.5t22 54t52 22q32 0 53.5 -22t21.5 -54t-21.5 -53.5t-53.5 -21.5z" />
    <glyph glyph-name="divide" unicode="&#xf7;" horiz-adv-x="601" 
d="M40 275v140h521v-140h-521zM301 457q-44 0 -71 26.5t-27 68.5t27.5 69t71.5 27q41 0 67.5 -27.5t26.5 -68.5t-26.5 -68t-68.5 -27zM301 41q-44 0 -71 26.5t-27 68.5t27.5 69t71.5 27q42 0 68 -27t26 -69q0 -41 -26.5 -68t-68.5 -27z" />
    <glyph glyph-name="oslash" unicode="&#xf8;" horiz-adv-x="688" 
d="M649 282q0 -140 -87.5 -218t-217.5 -78q-76 0 -145 29l-37 -54l-48 36l33 48q-108 77 -108 236q0 138 87.5 215.5t217.5 77.5q84 0 151 -33l31 45l49 -35l-29 -41q103 -79 103 -228zM193 281q0 -72 41 -113l177 254q-27 13 -67 13q-64 0 -107.5 -40.5t-43.5 -113.5z
M495 282q0 63 -35 105l-176 -251q30 -11 60 -11q64 0 107.5 41.5t43.5 115.5z" />
    <glyph glyph-name="ugrave" unicode="&#xf9;" horiz-adv-x="673" 
d="M608 560v-326q0 -115 -74 -181.5t-197 -66.5q-124 0 -198 66.5t-74 181.5v326h158v-315q0 -53 29.5 -84.5t85.5 -31.5t84 31t28 85v315h158zM296 616l-144 154h157l111 -154h-124z" />
    <glyph glyph-name="uacute" unicode="&#xfa;" horiz-adv-x="673" 
d="M608 560v-326q0 -115 -74 -181.5t-197 -66.5q-124 0 -198 66.5t-74 181.5v326h158v-315q0 -53 29.5 -84.5t85.5 -31.5t84 31t28 85v315h158zM376 616h-126l134 154h161z" />
    <glyph glyph-name="ucircumflex" unicode="&#xfb;" horiz-adv-x="673" 
d="M608 560v-326q0 -115 -74 -181.5t-197 -66.5q-124 0 -198 66.5t-74 181.5v326h158v-315q0 -53 29.5 -84.5t85.5 -31.5t84 31t28 85v315h158zM394 618l-58 92l-63 -92h-119l125 162h113l125 -162h-123z" />
    <glyph glyph-name="udieresis" unicode="&#xfc;" horiz-adv-x="673" 
d="M608 560v-326q0 -115 -74 -181.5t-197 -66.5q-124 0 -198 66.5t-74 181.5v326h158v-315q0 -53 29.5 -84.5t85.5 -31.5t84 31t28 85v315h158zM436 614q-31 0 -52.5 21.5t-21.5 53.5t21.5 54t52.5 22q30 0 52 -22t22 -54t-22 -53.5t-52 -21.5zM237 614q-30 0 -52 21.5
t-22 53.5t22 54t52 22q32 0 53.5 -22t21.5 -54t-21.5 -53.5t-53.5 -21.5z" />
    <glyph glyph-name="yacute" unicode="&#xfd;" horiz-adv-x="682" 
d="M607 560v-513q0 -131 -81.5 -196t-212.5 -65q-136 0 -226 38v152q108 -51 217 -51q163 0 163 140v4v26q-47 -61 -156 -61q-246 0 -246 254v272h155v-266q0 -64 29 -91.5t86 -27.5q56 0 86.5 30.5t30.5 88.5v266h155zM359 621h-126l134 154h161z" />
    <glyph glyph-name="thorn" unicode="&#xfe;" horiz-adv-x="695" 
d="M80 780h153v-203l-1 -56q65 49 159 49q121 0 193.5 -78.5t72.5 -212.5t-74 -211.5t-200 -77.5q-90 0 -151 40l1 -67v-163h-153v980zM503 278q0 68 -37 108.5t-98 40.5q-62 0 -102 -40.5t-40 -108.5t38.5 -106t102.5 -38q63 0 99.5 38t36.5 106z" />
    <glyph glyph-name="ydieresis" unicode="&#xff;" horiz-adv-x="682" 
d="M607 560v-513q0 -131 -81.5 -196t-212.5 -65q-136 0 -226 38v152q108 -51 217 -51q163 0 163 140v4v26q-47 -61 -156 -61q-246 0 -246 254v272h155v-266q0 -64 29 -91.5t86 -27.5q56 0 86.5 30.5t30.5 88.5v266h155zM244 624q-30 0 -52 21.5t-22 53.5t22 54t52 22
q32 0 53.5 -22t21.5 -54t-21.5 -53.5t-53.5 -21.5zM443 624q-31 0 -52.5 21.5t-21.5 53.5t21.5 54t52.5 22q30 0 52 -22t22 -54t-22 -53.5t-52 -21.5z" />
    <glyph glyph-name="Amacron" unicode="&#x100;" horiz-adv-x="741" 
d="M230 157l-52 -157h-161l242 700h220l245 -700h-167l-51 157h-276zM221 875v-98h292v98h-292zM369 579l-94 -285h186z" />
    <glyph glyph-name="amacron" unicode="&#x101;" 
d="M80 384v142q99 44 219 44q131 0 191.5 -59.5t58.5 -182.5l-3 -160q-2 -50 46 -50q7 0 21 2v-115q-33 -15 -80 -15q-94 0 -119 72q-58 -72 -182 -72q-88 0 -139 43.5t-51 122.5q0 182 255 182h106q0 98 -117 98q-105 0 -206 -52zM153 643v98h280v-98h-280zM273 117
q56 0 93 30t37 85v2h-100q-106 0 -106 -62q0 -28 21.5 -41.5t54.5 -13.5z" />
    <glyph glyph-name="Abreve" unicode="&#x102;" horiz-adv-x="741" 
d="M230 157l-52 -157h-161l242 700h220l245 -700h-167l-51 157h-276zM368 744q70 0 113 35.5t48 103.5h-95q-13 -55 -66 -55t-66 55h-95q5 -68 48 -103.5t113 -35.5zM369 579l-94 -285h186z" />
    <glyph glyph-name="abreve" unicode="&#x103;" 
d="M80 384v142q99 44 219 44q131 0 191.5 -59.5t58.5 -182.5l-3 -160q-2 -50 46 -50q7 0 21 2v-115q-33 -15 -80 -15q-94 0 -119 72q-58 -72 -182 -72q-88 0 -139 43.5t-51 122.5q0 182 255 182h106q0 98 -117 98q-105 0 -206 -52zM297 618q-70 0 -113 37t-48 105h97
q16 -55 65 -55q47 0 63 55h97q-5 -68 -48 -105t-113 -37zM273 117q56 0 93 30t37 85v2h-100q-106 0 -106 -62q0 -28 21.5 -41.5t54.5 -13.5z" />
    <glyph glyph-name="Aogonek" unicode="&#x104;" horiz-adv-x="743" 
d="M479 700l245 -700q-95 -33 -95 -82q0 -37 52 -37q19 0 40 7v-87q-32 -15 -81 -15q-56 0 -93 26.5t-37 75.5q0 70 74 112h-27l-51 157h-276l-52 -157h-161l242 700h220zM369 579l-94 -285h186z" />
    <glyph glyph-name="aogonek" unicode="&#x105;" 
d="M613 -119v-77q-30 -18 -82 -18q-55 0 -90.5 25t-35.5 73q0 70 73 114q-49 15 -64 64q-58 -72 -182 -72q-88 0 -139 43.5t-51 122.5q0 182 255 182h106q0 98 -117 98q-105 0 -206 -52v142q99 44 219 44q131 0 191.5 -59.5t58.5 -182.5l-3 -160q-2 -50 46 -50q7 0 21 2
v-115q-37 -13 -66 -39t-29 -53q0 -38 55 -38q22 0 40 6zM273 117q56 0 93 30t37 85v2h-100q-106 0 -106 -62q0 -28 21.5 -41.5t54.5 -13.5z" />
    <glyph glyph-name="Cacute" unicode="&#x106;" horiz-adv-x="685" 
d="M428 757h-142l158 141h178zM50 346q0 171 104 269.5t270 98.5q127 0 202 -47v-158q-77 61 -188 61q-98 0 -161 -57t-63 -164q0 -104 59 -161.5t162 -57.5q55 0 108.5 14.5t86.5 37.5v-148q-32 -20 -89 -34t-119 -14q-175 0 -273.5 93t-98.5 267z" />
    <glyph glyph-name="cacute" unicode="&#x107;" horiz-adv-x="567" 
d="M38 277q0 134 82 215.5t221 81.5q101 0 173 -46v-144q-58 49 -160 49q-71 0 -116.5 -38.5t-45.5 -113.5q0 -77 44 -115.5t119 -38.5q103 0 161 49v-142q-62 -48 -179 -48q-140 0 -219.5 81t-79.5 210zM348 626h-126l134 154h161z" />
    <glyph glyph-name="Ccircumflex" unicode="&#x108;" horiz-adv-x="685" 
d="M50 346q0 171 104 269.5t270 98.5q127 0 202 -47v-158q-77 61 -188 61q-98 0 -161 -57t-63 -164q0 -104 59 -161.5t162 -57.5q55 0 108.5 14.5t86.5 37.5v-148q-32 -20 -89 -34t-119 -14q-175 0 -273.5 93t-98.5 267zM469 752l-71 81l-71 -81h-125l138 146h115l140 -146
h-126z" />
    <glyph glyph-name="ccircumflex" unicode="&#x109;" horiz-adv-x="566" 
d="M38 277q0 134 82 215.5t221 81.5q101 0 173 -46v-144q-58 49 -160 49q-71 0 -116.5 -38.5t-45.5 -113.5q0 -77 44 -115.5t119 -38.5q103 0 161 49v-142q-62 -48 -179 -48q-140 0 -219.5 81t-79.5 210zM365 618l-58 92l-63 -92h-119l125 162h113l125 -162h-123z" />
    <glyph glyph-name="Cdotaccent" unicode="&#x10a;" horiz-adv-x="685" 
d="M50 346q0 171 104 269.5t270 98.5q127 0 202 -47v-158q-77 61 -188 61q-98 0 -161 -57t-63 -164q0 -104 59 -161.5t162 -57.5q55 0 108.5 14.5t86.5 37.5v-148q-32 -20 -89 -34t-119 -14q-175 0 -273.5 93t-98.5 267zM413 747q-33 0 -56 23.5t-23 56.5q0 34 23.5 57.5
t55.5 23.5q33 0 56 -23.5t23 -57.5t-23 -57t-56 -23z" />
    <glyph glyph-name="cdotaccent" unicode="&#x10b;" horiz-adv-x="566" 
d="M38 277q0 134 82 215.5t221 81.5q101 0 173 -46v-144q-58 49 -160 49q-71 0 -116.5 -38.5t-45.5 -113.5q0 -77 44 -115.5t119 -38.5q103 0 161 49v-142q-62 -48 -179 -48q-140 0 -219.5 81t-79.5 210zM339 619q-33 0 -56 23.5t-23 56.5q0 34 23.5 57.5t55.5 23.5
q33 0 56 -23.5t23 -57.5t-23 -57t-56 -23z" />
    <glyph glyph-name="Ccaron" unicode="&#x10c;" horiz-adv-x="685" 
d="M50 346q0 171 104 269.5t270 98.5q127 0 202 -47v-158q-77 61 -188 61q-98 0 -161 -57t-63 -164q0 -104 59 -161.5t162 -57.5q55 0 108.5 14.5t86.5 37.5v-148q-32 -20 -89 -34t-119 -14q-175 0 -273.5 93t-98.5 267zM341 898l71 -81l71 81h125l-138 -146h-115l-140 146
h126z" />
    <glyph glyph-name="ccaron" unicode="&#x10d;" horiz-adv-x="566" 
d="M38 277q0 134 82 215.5t221 81.5q101 0 173 -46v-144q-58 49 -160 49q-71 0 -116.5 -38.5t-45.5 -113.5q0 -77 44 -115.5t119 -38.5q103 0 161 49v-142q-62 -48 -179 -48q-140 0 -219.5 81t-79.5 210zM257 780l59 -92l63 92h119l-125 -162h-113l-125 162h122z" />
    <glyph glyph-name="Dcaron" unicode="&#x10e;" horiz-adv-x="787" 
d="M90 0v700h251q190 0 293 -87.5t103 -263.5q0 -167 -104.5 -258t-291.5 -91h-251zM249 138h92q122 0 177 53.5t55 156.5q0 105 -55 159.5t-177 54.5h-92v-424zM292 888l71 -81l71 81h125l-138 -146h-115l-140 146h126z" />
    <glyph glyph-name="dcaron" unicode="&#x10f;" horiz-adv-x="772" 
d="M617 780v-780h-155v27v28q-54 -65 -161 -65q-119 0 -191 76.5t-72 208.5q0 137 77 216t198 79q98 0 151 -53q-2 86 -2 114v149h155zM330 129q63 0 100 40.5t37 113.5q0 70 -36 109t-98 39t-101.5 -41t-39.5 -111q0 -69 38 -109.5t100 -40.5zM828 780l-61 -180h-95l38 180
h118z" />
    <glyph glyph-name="Dcroat" unicode="&#x110;" horiz-adv-x="814" 
d="M117 0v301h-85v100h85v299h251q190 0 293 -87.5t103 -263.5q0 -167 -104.5 -258t-291.5 -91h-251zM276 138h92q122 0 177 53.5t55 156.5q0 105 -55 159.5t-177 54.5h-92v-161h163v-100h-163v-163z" />
    <glyph glyph-name="dcroat" unicode="&#x111;" horiz-adv-x="707" 
d="M314 610v80h148v90h155v-90h75v-80h-75v-610h-155v55q-54 -65 -161 -65q-114 0 -188.5 73.5t-74.5 201.5q0 132 76.5 207t193.5 75q99 0 154 -51v114h-148zM330 129q60 0 97 39.5t37 104.5q0 61 -36 99t-95 38q-62 0 -101.5 -38t-39.5 -103q0 -66 37 -103t101 -37z" />
    <glyph glyph-name="Emacron" unicode="&#x112;" horiz-adv-x="645" 
d="M90 0v700h500v-137h-342v-146h238v-132h-238v-148h342v-137h-500zM197 777v98h292v-98h-292z" />
    <glyph glyph-name="emacron" unicode="&#x113;" horiz-adv-x="620" 
d="M343 574q104 0 171.5 -51.5t67.5 -141.5q0 -89 -69.5 -127t-205.5 -38h-115q17 -50 59.5 -72.5t114.5 -22.5q118 0 194 51v-138q-84 -48 -212 -48q-141 0 -225.5 75t-84.5 219q0 135 85 214.5t220 79.5zM190 651v98h280v-98h-280zM342 445q-59 0 -101.5 -31t-54.5 -89
h144q57 0 82 12t25 41t-24 48t-71 19z" />
    <glyph glyph-name="Ebreve" unicode="&#x114;" horiz-adv-x="645" 
d="M90 0v700h500v-137h-342v-146h238v-132h-238v-148h342v-137h-500zM347 744q-70 0 -113 35.5t-48 103.5h95q13 -55 66 -55t66 55h95q-5 -68 -48 -103.5t-113 -35.5z" />
    <glyph glyph-name="ebreve" unicode="&#x115;" horiz-adv-x="620" 
d="M343 574q104 0 171.5 -51.5t67.5 -141.5q0 -89 -69.5 -127t-205.5 -38h-115q17 -50 59.5 -72.5t114.5 -22.5q118 0 194 51v-138q-84 -48 -212 -48q-141 0 -225.5 75t-84.5 219q0 135 85 214.5t220 79.5zM326 618q-70 0 -113 37t-48 105h97q16 -55 65 -55q47 0 63 55h97
q-5 -68 -48 -105t-113 -37zM342 445q-59 0 -101.5 -31t-54.5 -89h144q57 0 82 12t25 41t-24 48t-71 19z" />
    <glyph glyph-name="Edotaccent" unicode="&#x116;" horiz-adv-x="645" 
d="M90 0v700h500v-137h-342v-146h238v-132h-238v-148h342v-137h-500zM346 742q-32 0 -55.5 23t-23.5 57t23.5 57.5t55.5 23.5q33 0 56 -23.5t23 -57.5t-23 -57t-56 -23z" />
    <glyph glyph-name="edotaccent" unicode="&#x117;" horiz-adv-x="620" 
d="M343 574q104 0 171.5 -51.5t67.5 -141.5q0 -89 -69.5 -127t-205.5 -38h-115q17 -50 59.5 -72.5t114.5 -22.5q118 0 194 51v-138q-84 -48 -212 -48q-141 0 -225.5 75t-84.5 219q0 135 85 214.5t220 79.5zM342 445q-59 0 -101.5 -31t-54.5 -89h144q57 0 82 12t25 41t-24 48
t-71 19zM339 619q-33 0 -56 23.5t-23 56.5q0 34 23.5 57.5t55.5 23.5q33 0 56 -23.5t23 -57.5t-23 -57t-56 -23z" />
    <glyph glyph-name="Eogonek" unicode="&#x118;" horiz-adv-x="645" 
d="M376 -112q0 71 70 112h-356v700h500v-137h-342v-146h238v-132h-238v-148h342v-137q-39 -12 -67 -33.5t-28 -48.5q0 -37 52 -37q19 0 40 7v-87q-32 -15 -81 -15q-56 0 -93 26.5t-37 75.5z" />
    <glyph glyph-name="eogonek" unicode="&#x119;" horiz-adv-x="620" 
d="M560 172v-138q-95 -66 -95 -118q0 -41 55 -41q18 0 40 6v-77q-30 -18 -82 -18q-55 0 -90.5 25t-35.5 73q0 58 53 105q-27 -3 -57 -3q-141 0 -225.5 75t-84.5 219q0 135 85 214.5t220 79.5q104 0 171.5 -51.5t67.5 -141.5q0 -89 -69.5 -127t-205.5 -38h-115
q17 -50 59.5 -72.5t114.5 -22.5q118 0 194 51zM342 445q-59 0 -101.5 -31t-54.5 -89h144q57 0 82 12t25 41t-24 48t-71 19z" />
    <glyph glyph-name="Ecaron" unicode="&#x11a;" horiz-adv-x="645" 
d="M90 0v700h500v-137h-342v-146h238v-132h-238v-148h342v-137h-500zM277 888l71 -81l71 81h125l-138 -146h-115l-140 146h126z" />
    <glyph glyph-name="ecaron" unicode="&#x11b;" horiz-adv-x="620" 
d="M343 574q104 0 171.5 -51.5t67.5 -141.5q0 -89 -69.5 -127t-205.5 -38h-115q17 -50 59.5 -72.5t114.5 -22.5q118 0 194 51v-138q-84 -48 -212 -48q-141 0 -225.5 75t-84.5 219q0 135 85 214.5t220 79.5zM274 780l59 -92l63 92h119l-125 -162h-113l-125 162h122zM342 445
q-59 0 -101.5 -31t-54.5 -89h144q57 0 82 12t25 41t-24 48t-71 19z" />
    <glyph glyph-name="Gcircumflex" unicode="&#x11c;" horiz-adv-x="736" 
d="M668 326v-270q-93 -70 -243 -70q-180 0 -277.5 96t-97.5 265q0 166 102 266.5t286 100.5q119 0 207 -47v-158q-83 61 -198 61q-106 0 -169.5 -56t-63.5 -164q0 -106 58.5 -165t161.5 -59q52 0 87 12v188h147zM478 752l-71 81l-71 -81h-125l138 146h115l140 -146h-126z
" />
    <glyph glyph-name="gcircumflex" unicode="&#x11d;" horiz-adv-x="685" 
d="M610 560v-505q0 -132 -76 -200.5t-220 -68.5q-136 0 -226 38v152q108 -51 217 -51q88 0 127 34t39 111v4v14q-55 -64 -164 -64q-123 0 -195 71t-72 198q0 131 75 204t194 73q103 0 155 -56v25v21h146zM194 295q0 -64 39 -99t100 -35q58 0 94 36t36 98q0 65 -36 100.5
t-95 35.5q-62 0 -100 -36t-38 -100zM393 618l-58 92l-63 -92h-119l125 162h113l125 -162h-123z" />
    <glyph glyph-name="Gbreve" unicode="&#x11e;" horiz-adv-x="736" 
d="M668 326v-270q-93 -70 -243 -70q-180 0 -277.5 96t-97.5 265q0 166 102 266.5t286 100.5q119 0 207 -47v-158q-83 61 -198 61q-106 0 -169.5 -56t-63.5 -164q0 -106 58.5 -165t161.5 -59q52 0 87 12v188h147zM406 749q-70 0 -113 35.5t-48 103.5h95q13 -55 66 -55t66 55
h95q-5 -68 -48 -103.5t-113 -35.5z" />
    <glyph glyph-name="gbreve" unicode="&#x11f;" horiz-adv-x="685" 
d="M610 560v-505q0 -132 -76 -200.5t-220 -68.5q-136 0 -226 38v152q108 -51 217 -51q88 0 127 34t39 111v4v14q-55 -64 -164 -64q-123 0 -195 71t-72 198q0 131 75 204t194 73q103 0 155 -56v25v21h146zM194 295q0 -64 39 -99t100 -35q58 0 94 36t36 98q0 65 -36 100.5
t-95 35.5q-62 0 -100 -36t-38 -100zM328 618q-70 0 -113 37t-48 105h97q16 -55 65 -55q47 0 63 55h97q-5 -68 -48 -105t-113 -37z" />
    <glyph glyph-name="Gdotaccent" unicode="&#x120;" horiz-adv-x="736" 
d="M668 326v-270q-93 -70 -243 -70q-180 0 -277.5 96t-97.5 265q0 166 102 266.5t286 100.5q119 0 207 -47v-158q-83 61 -198 61q-106 0 -169.5 -56t-63.5 -164q0 -106 58.5 -165t161.5 -59q52 0 87 12v188h147zM410 747q-32 0 -55.5 23.5t-23.5 56.5q0 34 23.5 57.5
t55.5 23.5q33 0 56 -23.5t23 -57.5t-23 -57t-56 -23z" />
    <glyph glyph-name="gdotaccent" unicode="&#x121;" horiz-adv-x="685" 
d="M610 560v-505q0 -132 -76 -200.5t-220 -68.5q-136 0 -226 38v152q108 -51 217 -51q88 0 127 34t39 111v4v14q-55 -64 -164 -64q-123 0 -195 71t-72 198q0 131 75 204t194 73q103 0 155 -56v25v21h146zM194 295q0 -64 39 -99t100 -35q58 0 94 36t36 98q0 65 -36 100.5
t-95 35.5q-62 0 -100 -36t-38 -100zM319 619q-33 0 -56 23.5t-23 56.5q0 34 23.5 57.5t55.5 23.5q33 0 56 -23.5t23 -57.5t-23 -57t-56 -23z" />
    <glyph glyph-name="Gcommaaccent" unicode="&#x122;" horiz-adv-x="736" 
d="M668 326v-270q-93 -70 -243 -70q-180 0 -277.5 96t-97.5 265q0 166 102 266.5t286 100.5q119 0 207 -47v-158q-83 61 -198 61q-106 0 -169.5 -56t-63.5 -164q0 -106 58.5 -165t161.5 -59q52 0 87 12v188h147zM377 -272l-34 57q42 17 42 40q0 11 -14 25q-20 20 -20 42
q0 26 18 42t46 16q32 0 52.5 -21.5t20.5 -56.5q0 -45 -25 -79.5t-86 -64.5z" />
    <glyph glyph-name="gcommaaccent" unicode="&#x123;" horiz-adv-x="685" 
d="M610 560v-505q0 -132 -76 -200.5t-220 -68.5q-136 0 -226 38v152q108 -51 217 -51q88 0 127 34t39 111v4v14q-55 -64 -164 -64q-123 0 -195 71t-72 198q0 131 75 204t194 73q103 0 155 -56v25v21h146zM194 295q0 -64 39 -99t100 -35q58 0 94 36t36 98q0 65 -36 100.5
t-95 35.5q-62 0 -100 -36t-38 -100zM349 729q0 -11 14 -25q20 -20 20 -42q0 -26 -18 -42t-46 -16q-32 0 -52.5 21.5t-20.5 56.5q0 45 25 79.5t86 64.5l34 -57q-42 -22 -42 -40z" />
    <glyph glyph-name="Hcircumflex" unicode="&#x124;" horiz-adv-x="816" 
d="M90 700h159v-273h318v273h159v-700h-159v287h-318v-287h-159v700zM477 752l-71 81l-71 -81h-125l138 146h115l140 -146h-126z" />
    <glyph glyph-name="hcircumflex" unicode="&#x125;" horiz-adv-x="692" 
d="M80 0v780h155v-199q0 -9 -0.5 -32.5t-0.5 -36.5q65 58 169 58q107 0 165.5 -66.5t58.5 -173.5v-330h-155v308q0 122 -114 122q-56 0 -89.5 -33t-33.5 -100v-297h-155zM245 817l-58 92l-63 -92h-119l125 162h113l125 -162h-123z" />
    <glyph glyph-name="Hbar" unicode="&#x126;" horiz-adv-x="846" 
d="M105 700h159v-98h318v98h159v-98h85v-90h-85v-512h-159v287h-318v-287h-159v512h-85v90h85v98zM264 427h318v85h-318v-85z" />
    <glyph glyph-name="hbar" unicode="&#x127;" horiz-adv-x="702" 
d="M15 610v90h75v80h155v-80h148v-90h-148v-37q0 -8 -0.5 -37t-0.5 -46q70 57 169 57q107 0 165.5 -66.5t58.5 -173.5v-307h-155v285q0 122 -114 122q-56 0 -89.5 -33.5t-33.5 -99.5v-274h-155v610h-75z" />
    <glyph glyph-name="Itilde" unicode="&#x128;" horiz-adv-x="339" 
d="M90 0v700h159v-700h-159zM258 883h88q-3 -65 -33.5 -99.5t-80.5 -34.5q-37 0 -76 33q-24 22 -39 22q-28 0 -33 -49h-86q11 133 111 133q38 0 77 -32q27 -23 40 -23q27 0 32 50z" />
    <glyph glyph-name="itilde" unicode="&#x129;" horiz-adv-x="315" 
d="M80 0v560h155v-560h-155zM244 767h88q-3 -66 -34 -105.5t-80 -39.5q-35 0 -70 28q-3 3 -13 12.5t-17 13.5t-15 4q-27 0 -33 -52h-86q6 70 35 107t75 37q36 0 77 -34q3 -3 8 -7t8 -7t7 -5.5t8.5 -4t9.5 -1.5q27 0 32 54z" />
    <glyph glyph-name="Imacron" unicode="&#x12a;" horiz-adv-x="339" 
d="M90 0v700h159v-700h-159zM24 772v98h292v-98h-292z" />
    <glyph glyph-name="imacron" unicode="&#x12b;" horiz-adv-x="315" 
d="M80 0v560h155v-560h-155zM17 653v98h280v-98h-280z" />
    <glyph glyph-name="Ibreve" unicode="&#x12c;" horiz-adv-x="339" 
d="M90 0v700h159v-700h-159zM170 744q-70 0 -113 35.5t-48 103.5h95q13 -55 66 -55t66 55h95q-5 -68 -48 -103.5t-113 -35.5z" />
    <glyph glyph-name="ibreve" unicode="&#x12d;" horiz-adv-x="315" 
d="M80 0v560h155v-560h-155zM158 618q-70 0 -113 37t-48 105h97q16 -55 65 -55q47 0 63 55h97q-5 -68 -48 -105t-113 -37z" />
    <glyph glyph-name="Iogonek" unicode="&#x12e;" horiz-adv-x="339" 
d="M249 700v-700q-96 -29 -96 -82q0 -37 52 -37q19 0 40 7v-87q-32 -15 -81 -15q-56 0 -93 26.5t-37 75.5q0 71 75 112h-19v700h159z" />
    <glyph glyph-name="iogonek" unicode="&#x12f;" horiz-adv-x="315" 
d="M27 -116q0 70 82 116h-29v560h155v-560q-38 -14 -66.5 -37t-28.5 -50q0 -38 55 -38q22 0 40 6v-77q-30 -18 -82 -18q-55 0 -90.5 25t-35.5 73zM157 617q-37 0 -62 22.5t-25 61.5t25 61.5t62 22.5t62.5 -22.5t25.5 -61.5t-25.5 -61.5t-62.5 -22.5z" />
    <glyph glyph-name="Idotaccent" unicode="&#x130;" horiz-adv-x="339" 
d="M90 0v700h159v-700h-159zM170 742q-32 0 -55.5 23t-23.5 57t23.5 57.5t55.5 23.5q33 0 56 -23.5t23 -57.5t-23 -57t-56 -23z" />
    <glyph glyph-name="dotlessi" unicode="&#x131;" horiz-adv-x="315" 
d="M80 0v560h155v-560h-155z" />
    <glyph glyph-name="IJ" unicode="&#x132;" horiz-adv-x="758" 
d="M90 260v440h159v-440h-159zM337 -14q-136 0 -247 49v159q112 -62 235 -62q102 0 150 45t48 138v385h157v-394q0 -157 -86.5 -238.5t-256.5 -81.5z" />
    <glyph glyph-name="ij" unicode="&#x133;" horiz-adv-x="610" 
d="M456 617q-37 0 -62.5 22.5t-25.5 61.5t25.5 61.5t62.5 22.5t62.5 -22.5t25.5 -61.5t-25.5 -61.5t-62.5 -22.5zM537 560v-539q0 -113 -51 -174t-152 -61q-60 0 -99 16v129q35 -11 65 -11q82 0 82 98v542h155zM156 617q-37 0 -62 22.5t-25 61.5t25 61.5t62 22.5t62.5 -22.5
t25.5 -61.5t-25.5 -61.5t-62.5 -22.5zM80 0v560h155v-560h-155z" />
    <glyph glyph-name="Jcircumflex" unicode="&#x134;" horiz-adv-x="551" 
d="M225 -14q-95 0 -170 36v149q67 -41 145 -41q58 0 87 27t29 88v313h-233v142h390v-472q0 -242 -248 -242zM340 752l-71 81l-71 -81h-125l138 146h115l140 -146h-126z" />
    <glyph glyph-name="jcircumflex" unicode="&#x135;" horiz-adv-x="312" 
d="M239 560v-539q0 -113 -51 -174t-152 -61q-60 0 -99 16v129q35 -11 65 -11q82 0 82 98v542h155zM209 618l-58 92l-63 -92h-119l125 162h113l125 -162h-123z" />
    <glyph glyph-name="Kcommaaccent" unicode="&#x136;" horiz-adv-x="723" 
d="M708 0h-187l-169 289h-103v-289h-159v700h159v-274h105l169 274h178l-214 -337zM343 -232l-34 57q42 17 42 40q0 11 -14 25q-20 20 -20 42q0 26 18 42t46 16q32 0 52.5 -21.5t20.5 -56.5q0 -45 -25 -79.5t-86 -64.5z" />
    <glyph glyph-name="kcommaaccent" unicode="&#x137;" horiz-adv-x="645" 
d="M457 0l-139 213h-83v-213h-155v780h155v-433h83l138 213h176l-188 -272l196 -288h-183zM313 -145q0 11 -14 25q-19 19 -19 42q0 26 17.5 42t45.5 16q32 0 52.5 -21.5t20.5 -56.5q0 -45 -24.5 -79t-84.5 -65l-33 57q39 18 39 40z" />
    <glyph glyph-name="Lacute" unicode="&#x139;" horiz-adv-x="604" 
d="M90 0v700h159v-556h310v-144h-469zM233 757h-142l158 141h178z" />
    <glyph glyph-name="lacute" unicode="&#x13a;" horiz-adv-x="315" 
d="M80 0v780h155v-780h-155zM212 830h-142l158 141h178z" />
    <glyph glyph-name="Lcommaaccent" unicode="&#x13b;" horiz-adv-x="604" 
d="M90 0v700h159v-556h310v-144h-469zM297 -262l-34 57q42 17 42 40q0 11 -14 25q-20 20 -20 42q0 26 18 42t46 16q32 0 52.5 -21.5t20.5 -56.5q0 -45 -25 -79.5t-86 -64.5z" />
    <glyph glyph-name="lcommaaccent" unicode="&#x13c;" horiz-adv-x="315" 
d="M80 0v780h155v-780h-155zM118 -261l-34 57q42 17 42 40q0 11 -14 25q-20 20 -20 42q0 26 18 42t46 16q32 0 52.5 -21.5t20.5 -56.5q0 -45 -25 -79.5t-86 -64.5z" />
    <glyph glyph-name="Lcaron" unicode="&#x13d;" horiz-adv-x="604" 
d="M90 0v700h159v-556h310v-144h-469zM506 700l-61 -180h-95l38 180h118z" />
    <glyph glyph-name="lcaron" unicode="&#x13e;" horiz-adv-x="390" 
d="M80 0v780h155v-780h-155zM446 780l-61 -180h-95l38 180h118z" />
    <glyph glyph-name="Ldot" unicode="&#x13f;" horiz-adv-x="641" 
d="M90 700h159v-556h310v-144h-469v700zM487 307q-41 0 -64.5 23.5t-23.5 62.5t23.5 63t64.5 24t64.5 -24t23.5 -63t-23.5 -62.5t-64.5 -23.5z" />
    <glyph glyph-name="ldot" unicode="&#x140;" horiz-adv-x="448" 
d="M80 0v780h155v-780h-155zM379 249q-33 0 -56 23.5t-23 56.5q0 34 23.5 57.5t55.5 23.5q33 0 56 -23.5t23 -57.5t-23 -57t-56 -23z" />
    <glyph glyph-name="Lslash" unicode="&#x141;" horiz-adv-x="624" 
d="M110 0v265l-80 -52v107l80 52v328h159v-225l95 62v-107l-95 -62v-224h310v-144h-469z" />
    <glyph glyph-name="lslash" unicode="&#x142;" horiz-adv-x="355" 
d="M100 0v274l-82 -53v90l82 53v416h155v-316l84 54v-90l-84 -54v-374h-155z" />
    <glyph glyph-name="Nacute" unicode="&#x143;" horiz-adv-x="821" 
d="M90 700h164l326 -474v474h151v-700h-163l-327 476v-476h-151v700zM452 742h-142l158 141h178z" />
    <glyph glyph-name="nacute" unicode="&#x144;" horiz-adv-x="676" 
d="M338 574q124 0 198.5 -67t74.5 -187v-320h-158v297q0 134 -115 134t-115 -134v-297h-158v320q0 120 74.5 187t198.5 67zM366 626h-126l134 154h161z" />
    <glyph glyph-name="Ncommaaccent" unicode="&#x145;" horiz-adv-x="821" 
d="M90 700h164l326 -474v474h151v-700h-163l-327 476v-476h-151v700zM370 -232l-34 57q42 17 42 40q0 11 -14 25q-20 20 -20 42q0 26 18 42t46 16q32 0 52.5 -21.5t20.5 -56.5q0 -45 -25 -79.5t-86 -64.5z" />
    <glyph glyph-name="ncommaaccent" unicode="&#x146;" horiz-adv-x="676" 
d="M338 574q124 0 198.5 -67t74.5 -187v-320h-158v297q0 134 -115 134t-115 -134v-297h-158v320q0 120 74.5 187t198.5 67zM309 -145q0 11 -14 25q-19 19 -19 42q0 26 17.5 42t45.5 16q32 0 52.5 -21.5t20.5 -56.5q0 -45 -24.5 -79t-84.5 -65l-33 57q39 18 39 40z" />
    <glyph glyph-name="Ncaron" unicode="&#x147;" horiz-adv-x="821" 
d="M90 700h164l326 -474v474h151v-700h-163l-327 476v-476h-151v700zM343 883l71 -81l71 81h125l-138 -146h-115l-140 146h126z" />
    <glyph glyph-name="ncaron" unicode="&#x148;" horiz-adv-x="676" 
d="M338 574q124 0 198.5 -67t74.5 -187v-320h-158v297q0 134 -115 134t-115 -134v-297h-158v320q0 120 74.5 187t198.5 67zM279 780l59 -92l63 92h119l-125 -162h-113l-125 162h122z" />
    <glyph glyph-name="napostrophe" unicode="&#x149;" horiz-adv-x="676" 
d="M192 790l-61 -200h-100l38 200h123zM338 574q124 0 198.5 -67t74.5 -187v-320h-158v297q0 134 -115 134t-115 -134v-297h-158v320q0 120 74.5 187t198.5 67z" />
    <glyph glyph-name="Eng" unicode="&#x14a;" horiz-adv-x="821" 
d="M731 700v-655q0 -258 -217 -258q-53 0 -90 17v130q27 -9 54 -9q38 0 60 17.5t30 56.5l-324 466v-465h-154v700h164l323 -461v461h154z" />
    <glyph glyph-name="eng" unicode="&#x14b;" horiz-adv-x="692" 
d="M423 -214q-51 0 -89 18v115q22 -9 54 -9q44 0 64 26t20 83v289q0 122 -114 122q-56 0 -89.5 -33t-33.5 -100v-297h-155v560h155v-47q65 57 168 57q107 0 165.5 -66.5t58.5 -173.5v-310q0 -105 -51 -169.5t-153 -64.5z" />
    <glyph glyph-name="Omacron" unicode="&#x14c;" horiz-adv-x="860" 
d="M810 350q0 -167 -104 -265.5t-275 -98.5q-173 0 -277 98.5t-104 265.5t104 265.5t277 98.5q171 0 275 -98.5t104 -265.5zM646 350q0 106 -60.5 162.5t-155.5 56.5q-96 0 -156 -57t-60 -162t60 -162t156 -57q95 0 155.5 57.5t60.5 161.5zM283 777v98h292v-98h-292z" />
    <glyph glyph-name="omacron" unicode="&#x14d;" horiz-adv-x="686" 
d="M648 282q0 -140 -87.5 -218t-217.5 -78q-131 0 -218 77t-87 218q0 138 87.5 215.5t217.5 77.5t217.5 -77t87.5 -215zM494 282q0 74 -43.5 113.5t-107.5 39.5t-107.5 -40.5t-43.5 -113.5t43 -114.5t108 -41.5q64 0 107.5 41.5t43.5 115.5zM203 651v98h280v-98h-280z" />
    <glyph glyph-name="Obreve" unicode="&#x14e;" horiz-adv-x="860" 
d="M430 749q-70 0 -113 35.5t-48 103.5h95q13 -55 66 -55t66 55h95q-5 -68 -48 -103.5t-113 -35.5zM810 350q0 -167 -104 -265.5t-275 -98.5q-173 0 -277 98.5t-104 265.5t104 265.5t277 98.5q171 0 275 -98.5t104 -265.5zM646 350q0 106 -60.5 162.5t-155.5 56.5
q-96 0 -156 -57t-60 -162t60 -162t156 -57q95 0 155.5 57.5t60.5 161.5z" />
    <glyph glyph-name="obreve" unicode="&#x14f;" horiz-adv-x="686" 
d="M648 282q0 -140 -87.5 -218t-217.5 -78q-131 0 -218 77t-87 218q0 138 87.5 215.5t217.5 77.5t217.5 -77t87.5 -215zM494 282q0 74 -43.5 113.5t-107.5 39.5t-107.5 -40.5t-43.5 -113.5t43 -114.5t108 -41.5q64 0 107.5 41.5t43.5 115.5zM343 618q-70 0 -113 37t-48 105
h97q16 -55 65 -55q47 0 63 55h97q-5 -68 -48 -105t-113 -37z" />
    <glyph glyph-name="Ohungarumlaut" unicode="&#x150;" horiz-adv-x="860" 
d="M810 350q0 -167 -104 -265.5t-275 -98.5q-173 0 -277 98.5t-104 265.5t104 265.5t277 98.5q171 0 275 -98.5t104 -265.5zM646 350q0 106 -60.5 162.5t-155.5 56.5q-96 0 -156 -57t-60 -162t60 -162t156 -57q95 0 155.5 57.5t60.5 161.5zM368 752h-99l101 141h122z
M539 752h-106l145 141h150z" />
    <glyph glyph-name="ohungarumlaut" unicode="&#x151;" horiz-adv-x="686" 
d="M648 282q0 -140 -87.5 -218t-217.5 -78q-131 0 -218 77t-87 218q0 138 87.5 215.5t217.5 77.5t217.5 -77t87.5 -215zM494 282q0 74 -43.5 113.5t-107.5 39.5t-107.5 -40.5t-43.5 -113.5t43 -114.5t108 -41.5q64 0 107.5 41.5t43.5 115.5zM442 620h-104l122 160h138z
M283 620h-93l87 160h116z" />
    <glyph glyph-name="OE" unicode="&#x152;" horiz-adv-x="1178" 
d="M636 0v62q-82 -76 -220 -76q-162 0 -264 99.5t-102 263.5t102 264.5t264 100.5q139 0 220 -78v64h487v-137h-341v-146h237v-132h-237v-148h341v-137h-487zM639 350q0 101 -58.5 160t-153.5 59q-92 0 -152.5 -59.5t-60.5 -159.5t60.5 -159.5t152.5 -59.5q95 0 153.5 59
t58.5 160z" />
    <glyph glyph-name="oe" unicode="&#x153;" horiz-adv-x="1034" 
d="M740 216h-115q29 -95 157 -95q117 0 192 51v-138q-78 -48 -196 -48q-161 0 -236 95q-71 -95 -210 -95q-130 0 -212 76.5t-82 218.5q0 137 84 215t213 78q131 0 209 -99q35 45 93.5 72t130.5 27q102 0 165 -52t63 -138q0 -91 -61.5 -129.5t-194.5 -38.5zM477 282
q0 71 -39.5 111.5t-102.5 40.5q-62 0 -102.5 -41.5t-40.5 -111.5q0 -71 39 -113t102 -42q64 0 104 41.5t40 114.5zM764 445q-52 0 -93.5 -31.5t-52.5 -88.5h125q57 0 82.5 12.5t25.5 42.5q0 65 -87 65z" />
    <glyph glyph-name="Racute" unicode="&#x154;" horiz-adv-x="739" 
d="M90 700h322q128 0 198.5 -58.5t70.5 -175.5q0 -71 -35.5 -126t-102.5 -78l166 -262h-183l-144 236h-133v-236h-159v700zM249 369h143q133 0 133 94q0 53 -33 76t-99 23h-144v-193zM392 752h-142l158 141h178z" />
    <glyph glyph-name="racute" unicode="&#x155;" horiz-adv-x="466" 
d="M80 0v560h155v-23q0 -5 -0.5 -18.5t-0.5 -21.5q57 73 148 73q32 0 54 -10v-148q-30 10 -61 10q-140 0 -140 -199v-223h-155zM308 626h-126l134 154h161z" />
    <glyph glyph-name="Rcommaaccent" unicode="&#x156;" horiz-adv-x="739" 
d="M90 700h322q128 0 198.5 -58.5t70.5 -175.5q0 -71 -35.5 -126t-102.5 -78l166 -262h-183l-144 236h-133v-236h-159v700zM249 369h143q133 0 133 94q0 53 -33 76t-99 23h-144v-193zM346 -232l-34 57q42 17 42 40q0 11 -14 25q-20 20 -20 42q0 26 18 42t46 16
q32 0 52.5 -21.5t20.5 -56.5q0 -45 -25 -79.5t-86 -64.5z" />
    <glyph glyph-name="rcommaaccent" unicode="&#x157;" horiz-adv-x="466" 
d="M80 0v560h155v-23q0 -5 -0.5 -18.5t-0.5 -21.5q57 73 148 73q32 0 54 -10v-148q-30 10 -61 10q-140 0 -140 -199v-223h-155zM216 -158q0 11 -14 25q-19 19 -19 42q0 26 17.5 42t45.5 16q32 0 52.5 -21.5t20.5 -56.5q0 -45 -24.5 -79t-84.5 -65l-33 57q39 18 39 40z" />
    <glyph glyph-name="Rcaron" unicode="&#x158;" horiz-adv-x="739" 
d="M90 700h322q128 0 198.5 -58.5t70.5 -175.5q0 -71 -35.5 -126t-102.5 -78l166 -262h-183l-144 236h-133v-236h-159v700zM249 369h143q133 0 133 94q0 53 -33 76t-99 23h-144v-193zM290 893l71 -81l71 81h125l-138 -146h-115l-140 146h126z" />
    <glyph glyph-name="rcaron" unicode="&#x159;" horiz-adv-x="466" 
d="M80 0v560h155v-23q0 -5 -0.5 -18.5t-0.5 -21.5q57 73 148 73q32 0 54 -10v-148q-30 10 -61 10q-140 0 -140 -199v-223h-155zM193 780l59 -92l63 92h119l-125 -162h-113l-125 162h122z" />
    <glyph glyph-name="Sacute" unicode="&#x15a;" horiz-adv-x="648" 
d="M372 757h-142l158 141h178zM58 40v160q106 -71 268 -71q120 0 120 68q0 33 -32 49t-113 33q-120 25 -180 76t-60 143q0 105 77.5 160.5t214.5 55.5q127 0 216 -43v-157q-102 58 -214 58q-57 0 -92 -16.5t-35 -49.5t33 -49t120 -37q116 -27 171.5 -75.5t55.5 -140.5
q0 -107 -75 -162.5t-212 -55.5q-149 0 -263 54z" />
    <glyph glyph-name="sacute" unicode="&#x15b;" horiz-adv-x="560" 
d="M58 27v156q46 -32 111.5 -51t121.5 -19q92 0 92 45q0 22 -24 34t-78 19q-113 15 -170.5 55t-57.5 117q0 94 70 142.5t181 48.5q108 0 193 -37v-145q-35 23 -89 39t-103 16q-103 0 -103 -44q0 -12 4.5 -19.5t20 -13t26.5 -8t42 -7.5q11 -2 17 -3q111 -19 164.5 -60
t53.5 -122q0 -86 -60.5 -135t-182.5 -49q-128 0 -229 41zM334 626h-126l134 154h161z" />
    <glyph glyph-name="Scircumflex" unicode="&#x15c;" horiz-adv-x="648" 
d="M58 40v160q106 -71 268 -71q120 0 120 68q0 33 -32 49t-113 33q-120 25 -180 76t-60 143q0 105 77.5 160.5t214.5 55.5q127 0 216 -43v-157q-102 58 -214 58q-57 0 -92 -16.5t-35 -49.5t33 -49t120 -37q116 -27 171.5 -75.5t55.5 -140.5q0 -107 -75 -162.5t-212 -55.5
q-149 0 -263 54zM408 747l-71 81l-71 -81h-125l138 146h115l140 -146h-126z" />
    <glyph glyph-name="scircumflex" unicode="&#x15d;" horiz-adv-x="560" 
d="M58 27v156q46 -32 111.5 -51t121.5 -19q92 0 92 45q0 22 -24 34t-78 19q-113 15 -170.5 55t-57.5 117q0 94 70 142.5t181 48.5q108 0 193 -37v-145q-35 23 -89 39t-103 16q-103 0 -103 -44q0 -12 4.5 -19.5t20 -13t26.5 -8t42 -7.5q11 -2 17 -3q111 -19 164.5 -60
t53.5 -122q0 -86 -60.5 -135t-182.5 -49q-128 0 -229 41zM347 618l-58 92l-63 -92h-119l125 162h113l125 -162h-123z" />
    <glyph glyph-name="Scedilla" unicode="&#x15e;" horiz-adv-x="648" 
d="M263 -73l19 60q-137 8 -224 53v160q106 -71 268 -71q120 0 120 68q0 33 -32 49t-113 33q-120 25 -180 76t-60 143q0 105 77.5 160.5t214.5 55.5q127 0 216 -43v-157q-102 58 -214 58q-57 0 -92 -16.5t-35 -49.5t33 -49t120 -37q116 -27 171.5 -75.5t55.5 -140.5
q0 -96 -62 -151t-175 -65l-6 -16q49 -27 49 -81q0 -52 -31 -78.5t-82 -26.5q-38 0 -74 17l20 69q17 -9 36 -9q32 0 32 27q0 33 -52 37z" />
    <glyph glyph-name="scedilla" unicode="&#x15f;" horiz-adv-x="560" 
d="M275 -215q-43 0 -74 16l19 65q18 -9 37 -9q15 0 25 7.5t10 19.5q0 33 -56 37l28 66q-122 6 -206 40v156q46 -32 111.5 -51t121.5 -19q92 0 92 45q0 22 -24 34t-78 19q-113 15 -170.5 55t-57.5 117q0 94 70 142.5t181 48.5q108 0 193 -37v-145q-35 23 -89 39t-103 16
q-103 0 -103 -44q0 -12 4.5 -19.5t20 -13t26.5 -8t42 -7.5q11 -2 17 -3q111 -19 164.5 -60t53.5 -122q0 -77 -47.5 -124t-144.5 -57l-10 -22q61 -20 61 -82q0 -43 -31 -71.5t-83 -28.5z" />
    <glyph glyph-name="Scaron" unicode="&#x160;" horiz-adv-x="648" 
d="M58 40v160q106 -71 268 -71q120 0 120 68q0 33 -32 49t-113 33q-120 25 -180 76t-60 143q0 105 77.5 160.5t214.5 55.5q127 0 216 -43v-157q-102 58 -214 58q-57 0 -92 -16.5t-35 -49.5t33 -49t120 -37q116 -27 171.5 -75.5t55.5 -140.5q0 -107 -75 -162.5t-212 -55.5
q-149 0 -263 54zM262 898l71 -81l71 81h125l-138 -146h-115l-140 146h126z" />
    <glyph glyph-name="scaron" unicode="&#x161;" horiz-adv-x="560" 
d="M58 27v156q46 -32 111.5 -51t121.5 -19q92 0 92 45q0 22 -24 34t-78 19q-113 15 -170.5 55t-57.5 117q0 94 70 142.5t181 48.5q108 0 193 -37v-145q-35 23 -89 39t-103 16q-103 0 -103 -44q0 -12 4.5 -19.5t20 -13t26.5 -8t42 -7.5q11 -2 17 -3q111 -19 164.5 -60
t53.5 -122q0 -86 -60.5 -135t-182.5 -49q-128 0 -229 41zM229 780l59 -92l63 92h119l-125 -162h-113l-125 162h122z" />
    <glyph glyph-name="uni0162" unicode="&#x162;" horiz-adv-x="709" 
d="M275 0v556h-245v144h649v-144h-245v-556h-37l-10 -28q49 -27 49 -81q0 -52 -31 -78.5t-82 -26.5q-38 0 -74 17l20 69q17 -9 36 -9q32 0 32 27q0 33 -52 37l23 73h-33z" />
    <glyph glyph-name="uni0163" unicode="&#x163;" horiz-adv-x="421" 
d="M251 430v-213q0 -47 21 -68.5t69 -21.5q28 0 58 10v-127q-32 -20 -96 -20q-106 0 -156 54.5t-50 169.5v216h-71v130h71v140h154v-140h148v-130h-148zM209 -165q0 11 -14 25q-19 19 -19 42q0 26 17.5 42t45.5 16q32 0 52.5 -21.5t20.5 -56.5q0 -45 -24.5 -79t-84.5 -65
l-33 57q39 18 39 40z" />
    <glyph glyph-name="Tcaron" unicode="&#x164;" horiz-adv-x="709" 
d="M275 0v556h-245v144h649v-144h-245v-556h-159zM283 893l71 -81l71 81h125l-138 -146h-115l-140 146h126z" />
    <glyph glyph-name="tcaron" unicode="&#x165;" horiz-adv-x="421" 
d="M251 430v-213q0 -47 21 -68.5t69 -21.5q28 0 58 10v-127q-32 -20 -96 -20q-106 0 -156 54.5t-50 169.5v216h-71v130h71v140h154v-140h148v-130h-148zM492 780l-61 -180h-95l38 180h118z" />
    <glyph glyph-name="Tbar" unicode="&#x166;" horiz-adv-x="709" 
d="M145 263v100h130v193h-245v144h649v-144h-245v-193h130v-100h-130v-263h-159v263h-130z" />
    <glyph glyph-name="tbar" unicode="&#x167;" horiz-adv-x="441" 
d="M38 252v85h67v93h-71v130h71v140h154v-140h148v-130h-148v-93h152v-85h-152v-35q0 -47 21 -68.5t69 -21.5q28 0 58 10v-127q-32 -20 -96 -20q-106 0 -156 54.5t-50 169.5v38h-67z" />
    <glyph glyph-name="Utilde" unicode="&#x168;" horiz-adv-x="794" 
d="M489 883h88q-3 -65 -33.5 -99.5t-80.5 -34.5q-37 0 -76 33q-24 22 -39 22q-28 0 -33 -49h-86q11 133 111 133q38 0 77 -32q27 -23 40 -23q27 0 32 50zM399 133q75 0 116 44t41 132v391h160v-400q0 -150 -85.5 -232t-233.5 -82t-233.5 82t-85.5 232v400h160v-391
q0 -88 42 -132t119 -44z" />
    <glyph glyph-name="utilde" unicode="&#x169;" horiz-adv-x="673" 
d="M608 560v-326q0 -115 -74 -181.5t-197 -66.5q-124 0 -198 66.5t-74 181.5v326h158v-315q0 -53 29.5 -84.5t85.5 -31.5t84 31t28 85v315h158zM426 757h88q-3 -66 -34 -105.5t-80 -39.5q-35 0 -70 28q-3 3 -13 12.5t-17 13.5t-15 4q-27 0 -33 -52h-86q6 70 35 107t75 37
q36 0 77 -34q3 -3 8 -7t8 -7t7 -5.5t8.5 -4t9.5 -1.5q27 0 32 54z" />
    <glyph glyph-name="Umacron" unicode="&#x16a;" horiz-adv-x="794" 
d="M399 133q75 0 116 44t41 132v391h160v-400q0 -150 -85.5 -232t-233.5 -82t-233.5 82t-85.5 232v400h160v-391q0 -88 42 -132t119 -44zM252 777v98h292v-98h-292z" />
    <glyph glyph-name="umacron" unicode="&#x16b;" horiz-adv-x="673" 
d="M608 560v-326q0 -115 -74 -181.5t-197 -66.5q-124 0 -198 66.5t-74 181.5v326h158v-315q0 -53 29.5 -84.5t85.5 -31.5t84 31t28 85v315h158zM196 643v98h280v-98h-280z" />
    <glyph glyph-name="Ubreve" unicode="&#x16c;" horiz-adv-x="794" 
d="M398 729q-70 0 -113 35.5t-48 103.5h95q13 -55 66 -55t66 55h95q-5 -68 -48 -103.5t-113 -35.5zM399 133q75 0 116 44t41 132v391h160v-400q0 -150 -85.5 -232t-233.5 -82t-233.5 82t-85.5 232v400h160v-391q0 -88 42 -132t119 -44z" />
    <glyph glyph-name="ubreve" unicode="&#x16d;" horiz-adv-x="673" 
d="M608 560v-326q0 -115 -74 -181.5t-197 -66.5q-124 0 -198 66.5t-74 181.5v326h158v-315q0 -53 29.5 -84.5t85.5 -31.5t84 31t28 85v315h158zM337 608q-70 0 -113 37t-48 105h97q16 -55 65 -55q47 0 63 55h97q-5 -68 -48 -105t-113 -37z" />
    <glyph glyph-name="Uring" unicode="&#x16e;" horiz-adv-x="794" 
d="M398 963q60 0 100 -36t40 -97t-40 -97t-100 -36t-100 36t-40 97t40 97t100 36zM398 766q28 0 45.5 17.5t17.5 46.5t-17.5 46.5t-45.5 17.5t-45.5 -17.5t-17.5 -46.5t17.5 -46.5t45.5 -17.5zM399 133q75 0 116 44t41 132v391h160v-400q0 -150 -85.5 -232t-233.5 -82
t-233.5 82t-85.5 232v400h160v-391q0 -88 42 -132t119 -44z" />
    <glyph glyph-name="uring" unicode="&#x16f;" horiz-adv-x="673" 
d="M608 560v-326q0 -115 -74 -181.5t-197 -66.5q-124 0 -198 66.5t-74 181.5v326h158v-315q0 -53 29.5 -84.5t85.5 -31.5t84 31t28 85v315h158zM336 587q-49 0 -78 26t-29 73t29 73t78 26t78 -26t29 -73t-29 -73t-78 -26zM336 728q-18 0 -30 -11t-12 -31t12 -31t30 -11
q19 0 30.5 11t11.5 31t-11.5 31t-30.5 11z" />
    <glyph glyph-name="Uhungarumlaut" unicode="&#x170;" horiz-adv-x="794" 
d="M345 742h-99l101 141h122zM516 742h-106l145 141h150zM399 133q75 0 116 44t41 132v391h160v-400q0 -150 -85.5 -232t-233.5 -82t-233.5 82t-85.5 232v400h160v-391q0 -88 42 -132t119 -44z" />
    <glyph glyph-name="uhungarumlaut" unicode="&#x171;" horiz-adv-x="673" 
d="M608 560v-326q0 -115 -74 -181.5t-197 -66.5q-124 0 -198 66.5t-74 181.5v326h158v-315q0 -53 29.5 -84.5t85.5 -31.5t84 31t28 85v315h158zM446 615h-104l122 160h138zM287 615h-93l87 160h116z" />
    <glyph glyph-name="Uogonek" unicode="&#x172;" horiz-adv-x="794" 
d="M635 75q-11 -12 -31 -30.5t-26 -24.5q-53 -53 -53 -94q0 -45 50 -45q23 0 42 7v-87q-32 -15 -79 -15q-58 0 -95 26.5t-37 76.5q0 52 43 100q-25 -3 -52 -3q-148 0 -233.5 82t-85.5 232v400h160v-391q0 -88 42 -132t119 -44q75 0 116 44t41 132v391h160v-400
q0 -137 -81 -225z" />
    <glyph glyph-name="uogonek" unicode="&#x173;" horiz-adv-x="673" 
d="M523 -118v-78q-31 -18 -82 -18q-56 0 -90.5 25.5t-34.5 74.5q0 56 45 101q-8 -1 -24 -1q-124 0 -198 66.5t-74 181.5v326h158v-315q0 -53 29.5 -84.5t85.5 -31.5t84 31t28 85v315h158v-325q0 -60 -19 -102.5t-59 -83.5q-13 -13 -36 -35t-34 -33t-20.5 -28.5t-9.5 -34.5
q0 -43 53 -43q21 0 40 7z" />
    <glyph glyph-name="Wcircumflex" unicode="&#x174;" horiz-adv-x="1017" 
d="M35 700h155l118 -556l120 487h179l119 -487l120 556h148l-158 -700h-206l-113 477l-117 -477h-211zM586 742l-71 81l-71 -81h-125l138 146h115l140 -146h-126z" />
    <glyph glyph-name="wcircumflex" unicode="&#x175;" horiz-adv-x="912" 
d="M38 560h148l101 -425l95 348h162l96 -348l101 425h144l-142 -560h-192l-89 333l-90 -333h-194zM523 608l-58 92l-63 -92h-119l125 162h113l125 -162h-123z" />
    <glyph glyph-name="Ycircumflex" unicode="&#x176;" horiz-adv-x="729" 
d="M334 -15q-145 0 -245 45v164q111 -69 232 -69q90 0 135.5 37.5t45.5 106.5v1v41q-55 -58 -168 -58q-130 0 -199.5 69.5t-69.5 203.5v174h159v-169q0 -135 138 -135q62 0 98 33.5t36 103.5v167h158v-431q0 -284 -320 -284zM427 752l-71 81l-71 -81h-125l138 146h115
l140 -146h-126z" />
    <glyph glyph-name="ycircumflex" unicode="&#x177;" horiz-adv-x="682" 
d="M607 560v-513q0 -131 -81.5 -196t-212.5 -65q-136 0 -226 38v152q108 -51 217 -51q163 0 163 140v4v26q-47 -61 -156 -61q-246 0 -246 254v272h155v-266q0 -64 29 -91.5t86 -27.5q56 0 86.5 30.5t30.5 88.5v266h155zM395 618l-58 92l-63 -92h-119l125 162h113l125 -162
h-123z" />
    <glyph glyph-name="Ydieresis" unicode="&#x178;" horiz-adv-x="729" 
d="M334 -15q-145 0 -245 45v164q111 -69 232 -69q90 0 135.5 37.5t45.5 106.5v1v41q-55 -58 -168 -58q-130 0 -199.5 69.5t-69.5 203.5v174h159v-169q0 -135 138 -135q62 0 98 33.5t36 103.5v167h158v-431q0 -284 -320 -284zM181 812q0 32 22 54t52 22q32 0 53.5 -22
t21.5 -54t-21.5 -53.5t-53.5 -21.5q-30 0 -52 21.5t-22 53.5zM391 812q0 32 21.5 54t52.5 22q30 0 52 -22t22 -54t-22 -53.5t-52 -21.5q-31 0 -52.5 21.5t-21.5 53.5z" />
    <glyph glyph-name="Zacute" unicode="&#x179;" horiz-adv-x="709" 
d="M382 752h-142l158 141h178zM71 557v143h568v-143l-379 -414h397v-143h-591v143l376 414h-371z" />
    <glyph glyph-name="zacute" unicode="&#x17a;" horiz-adv-x="593" 
d="M52 0v129l288 294h-281v137h478v-126l-289 -297h304v-137h-500zM338 626h-126l134 154h161z" />
    <glyph glyph-name="Zdotaccent" unicode="&#x17b;" horiz-adv-x="709" 
d="M71 557v143h568v-143l-379 -414h397v-143h-591v143l376 414h-371zM350 742q-32 0 -55.5 23t-23.5 57t23.5 57.5t55.5 23.5q33 0 56 -23.5t23 -57.5t-23 -57t-56 -23z" />
    <glyph glyph-name="zdotaccent" unicode="&#x17c;" horiz-adv-x="593" 
d="M52 0v129l288 294h-281v137h478v-126l-289 -297h304v-137h-500zM296 619q-32 0 -55.5 23.5t-23.5 56.5q0 34 23.5 57.5t55.5 23.5q33 0 56 -23.5t23 -57.5t-23 -57t-56 -23z" />
    <glyph glyph-name="Zcaron" unicode="&#x17d;" horiz-adv-x="709" 
d="M71 557v143h568v-143l-379 -414h397v-143h-591v143l376 414h-371zM289 888l71 -81l71 81h125l-138 -146h-115l-140 146h126z" />
    <glyph glyph-name="zcaron" unicode="&#x17e;" horiz-adv-x="593" 
d="M52 0v129l288 294h-281v137h478v-126l-289 -297h304v-137h-500zM245 780l59 -92l63 92h119l-125 -162h-113l-125 162h122z" />
    <glyph glyph-name="uni018F" unicode="&#x18f;" horiz-adv-x="752" 
d="M348 -14q-131 0 -212 64.5t-81 167.5q0 202 267 202h218q-33 152 -206 152q-128 0 -246 -62v152q102 52 251 52q166 0 264.5 -97t98.5 -263q0 -164 -92 -266t-262 -102zM346 127q81 0 132 44t64 123h-222q-107 0 -107 -77q0 -41 37.5 -65.5t95.5 -24.5z" />
    <glyph glyph-name="Ohorn" unicode="&#x1a0;" horiz-adv-x="869" 
d="M859 708q0 -115 -118 -133q69 -90 69 -225q0 -167 -104 -265.5t-275 -98.5q-173 0 -277 98.5t-104 265.5t104 265.5t277 98.5q66 0 153 -25q65 -19 98 -19q54 0 54 51q0 31 -18 77h121q20 -42 20 -90zM646 350q0 106 -60.5 162.5t-155.5 56.5q-96 0 -156 -57t-60 -162
t60 -162t156 -57q95 0 155.5 57.5t60.5 161.5z" />
    <glyph glyph-name="ohorn" unicode="&#x1a1;" horiz-adv-x="697" 
d="M685 573q0 -89 -95 -109q58 -76 58 -182q0 -140 -87.5 -218t-217.5 -78q-131 0 -218 77t-87 218q0 138 87.5 215.5t217.5 77.5q50 0 106 -14q62 -16 76 -16q42 0 42 41q0 38 -17 77h115q20 -36 20 -89zM494 282q0 74 -43.5 113.5t-107.5 39.5t-107.5 -40.5t-43.5 -113.5
t43 -114.5t108 -41.5q64 0 107.5 41.5t43.5 115.5z" />
    <glyph glyph-name="Uhorn" unicode="&#x1af;" horiz-adv-x="812" 
d="M399 133q75 0 116 44t41 132v391h112q56 0 56 51q0 33 -18 77h121q20 -42 20 -90q0 -59 -35 -93t-96 -40v-305q0 -150 -85.5 -232t-233.5 -82t-233.5 82t-85.5 232v400h160v-391q0 -88 42 -132t119 -44z" />
    <glyph glyph-name="uhorn" unicode="&#x1b0;" horiz-adv-x="689" 
d="M450 560h90q27 0 38 10.5t11 34.5q0 30 -17 73h115q18 -38 18 -75q0 -96 -97 -119v-250q0 -115 -74 -181.5t-197 -66.5q-124 0 -198 66.5t-74 181.5v326h158v-315q0 -53 29.5 -84.5t85.5 -31.5t84 31t28 85v315z" />
    <glyph glyph-name="uni0218" unicode="&#x218;" horiz-adv-x="648" 
d="M58 40v160q106 -71 268 -71q120 0 120 68q0 33 -32 49t-113 33q-120 25 -180 76t-60 143q0 105 77.5 160.5t214.5 55.5q127 0 216 -43v-157q-102 58 -214 58q-57 0 -92 -16.5t-35 -49.5t33 -49t120 -37q116 -27 171.5 -75.5t55.5 -140.5q0 -107 -75 -162.5t-212 -55.5
q-149 0 -263 54zM305 -272l-34 57q42 17 42 40q0 11 -14 25q-20 20 -20 42q0 26 18 42t46 16q32 0 52.5 -21.5t20.5 -56.5q0 -45 -25 -79.5t-86 -64.5z" />
    <glyph glyph-name="uni0219" unicode="&#x219;" horiz-adv-x="560" 
d="M58 27v156q46 -32 111.5 -51t121.5 -19q92 0 92 45q0 22 -24 34t-78 19q-113 15 -170.5 55t-57.5 117q0 94 70 142.5t181 48.5q108 0 193 -37v-145q-35 23 -89 39t-103 16q-103 0 -103 -44q0 -12 4.5 -19.5t20 -13t26.5 -8t42 -7.5q11 -2 17 -3q111 -19 164.5 -60
t53.5 -122q0 -86 -60.5 -135t-182.5 -49q-128 0 -229 41zM255 -175q0 11 -14 25q-19 19 -19 42q0 26 17.5 42t45.5 16q32 0 52.5 -21.5t20.5 -56.5q0 -45 -24.5 -79t-84.5 -65l-33 57q39 18 39 40z" />
    <glyph glyph-name="uni021A" unicode="&#x21a;" horiz-adv-x="709" 
d="M275 0v556h-245v144h649v-144h-245v-556h-159zM313 -262l-34 57q42 17 42 40q0 11 -14 25q-20 20 -20 42q0 26 18 42t46 16q32 0 52.5 -21.5t20.5 -56.5q0 -45 -25 -79.5t-86 -64.5z" />
    <glyph glyph-name="uni021B" unicode="&#x21b;" horiz-adv-x="421" 
d="M211 -214q-43 0 -74 16l19 65q18 -9 37 -9q15 0 25 7.5t10 19.5q0 33 -56 37l35 83q-110 41 -110 209v216h-71v130h71v140h154v-140h148v-130h-148v-213q0 -47 21 -68.5t69 -21.5q28 0 58 10v-127q-32 -20 -96 -20q-6 0 -15.5 0.5t-13.5 0.5l-10 -23q61 -20 61 -82
q0 -43 -31 -71.5t-83 -28.5z" />
    <glyph glyph-name="uni0259" unicode="&#x259;" horiz-adv-x="606" 
d="M268 440q-111 0 -202 -53v141q95 46 217 46q132 0 208.5 -79t76.5 -214t-76.5 -215t-215.5 -80q-106 0 -172 51.5t-66 133.5q0 171 235 171h147q-29 98 -152 98zM280 113q123 0 144 120h-155q-88 0 -88 -57q0 -31 27.5 -47t71.5 -16z" />
    <glyph glyph-name="circumflex" unicode="&#x2c6;" horiz-adv-x="453" 
d="M285 611l-58 92l-63 -92h-119l125 162h113l125 -162h-123z" />
    <glyph glyph-name="caron" unicode="&#x2c7;" horiz-adv-x="453" 
d="M167 773l59 -92l63 92h119l-125 -162h-113l-125 162h122z" />
    <glyph glyph-name="breve" unicode="&#x2d8;" horiz-adv-x="382" 
d="M191 613q-70 0 -113 37t-48 105h97q16 -55 65 -55q47 0 63 55h97q-5 -68 -48 -105t-113 -37z" />
    <glyph glyph-name="dotaccent" unicode="&#x2d9;" horiz-adv-x="238" 
d="M119 609q-33 0 -56 23.5t-23 56.5q0 34 23.5 57.5t55.5 23.5q33 0 56 -23.5t23 -57.5t-23 -57t-56 -23z" />
    <glyph glyph-name="ring" unicode="&#x2da;" horiz-adv-x="294" 
d="M147 591q-49 0 -78 26t-29 73t29 73t78 26t78 -26t29 -73t-29 -73t-78 -26zM147 732q-18 0 -30 -11t-12 -31t12 -31t30 -11q19 0 30.5 11t11.5 31t-11.5 31t-30.5 11z" />
    <glyph glyph-name="ogonek" unicode="&#x2db;" horiz-adv-x="289" 
d="M249 -119v-77q-30 -18 -82 -18q-55 0 -90.5 25t-35.5 73q0 38 24 69.5t58 46.5h126q-37 -13 -66 -37.5t-29 -49.5q0 -38 55 -38q22 0 40 6z" />
    <glyph glyph-name="tilde" unicode="&#x2dc;" horiz-adv-x="436" 
d="M302 760h88q-3 -66 -34 -105.5t-80 -39.5q-35 0 -70 28q-3 3 -13 12.5t-17 13.5t-15 4q-27 0 -33 -52h-86q6 70 35 107t75 37q36 0 77 -34q3 -3 8 -7t8 -7t7 -5.5t8.5 -4t9.5 -1.5q27 0 32 54z" />
    <glyph glyph-name="hungarumlaut" unicode="&#x2dd;" horiz-adv-x="488" 
d="M292 611h-104l122 160h138zM133 611h-93l87 160h116z" />
    <glyph glyph-name="gravecmb" unicode="&#x300;" horiz-adv-x="320" 
d="M166 615l-144 154h157l111 -154h-124z" />
    <glyph glyph-name="acutecmb" unicode="&#x301;" horiz-adv-x="349" 
d="M158 616h-126l134 154h161z" />
    <glyph glyph-name="uni0302" unicode="&#x302;" horiz-adv-x="453" 
d="M277 629l-50 61l-51 -61h-131l111 126h140l112 -126h-131z" />
    <glyph glyph-name="tildecmb" unicode="&#x303;" horiz-adv-x="436" 
d="M294 751h88q-2 -59 -28.5 -92.5t-76.5 -33.5q-34 0 -70 24q-28 19 -38 19q-21 0 -29 -39h-86q10 122 104 122q35 0 73 -26q25 -17 36 -17q21 0 27 43z" />
    <glyph glyph-name="uni0306" unicode="&#x306;" horiz-adv-x="382" 
d="M191 613q-70 0 -113 37t-48 105h97q16 -55 65 -55q47 0 63 55h97q-5 -68 -48 -105t-113 -37z" />
    <glyph glyph-name="hookcmb" unicode="&#x309;" horiz-adv-x="280" 
d="M105 569l-35 70q27 13 39.5 24t12.5 27q0 30 -37 30q-15 0 -35 -6v86q29 12 71 12q51 0 80.5 -27t29.5 -75q0 -53 -32.5 -89t-93.5 -52z" />
    <glyph glyph-name="dotbelowcmb" unicode="&#x323;" horiz-adv-x="238" 
d="M119 -207q-33 0 -56 23.5t-23 56.5q0 34 23.5 57.5t55.5 23.5q33 0 56 -23.5t23 -57.5t-23 -57t-56 -23z" />
    <glyph glyph-name="uni0400" unicode="&#x400;" horiz-adv-x="645" 
d="M90 0v700h500v-137h-342v-146h238v-132h-238v-148h342v-137h-500zM310 752l-174 141h175l138 -141h-139z" />
    <glyph glyph-name="uni0401" unicode="&#x401;" horiz-adv-x="645" 
d="M369 818q0 32 21.5 54t52.5 22q30 0 52 -22t22 -54t-22 -53.5t-52 -21.5q-31 0 -52.5 21.5t-21.5 53.5zM159 818q0 32 22 54t52 22q32 0 53.5 -22t21.5 -54t-21.5 -53.5t-53.5 -21.5q-30 0 -52 21.5t-22 53.5zM90 0v700h500v-137h-342v-146h238v-132h-238v-148h342v-137
h-500z" />
    <glyph glyph-name="uni0402" unicode="&#x402;" horiz-adv-x="875" 
d="M30 700h625v-144h-275v-187q70 61 182 61q121 0 187 -74.5t66 -216.5v-95q0 -258 -214 -258q-53 0 -90 17v130q27 -9 54 -9q48 0 71 27.5t23 90.5v91q0 155 -133 155q-70 0 -108 -39t-38 -116v-133h-155v556h-195v144z" />
    <glyph glyph-name="uni0403" unicode="&#x403;" horiz-adv-x="569" 
d="M90 700h449v-144h-290v-556h-159v700zM357 752h-142l158 141h178z" />
    <glyph glyph-name="uni0404" unicode="&#x404;" horiz-adv-x="695" 
d="M501 415v-129h-283q17 -77 74.5 -118t147.5 -41q109 0 195 53v-146q-87 -48 -212 -48q-176 0 -274.5 93t-98.5 267q0 169 102.5 268.5t272.5 99.5q116 0 207 -47v-156q-96 62 -193 62q-86 0 -144 -41t-77 -117h283z" />
    <glyph glyph-name="uni0405" unicode="&#x405;" horiz-adv-x="648" 
d="M58 40v160q106 -71 268 -71q120 0 120 68q0 33 -32 49t-113 33q-120 25 -180 76t-60 143q0 105 77.5 160.5t214.5 55.5q127 0 216 -43v-157q-102 58 -214 58q-57 0 -92 -16.5t-35 -49.5t33 -49t120 -37q116 -27 171.5 -75.5t55.5 -140.5q0 -107 -75 -162.5t-212 -55.5
q-149 0 -263 54z" />
    <glyph glyph-name="uni0406" unicode="&#x406;" horiz-adv-x="339" 
d="M90 0v700h159v-700h-159z" />
    <glyph glyph-name="uni0407" unicode="&#x407;" horiz-adv-x="339" 
d="M90 0v700h159v-700h-159zM200 827q0 32 21.5 54t52.5 22q30 0 52 -22t22 -54t-22 -53.5t-52 -21.5q-31 0 -52.5 21.5t-21.5 53.5zM-10 827q0 32 22 54t52 22q32 0 53.5 -22t21.5 -54t-21.5 -53.5t-53.5 -21.5q-30 0 -52 21.5t-22 53.5z" />
    <glyph glyph-name="uni0408" unicode="&#x408;" horiz-adv-x="551" 
d="M225 -14q-95 0 -170 36v149q67 -41 145 -41q58 0 87 27t29 88v313h-233v142h390v-472q0 -242 -248 -242z" />
    <glyph glyph-name="uni0409" unicode="&#x409;" horiz-adv-x="1131" 
d="M307 560l-2 -162q-2 -93 -4 -113q-10 -161 -56 -230t-152 -69q-29 0 -68 10v145q14 -2 26 -2q47 0 71.5 33t32.5 122q3 36 5 122l3 284h524v-230h141q263 0 263 -230q0 -120 -72 -180t-202 -60h-287v560h-223zM824 334h-137v-198h137q113 0 113 101q0 97 -113 97z" />
    <glyph glyph-name="uni040A" unicode="&#x40a;" horiz-adv-x="1153" 
d="M249 287v-287h-159v700h159v-273h303v273h157v-230h141q263 0 263 -230q0 -120 -72 -180t-202 -60h-287v287h-303zM709 136h137q113 0 113 101q0 97 -113 97h-137v-198z" />
    <glyph glyph-name="uni040B" unicode="&#x40b;" horiz-adv-x="882" 
d="M380 145v-145h-155v556h-195v144h625v-144h-275v-178q68 62 182 62q121 0 188 -74.5t67 -216.5v-149h-157v145q0 154 -134 154q-68 0 -107 -39t-39 -115z" />
    <glyph glyph-name="uni040C" unicode="&#x40c;" horiz-adv-x="723" 
d="M708 0h-187l-169 289h-103v-289h-159v700h159v-274h105l169 274h178l-214 -337zM427 752h-142l158 141h178z" />
    <glyph glyph-name="uni040D" unicode="&#x40d;" horiz-adv-x="790" 
d="M700 700v-700h-154v68q-64 -83 -199 -83q-124 0 -195.5 77.5t-71.5 224.5v413h159v-403q0 -82 39.5 -124.5t111.5 -42.5t111.5 42t39.5 123v405h159zM357 752l-174 141h175l138 -141h-139z" />
    <glyph glyph-name="uni040E" unicode="&#x40e;" horiz-adv-x="729" 
d="M334 -15q-145 0 -245 45v164q111 -69 232 -69q90 0 135.5 37.5t45.5 106.5v1v41q-55 -58 -168 -58q-130 0 -199.5 69.5t-69.5 203.5v174h159v-169q0 -135 138 -135q62 0 98 33.5t36 103.5v167h158v-431q0 -284 -320 -284zM415 892h107q2 -14 2 -26q0 -67 -44 -101
t-121 -34h-10q-77 0 -121 34t-44 101q0 12 2 26h107v-15q0 -63 61 -63t61 63v15z" />
    <glyph glyph-name="uni040F" unicode="&#x40f;" horiz-adv-x="819" 
d="M729 0h-247v-170h-145v170h-247v700h159v-560h321v560h159v-700z" />
    <glyph glyph-name="uni0410" unicode="&#x410;" horiz-adv-x="741" 
d="M230 157l-52 -157h-161l242 700h220l245 -700h-167l-51 157h-276zM369 579l-94 -285h186z" />
    <glyph glyph-name="uni0411" unicode="&#x411;" horiz-adv-x="726" 
d="M248 560v-116h167q127 0 193 -49.5t66 -165.5q0 -118 -68 -173.5t-209 -55.5h-307v700h539v-140h-381zM403 310h-155v-176h154q62 0 88.5 21t26.5 67q0 47 -27 67.5t-87 20.5z" />
    <glyph glyph-name="uni0412" unicode="&#x412;" horiz-adv-x="712" 
d="M90 0v700h294q115 0 177 -48t62 -138t-67 -138q110 -37 110 -167q0 -99 -69.5 -154t-197.5 -55h-309zM404 291h-159v-158h158q55 0 82 18.5t27 59.5t-26 60.5t-82 19.5zM245 567v-148h131q97 0 97 74t-98 74h-130z" />
    <glyph glyph-name="uni0413" unicode="&#x413;" horiz-adv-x="569" 
d="M90 700h449v-144h-290v-556h-159v700z" />
    <glyph glyph-name="uni0414" unicode="&#x414;" horiz-adv-x="830" 
d="M163 0v-160h-143v300h71q38 47 57 136q12 60 12 139l2 285h538v-560h102v-300h-144v160h-495zM541 140v420h-234l-2 -162q-1 -78 -12 -141q-11 -62 -37 -117h285z" />
    <glyph glyph-name="uni0415" unicode="&#x415;" horiz-adv-x="645" 
d="M90 0v700h500v-137h-342v-146h238v-132h-238v-148h342v-137h-500z" />
    <glyph glyph-name="uni0416" unicode="&#x416;" horiz-adv-x="1064" 
d="M1049 0h-183l-159 289h-98v-289h-154v289h-98l-160 -289h-182l210 362l-204 338h175l160 -274h99v274h154v-274h99l160 274h175l-204 -337z" />
    <glyph glyph-name="uni0417" unicode="&#x417;" horiz-adv-x="610" 
d="M60 30v161q41 -30 99 -48.5t117 -18.5q131 0 131 86t-140 86h-98v129h106q112 0 112 75q0 76 -109 76q-57 0 -115 -18t-99 -45v148q96 53 223 53q122 0 186.5 -50t64.5 -141q0 -118 -91 -157q113 -33 113 -161q0 -104 -71 -161.5t-207 -57.5t-222 44z" />
    <glyph glyph-name="uni0418" unicode="&#x418;" horiz-adv-x="790" 
d="M700 700v-700h-154v68q-64 -83 -199 -83q-124 0 -195.5 77.5t-71.5 224.5v413h159v-403q0 -82 39.5 -124.5t111.5 -42.5t111.5 42t39.5 123v405h159z" />
    <glyph glyph-name="uni0419" unicode="&#x419;" horiz-adv-x="790" 
d="M700 700v-700h-154v68q-64 -83 -199 -83q-124 0 -195.5 77.5t-71.5 224.5v413h159v-403q0 -82 39.5 -124.5t111.5 -42.5t111.5 42t39.5 123v405h159zM450 892h107q2 -14 2 -26q0 -67 -44 -101t-121 -34h-10q-77 0 -121 34t-44 101q0 12 2 26h107v-15q0 -63 61 -63t61 63
v15z" />
    <glyph glyph-name="uni041A" unicode="&#x41a;" horiz-adv-x="723" 
d="M708 0h-187l-169 289h-103v-289h-159v700h159v-274h105l169 274h178l-214 -337z" />
    <glyph glyph-name="uni041B" unicode="&#x41b;" horiz-adv-x="793" 
d="M25 -4v145q16 -2 26 -2q45 0 69 29.5t33 109.5q7 50 7 138l2 284h541v-700h-159v560h-237l-2 -162q-2 -96 -6 -141q-12 -145 -58.5 -208t-148.5 -63q-28 0 -67 10z" />
    <glyph glyph-name="uni041C" unicode="&#x41c;" horiz-adv-x="956" 
d="M282 700l198 -295l196 295h190v-700h-157v497l-199 -290h-69l-199 290v-497h-152v700h192z" />
    <glyph glyph-name="uni041D" unicode="&#x41d;" horiz-adv-x="816" 
d="M90 700h159v-273h318v273h159v-700h-159v287h-318v-287h-159v700z" />
    <glyph glyph-name="uni041E" unicode="&#x41e;" horiz-adv-x="860" 
d="M810 350q0 -167 -104 -265.5t-275 -98.5q-173 0 -277 98.5t-104 265.5t104 265.5t277 98.5q171 0 275 -98.5t104 -265.5zM646 350q0 106 -60.5 162.5t-155.5 56.5q-96 0 -156 -57t-60 -162t60 -162t156 -57q95 0 155.5 57.5t60.5 161.5z" />
    <glyph glyph-name="uni041F" unicode="&#x41f;" horiz-adv-x="804" 
d="M90 700h624v-700h-159v560h-306v-560h-159v700z" />
    <glyph glyph-name="uni0420" unicode="&#x420;" horiz-adv-x="730" 
d="M78 0v424q0 142 82 221.5t229 79.5q133 0 214.5 -78t81.5 -212q0 -124 -77 -203t-202 -79q-100 0 -170 48q0 -15 0.5 -41t0.5 -36v-124h-159zM237 435q0 -64 42 -103.5t106 -39.5q66 0 103.5 38.5t37.5 106.5q0 66 -40 106.5t-101 40.5q-66 0 -107 -39.5t-41 -109.5z" />
    <glyph glyph-name="uni0421" unicode="&#x421;" horiz-adv-x="685" 
d="M50 346q0 171 104 269.5t270 98.5q127 0 202 -47v-158q-77 61 -188 61q-98 0 -161 -57t-63 -164q0 -104 59 -161.5t162 -57.5q55 0 108.5 14.5t86.5 37.5v-148q-32 -20 -89 -34t-119 -14q-175 0 -273.5 93t-98.5 267z" />
    <glyph glyph-name="uni0422" unicode="&#x422;" horiz-adv-x="709" 
d="M275 0v556h-245v144h649v-144h-245v-556h-159z" />
    <glyph glyph-name="uni0423" unicode="&#x423;" horiz-adv-x="729" 
d="M334 -15q-145 0 -245 45v164q111 -69 232 -69q90 0 135.5 37.5t45.5 106.5v1v41q-55 -58 -168 -58q-130 0 -199.5 69.5t-69.5 203.5v174h159v-169q0 -135 138 -135q62 0 98 33.5t36 103.5v167h158v-431q0 -284 -320 -284z" />
    <glyph glyph-name="uni0424" unicode="&#x424;" horiz-adv-x="956" 
d="M498 -14h-40q-190 0 -299 91t-109 273q0 181 111.5 272.5t296.5 91.5h40q185 0 296.5 -91.5t111.5 -272.5t-111.5 -272.5t-296.5 -91.5zM551 578v-456q99 11 150 70.5t51 157.5t-51 157.5t-150 70.5zM204 350q0 -98 51 -157.5t150 -70.5v456q-99 -11 -150 -70.5
t-51 -157.5z" />
    <glyph glyph-name="uni0425" unicode="&#x425;" horiz-adv-x="734" 
d="M547 0l-146 286h-58l-144 -286h-174l192 360l-190 340h175l143 -279h51l144 279h171l-183 -336l196 -364h-177z" />
    <glyph glyph-name="uni0426" unicode="&#x426;" horiz-adv-x="844" 
d="M90 0v700h159v-560h306v560h159v-560h110v-300h-144v160h-590z" />
    <glyph glyph-name="uni0427" unicode="&#x427;" horiz-adv-x="755" 
d="M506 0v262q-66 -56 -175 -56q-124 0 -195 69t-71 207v218h159v-206q0 -146 142 -146q140 0 140 147v205h159v-700h-159z" />
    <glyph glyph-name="uni0428" unicode="&#x428;" horiz-adv-x="1105" 
d="M1015 0h-925v700h159v-560h224v560h159v-560h224v560h159v-700z" />
    <glyph glyph-name="uni0429" unicode="&#x429;" horiz-adv-x="1145" 
d="M1125 140v-300h-144v160h-891v700h159v-560h224v560h159v-560h224v560h159v-560h110z" />
    <glyph glyph-name="uni042A" unicode="&#x42a;" horiz-adv-x="871" 
d="M219 276v280h-189v144h348v-150q0 -40 -1 -63q69 60 174 60q125 0 200 -76.5t75 -205.5q0 -132 -83 -211t-218 -79q-146 0 -226 79t-80 222zM378 263q0 -68 41.5 -107.5t106.5 -39.5q61 0 101 40.5t40 106.5q0 68 -37.5 105.5t-103.5 37.5t-107 -39t-41 -104z" />
    <glyph glyph-name="uni042B" unicode="&#x42b;" horiz-adv-x="1015" 
d="M80 276v424h159v-150q0 -40 -1 -63q69 60 174 60q125 0 200 -76.5t75 -205.5q0 -132 -83 -211t-218 -79q-146 0 -226 79t-80 222zM925 700v-700h-159v700h159zM239 263q0 -68 41.5 -107.5t106.5 -39.5q61 0 101 40.5t40 106.5q0 68 -37.5 105.5t-103.5 37.5t-107 -39
t-41 -104z" />
    <glyph glyph-name="uni042C" unicode="&#x42c;" horiz-adv-x="732" 
d="M80 276v424h159v-150q0 -40 -1 -63q69 60 174 60q125 0 200 -76.5t75 -205.5q0 -132 -83 -211t-218 -79q-146 0 -226 79t-80 222zM239 263q0 -68 41.5 -107.5t106.5 -39.5q61 0 101 40.5t40 106.5q0 68 -37.5 105.5t-103.5 37.5t-107 -39t-41 -104z" />
    <glyph glyph-name="uni042D" unicode="&#x42d;" horiz-adv-x="695" 
d="M63 513v153q86 48 213 48q166 0 267.5 -98.5t101.5 -264.5q0 -170 -95 -267.5t-277 -97.5q-125 0 -213 48v147q97 -53 199 -53q89 0 144.5 41.5t73.5 116.5h-283v129h282q-17 75 -73.5 116t-143.5 41q-107 0 -196 -59z" />
    <glyph glyph-name="uni042E" unicode="&#x42e;" horiz-adv-x="1146" 
d="M1096 350q0 -167 -101.5 -265.5t-267.5 -98.5q-150 0 -246.5 79t-116.5 218h-115v-283h-159v700h159v-280h115q20 136 117 215t246 79q166 0 267.5 -98.5t101.5 -265.5zM726 131q90 0 148 57.5t58 161.5q0 106 -57.5 162.5t-148.5 56.5t-148.5 -57t-57.5 -162t57.5 -162
t148.5 -57z" />
    <glyph glyph-name="uni042F" unicode="&#x42f;" horiz-adv-x="741" 
d="M651 700v-700h-156v232h-118l-151 -232h-191l176 251q-75 23 -114 79t-39 135q0 115 74.5 175t199.5 60h319zM355 360h140v203h-141q-134 0 -134 -100q0 -103 135 -103z" />
    <glyph glyph-name="uni0430" unicode="&#x430;" 
d="M80 384v142q99 44 219 44q131 0 191.5 -59.5t58.5 -182.5l-3 -160q-2 -50 46 -50q7 0 21 2v-115q-33 -15 -80 -15q-94 0 -119 72q-58 -72 -182 -72q-88 0 -139 43.5t-51 122.5q0 182 255 182h106q0 98 -117 98q-105 0 -206 -52zM273 117q56 0 93 30t37 85v2h-100
q-106 0 -106 -62q0 -28 21.5 -41.5t54.5 -13.5z" />
    <glyph glyph-name="uni0431" unicode="&#x431;" horiz-adv-x="661" 
d="M344 -14q-291 0 -291 343v55q0 172 73 265q37 48 92.5 74.5t152.5 44.5q94 17 200 34l20 -147q-17 -2 -81.5 -10.5t-108.5 -14.5q-120 -17 -163 -68q-38 -44 -43 -116q66 75 181 75q113 0 180 -71t67 -191q0 -124 -75.5 -198.5t-203.5 -74.5zM215 256q0 -60 35.5 -97
t93.5 -37q59 0 95 37.5t36 96.5q0 62 -34 97t-92 35q-57 0 -95.5 -34t-38.5 -98z" />
    <glyph glyph-name="uni0432" unicode="&#x432;" horiz-adv-x="601" 
d="M333 -3q-189 0 -253 3v560q62 3 249 3q216 0 216 -151q0 -78 -62 -115q43 -15 63 -43.5t20 -78.5q0 -178 -233 -178zM326 232h-100v-120h99q52 0 75 13.5t23 45.5q0 33 -22 47t-75 14zM323 448h-97v-110h93q45 0 64 12.5t19 43.5q0 54 -79 54z" />
    <glyph glyph-name="uni0433" unicode="&#x433;" horiz-adv-x="512" 
d="M477 560v-142h-242v-418h-155v560h397z" />
    <glyph glyph-name="uni0434" unicode="&#x434;" horiz-adv-x="685" 
d="M610 560v-505q0 -132 -76 -200.5t-220 -68.5q-136 0 -226 38v152q108 -51 217 -51q88 0 127 34t39 111v4v14q-55 -64 -164 -64q-123 0 -195 71t-72 198q0 131 75 204t194 73q103 0 155 -56v25v21h146zM194 295q0 -64 39 -99t100 -35q58 0 94 36t36 98q0 65 -36 100.5
t-95 35.5q-62 0 -100 -36t-38 -100z" />
    <glyph glyph-name="uni0435" unicode="&#x435;" horiz-adv-x="620" 
d="M343 574q104 0 171.5 -51.5t67.5 -141.5q0 -89 -69.5 -127t-205.5 -38h-115q17 -50 59.5 -72.5t114.5 -22.5q118 0 194 51v-138q-84 -48 -212 -48q-141 0 -225.5 75t-84.5 219q0 135 85 214.5t220 79.5zM342 445q-59 0 -101.5 -31t-54.5 -89h144q57 0 82 12t25 41t-24 48
t-71 19z" />
    <glyph glyph-name="uni0436" unicode="&#x436;" horiz-adv-x="913" 
d="M530 560v-220h59l138 220h166l-173 -269l178 -291h-170l-131 215h-67v-215h-147v215h-72l-126 -215h-170l178 291l-173 269h166l133 -220h64v220h147z" />
    <glyph glyph-name="uni0437" unicode="&#x437;" horiz-adv-x="525" 
d="M50 27v136q81 -51 193 -51q53 0 75 15t22 46q0 32 -24.5 44.5t-79.5 12.5h-90v109h89q92 0 92 53q0 28 -21.5 41t-73.5 13q-91 0 -175 -47v134q87 41 202 41q104 0 160 -40.5t56 -120.5q0 -81 -70 -120q85 -34 85 -127q0 -86 -61 -133t-172 -47q-130 0 -207 41z" />
    <glyph glyph-name="uni0438" unicode="&#x438;" horiz-adv-x="693" 
d="M613 0h-151v25v32q-51 -67 -166 -67q-116 0 -173.5 71t-57.5 198v301h155v-289q0 -139 116 -139q122 0 122 143v285h155v-560z" />
    <glyph glyph-name="uni0439" unicode="&#x439;" horiz-adv-x="693" 
d="M613 0h-151v25v32q-51 -67 -166 -67q-116 0 -173.5 71t-57.5 198v301h155v-289q0 -139 116 -139q122 0 122 143v285h155v-560zM395 763h108q2 -14 2 -26q0 -66 -43.5 -100.5t-117.5 -34.5h-10q-73 0 -117 34.5t-44 100.5q0 12 2 26h108v-15q0 -63 56 -63t56 63v15z" />
    <glyph glyph-name="uni043A" unicode="&#x43a;" horiz-adv-x="641" 
d="M235 560v-213h76l141 213h175l-182 -272l191 -288h-181l-135 213h-85v-213h-155v560h155z" />
    <glyph glyph-name="uni043B" unicode="&#x43b;" horiz-adv-x="691" 
d="M30 0v138q22 -2 26 -2q61 0 74 67q3 13 10 109q4 73 4 248h467v-560h-155v418h-174l-4 -119q-5 -118 -19 -176q-16 -68 -54.5 -100.5t-110.5 -32.5q-40 0 -64 10z" />
    <glyph glyph-name="uni043C" unicode="&#x43c;" horiz-adv-x="836" 
d="M418 294l156 266h182v-560h-148v370l-149 -244h-87l-149 245v-371h-143v560h180z" />
    <glyph glyph-name="uni043D" unicode="&#x43d;" horiz-adv-x="696" 
d="M235 0h-155v560h155v-208h226v208h155v-560h-155v212h-226v-212z" />
    <glyph glyph-name="uni043E" unicode="&#x43e;" horiz-adv-x="686" 
d="M648 282q0 -140 -87.5 -218t-217.5 -78q-131 0 -218 77t-87 218q0 138 87.5 215.5t217.5 77.5t217.5 -77t87.5 -215zM494 282q0 74 -43.5 113.5t-107.5 39.5t-107.5 -40.5t-43.5 -113.5t43 -114.5t108 -41.5q64 0 107.5 41.5t43.5 115.5z" />
    <glyph glyph-name="uni043F" unicode="&#x43f;" horiz-adv-x="708" 
d="M80 0v560h548v-560h-155v418h-238v-418h-155z" />
    <glyph glyph-name="uni0440" unicode="&#x440;" horiz-adv-x="681" 
d="M220 -200h-155v478q0 146 82.5 221t214.5 75q131 0 206 -80t75 -214q0 -137 -73.5 -213.5t-200.5 -76.5q-92 0 -150 49q1 -17 1 -51v-188zM489 278q0 72 -34.5 113t-96.5 41q-65 0 -102 -40.5t-37 -110.5q0 -68 38.5 -109t100.5 -41t96.5 39t34.5 108z" />
    <glyph glyph-name="uni0441" unicode="&#x441;" horiz-adv-x="566" 
d="M38 277q0 134 82 215.5t221 81.5q101 0 173 -46v-144q-58 49 -160 49q-71 0 -116.5 -38.5t-45.5 -113.5q0 -77 44 -115.5t119 -38.5q103 0 161 49v-142q-62 -48 -179 -48q-140 0 -219.5 81t-79.5 210z" />
    <glyph glyph-name="uni0442" unicode="&#x442;" horiz-adv-x="1030" 
d="M80 560h150v-18v-34q60 62 155 62q116 0 172 -81q68 81 181 81q114 0 170.5 -65t56.5 -184v-321h-155v308q0 122 -101 122q-50 0 -79.5 -27t-29.5 -81v-322h-155v308q0 122 -97 122q-56 0 -84.5 -32t-28.5 -90v-308h-155v560z" />
    <glyph glyph-name="uni0443" unicode="&#x443;" horiz-adv-x="682" 
d="M607 560v-513q0 -131 -81.5 -196t-212.5 -65q-136 0 -226 38v152q108 -51 217 -51q163 0 163 140v4v26q-47 -61 -156 -61q-246 0 -246 254v272h155v-266q0 -64 29 -91.5t86 -27.5q56 0 86.5 30.5t30.5 88.5v266h155z" />
    <glyph glyph-name="uni0444" unicode="&#x444;" horiz-adv-x="851" 
d="M498 780v-209q152 -8 233.5 -81t81.5 -206v-6q0 -134 -81 -207.5t-234 -81.5v-189h-145v189q-154 8 -234.5 80.5t-80.5 208.5v6q0 133 81 206t234 81v209h145zM354 122v316q-169 -6 -169 -158q0 -147 169 -158zM497 438v-316q169 11 169 158q0 152 -169 158z" />
    <glyph glyph-name="uni0445" unicode="&#x445;" 
d="M17 560h176l109 -204h29l117 204h171l-161 -269l170 -291h-178l-116 214h-31l-112 -214h-172l161 286z" />
    <glyph glyph-name="uni0446" unicode="&#x446;" horiz-adv-x="728" 
d="M710 -140h-140v140h-490v560h155v-420h230v420h155v-420h90v-280z" />
    <glyph glyph-name="uni0447" unicode="&#x447;" horiz-adv-x="654" 
d="M574 0h-155v148v55q-48 -45 -151 -45q-104 0 -163.5 63.5t-59.5 192.5v146h155v-141q0 -123 109 -123q110 0 110 124v140h155v-560z" />
    <glyph glyph-name="uni0448" unicode="&#x448;" horiz-adv-x="965" 
d="M235 560v-420h170v420h155v-420h170v420h155v-560h-805v560h155z" />
    <glyph glyph-name="uni0449" unicode="&#x449;" horiz-adv-x="993" 
d="M835 -140v140h-755v560h155v-420h170v420h155v-420h170v420h155v-420h90v-280h-140z" />
    <glyph glyph-name="uni044A" unicode="&#x44a;" horiz-adv-x="688" 
d="M25 560h282v-89q0 -45 -2 -64q54 42 135 42q92 0 152.5 -62.5t60.5 -165.5q0 -106 -67 -172t-178 -66q-120 0 -185 65.5t-65 193.5v178h-133v140zM511 219q0 45 -28 73t-73 28q-46 0 -75.5 -27.5t-29.5 -74.5q0 -45 28.5 -73.5t74.5 -28.5t74.5 28.5t28.5 74.5z" />
    <glyph glyph-name="uni044B" unicode="&#x44b;" horiz-adv-x="870" 
d="M65 560h149v-89q0 -10 -2 -64q54 42 135 42q92 0 152.5 -62.5t60.5 -165.5q0 -106 -67 -172t-178 -66q-120 0 -185 65.5t-65 193.5v318zM790 0h-155v560h155v-560zM418 219q0 45 -28 73t-73 28q-46 0 -75.5 -27.5t-29.5 -74.5q0 -45 28.5 -73.5t74.5 -28.5t74.5 28.5
t28.5 74.5z" />
    <glyph glyph-name="uni044C" unicode="&#x44c;" horiz-adv-x="595" 
d="M65 560h149v-89q0 -45 -2 -64q54 42 135 42q92 0 152.5 -62.5t60.5 -165.5q0 -106 -67 -172t-178 -66q-120 0 -185 65.5t-65 193.5v318zM418 219q0 45 -28 73t-73 28q-46 0 -75.5 -27.5t-29.5 -74.5q0 -45 28.5 -73.5t74.5 -28.5t74.5 28.5t28.5 74.5z" />
    <glyph glyph-name="uni044D" unicode="&#x44d;" horiz-adv-x="569" 
d="M168 223v115h216q-16 50 -60 77t-108 27q-88 0 -165 -53v142q69 43 181 43q133 0 216 -78t83 -213t-79.5 -216t-217.5 -81q-113 0 -184 42v143q75 -53 173 -53q131 0 161 105h-216z" />
    <glyph glyph-name="uni044E" unicode="&#x44e;" horiz-adv-x="947" 
d="M235 215v-215h-155v560h155v-209h97q21 107 98.5 165t185.5 58q126 0 209.5 -77t83.5 -215q0 -142 -83 -219t-210 -77q-111 0 -188 58.5t-97 170.5h-96zM755 282q0 71 -39.5 111.5t-99.5 40.5t-100.5 -41t-40.5 -112q0 -73 40 -114t101 -41q60 0 99.5 41t39.5 115z" />
    <glyph glyph-name="uni044F" unicode="&#x44f;" horiz-adv-x="621" 
d="M205 0h-175l137 186q-115 47 -115 173q0 204 260 204q32 0 119.5 -1.5t109.5 -1.5v-560h-147v162h-80zM394 285v150h-86q-106 0 -106 -75t100 -75h92z" />
    <glyph glyph-name="uni0450" unicode="&#x450;" horiz-adv-x="620" 
d="M343 574q104 0 171.5 -51.5t67.5 -141.5q0 -89 -69.5 -127t-205.5 -38h-115q17 -50 59.5 -72.5t114.5 -22.5q118 0 194 51v-138q-84 -48 -212 -48q-141 0 -225.5 75t-84.5 219q0 135 85 214.5t220 79.5zM342 445q-59 0 -101.5 -31t-54.5 -89h144q57 0 82 12t25 41t-24 48
t-71 19zM308 631l-144 154h157l111 -154h-124z" />
    <glyph glyph-name="uni0451" unicode="&#x451;" horiz-adv-x="620" 
d="M343 574q104 0 171.5 -51.5t67.5 -141.5q0 -89 -69.5 -127t-205.5 -38h-115q17 -50 59.5 -72.5t114.5 -22.5q118 0 194 51v-138q-84 -48 -212 -48q-141 0 -225.5 75t-84.5 219q0 135 85 214.5t220 79.5zM342 445q-59 0 -101.5 -31t-54.5 -89h144q57 0 82 12t25 41t-24 48
t-71 19zM228 617q-30 0 -52 21.5t-22 53.5t22 54t52 22q32 0 53.5 -22t21.5 -54t-21.5 -53.5t-53.5 -21.5zM427 617q-31 0 -52.5 21.5t-21.5 53.5t21.5 54t52.5 22q30 0 52 -22t22 -54t-22 -53.5t-52 -21.5z" />
    <glyph glyph-name="uni0452" unicode="&#x452;" horiz-adv-x="703" 
d="M15 610v90h75v80h157v-80h146v-90h-146v-37q0 -11 -0.5 -40.5t-0.5 -43.5q71 58 169 58q109 0 166 -72t57 -198v-257q0 -106 -48.5 -170t-150.5 -64q-51 0 -89 18v115q22 -9 54 -9q44 0 64 26t20 83v247q0 146 -114 146q-127 0 -127 -144v-268h-157v610h-75z" />
    <glyph glyph-name="uni0453" unicode="&#x453;" horiz-adv-x="512" 
d="M477 560v-142h-242v-418h-155v560h397zM332 616h-126l134 154h161z" />
    <glyph glyph-name="uni0454" unicode="&#x454;" horiz-adv-x="569" 
d="M38 277q0 134 81 215.5t220 81.5q100 0 179 -44v-140q-76 53 -165 53q-133 0 -168 -105h216v-115h-217q29 -105 169 -105q90 0 166 54v-138q-74 -48 -183 -48q-135 0 -216.5 79t-81.5 212z" />
    <glyph glyph-name="uni0455" unicode="&#x455;" horiz-adv-x="560" 
d="M58 27v156q46 -32 111.5 -51t121.5 -19q92 0 92 45q0 22 -24 34t-78 19q-113 15 -170.5 55t-57.5 117q0 94 70 142.5t181 48.5q108 0 193 -37v-145q-35 23 -89 39t-103 16q-103 0 -103 -44q0 -12 4.5 -19.5t20 -13t26.5 -8t42 -7.5q11 -2 17 -3q111 -19 164.5 -60
t53.5 -122q0 -86 -60.5 -135t-182.5 -49q-128 0 -229 41z" />
    <glyph glyph-name="uni0456" unicode="&#x456;" horiz-adv-x="315" 
d="M156 617q-37 0 -62 22.5t-25 61.5t25 61.5t62 22.5t62.5 -22.5t25.5 -61.5t-25.5 -61.5t-62.5 -22.5zM80 0v560h155v-560h-155z" />
    <glyph glyph-name="uni0457" unicode="&#x457;" horiz-adv-x="315" 
d="M245 620q-32 0 -51 20.5t-19 58.5t19 59t51 21q31 0 50 -21t19 -59t-18.5 -58.5t-50.5 -20.5zM70 620q-31 0 -50 20.5t-19 58.5t19 59t50 21q33 0 51.5 -21t18.5 -59t-18.5 -58.5t-51.5 -20.5zM80 0v560h155v-560h-155z" />
    <glyph glyph-name="uni0458" unicode="&#x458;" horiz-adv-x="312" 
d="M158 617q-37 0 -62.5 22.5t-25.5 61.5t25.5 61.5t62.5 22.5t62.5 -22.5t25.5 -61.5t-25.5 -61.5t-62.5 -22.5zM239 560v-539q0 -113 -51 -174t-152 -61q-60 0 -99 16v129q35 -11 65 -11q82 0 82 98v542h155z" />
    <glyph glyph-name="uni0459" unicode="&#x459;" horiz-adv-x="948" 
d="M282 418l-4 -119q-5 -118 -19 -176q-16 -68 -54.5 -100.5t-110.5 -32.5q-40 0 -64 10v138q22 -2 26 -2q61 0 74 67q3 13 10 109q4 73 4 248h453v-180h96q220 0 220 -188q0 -93 -56.5 -142.5t-171.5 -49.5h-241v418h-162zM684 258h-87v-134h87q88 0 88 68q0 35 -21 50.5
t-67 15.5z" />
    <glyph glyph-name="uni045A" unicode="&#x45a;" horiz-adv-x="953" 
d="M600 124h89q88 0 88 68q0 35 -21 50.5t-67 15.5h-89v-134zM235 0h-155v560h155v-208h214v208h153v-180h96q220 0 220 -188q0 -93 -56.5 -142.5t-171.5 -49.5h-241v212h-214v-212z" />
    <glyph glyph-name="uni045B" unicode="&#x45b;" horiz-adv-x="702" 
d="M15 610v90h75v80h155v-80h148v-90h-148v-37q0 -8 -0.5 -37t-0.5 -46q70 57 169 57q107 0 165.5 -66.5t58.5 -173.5v-307h-155v285q0 122 -114 122q-56 0 -89.5 -33.5t-33.5 -99.5v-274h-155v610h-75z" />
    <glyph glyph-name="uni045C" unicode="&#x45c;" horiz-adv-x="641" 
d="M235 560v-213h76l141 213h175l-182 -272l191 -288h-181l-135 213h-85v-213h-155v560h155zM376 616h-126l134 154h161z" />
    <glyph glyph-name="uni045D" unicode="&#x45d;" horiz-adv-x="693" 
d="M613 0h-151v25v32q-51 -67 -166 -67q-116 0 -173.5 71t-57.5 198v301h155v-289q0 -139 116 -139q122 0 122 143v285h155v-560zM308 605l-144 154h157l111 -154h-124z" />
    <glyph glyph-name="uni045E" unicode="&#x45e;" horiz-adv-x="682" 
d="M607 560v-513q0 -131 -81.5 -196t-212.5 -65q-136 0 -226 38v152q108 -51 217 -51q163 0 163 140v4v26q-47 -61 -156 -61q-246 0 -246 254v272h155v-266q0 -64 29 -91.5t86 -27.5q56 0 86.5 30.5t30.5 88.5v266h155zM396 771h108q2 -14 2 -26q0 -66 -43.5 -100.5
t-117.5 -34.5h-10q-73 0 -117 34.5t-44 100.5q0 12 2 26h108v-15q0 -63 56 -63t56 63v15z" />
    <glyph glyph-name="uni045F" unicode="&#x45f;" horiz-adv-x="707" 
d="M235 138h237v422h155v-560h-204v-140h-139v140h-204v560h155v-422z" />
    <glyph glyph-name="uni048A" unicode="&#x48a;" horiz-adv-x="840" 
d="M242 218l318 482h160v-560h120l-124 -300h-142l70 160h-76v482l-318 -482h-160v700h152v-482zM464 892h107q2 -14 2 -26q0 -67 -44 -101t-121 -34h-10q-77 0 -121 34t-44 101q0 12 2 26h107v-15q0 -63 61 -63t61 63v15z" />
    <glyph glyph-name="uni048B" unicode="&#x48b;" horiz-adv-x="732" 
d="M229 216l245 344h148v-420h100l-82 -280h-133l40 140h-74v343l-246 -343h-147v560h149v-344zM407 763h108q2 -14 2 -26q0 -66 -43.5 -100.5t-117.5 -34.5h-10q-73 0 -117 34.5t-44 100.5q0 12 2 26h108v-15q0 -63 56 -63t56 63v15z" />
    <glyph glyph-name="uni048C" unicode="&#x48c;" horiz-adv-x="706" 
d="M105 0v531h-85v87h85v92h159v-92h155v-87h-155v-71h142q123 0 191.5 -51t68.5 -172q0 -237 -277 -237h-284zM264 134h140q113 0 113 98q0 99 -123 99h-130v-197z" />
    <glyph glyph-name="uni048D" unicode="&#x48d;" horiz-adv-x="643" 
d="M245 780v-100h160v-104h-160v-111h102q261 0 261 -232q0 -114 -69 -173.5t-199 -59.5h-250v576h-75v104h75v100h155zM337 332h-92v-199h94q122 0 122 99q0 100 -124 100z" />
    <glyph glyph-name="uni048E" unicode="&#x48e;" horiz-adv-x="735" 
d="M78 0v424q0 142 82 221.5t229 79.5q133 0 214.5 -78t81.5 -212t-86 -212l52 -56l-54 -55l-62 68q-57 -27 -129 -27q-100 0 -170 48q0 -15 0.5 -41t0.5 -36v-124h-159zM237 435q0 -64 42 -103.5t106 -39.5q27 0 43 5l-43 47l54 55l55 -61q32 38 32 99q0 66 -40 106.5
t-101 40.5q-66 0 -107 -39.5t-41 -109.5z" />
    <glyph glyph-name="uni048F" unicode="&#x48f;" horiz-adv-x="683" 
d="M220 -200h-155v478q0 146 82.5 221t214.5 75q131 0 206 -80t75 -214q0 -140 -78 -218l57 -69l-57 -47l-61 73q-60 -29 -135 -29q-92 0 -150 49q1 -17 1 -51v-188zM489 278q0 72 -34.5 113t-96.5 41q-65 0 -102 -40.5t-37 -110.5q0 -68 38.5 -109t100.5 -41q28 0 48 7
l-60 73l59 47l60 -73q24 38 24 93z" />
    <glyph glyph-name="uni0490" unicode="&#x490;" horiz-adv-x="589" 
d="M90 700h330v150h139v-294h-310v-556h-159v700z" />
    <glyph glyph-name="uni0491" unicode="&#x491;" horiz-adv-x="525" 
d="M355 700h140v-282h-260v-418h-155v560h275v140z" />
    <glyph glyph-name="uni0492" unicode="&#x492;" horiz-adv-x="584" 
d="M105 700h449v-144h-290v-184h162v-100h-162v-272h-159v272h-85v100h85v328z" />
    <glyph glyph-name="uni0493" unicode="&#x493;" horiz-adv-x="527" 
d="M492 560v-142h-247v-130h159v-90h-159v-198h-150v198h-75v90h75v272h397z" />
    <glyph glyph-name="uni0494" unicode="&#x494;" horiz-adv-x="746" 
d="M90 700h479v-144h-320v-189q71 63 187 63q120 0 185 -74.5t65 -216.5v-95q0 -258 -215 -258q-53 0 -90 17v130q27 -9 54 -9q48 0 71 27.5t23 90.5v91q0 155 -134 155q-70 0 -108 -39t-38 -116v-133h-159v700z" />
    <glyph glyph-name="uni0495" unicode="&#x495;" horiz-adv-x="654" 
d="M80 0v560h431v-139h-281v-75q0 -40 -1 -64q62 51 162 51q112 0 170 -69t58 -193v-51q0 -107 -47 -170.5t-149 -63.5q-49 0 -89 15v124q27 -10 58 -10q80 0 80 101v49q0 63 -30.5 98t-83.5 35q-59 0 -93.5 -38t-34.5 -102v-58h-150z" />
    <glyph glyph-name="uni0496" unicode="&#x496;" horiz-adv-x="1101" 
d="M1076 -160h-144v160h-66l-159 289h-98v-289h-154v289h-98l-161 -289h-181l210 362l-204 338h175l160 -274h99v274h154v-274h99l160 274h175l-204 -337l129 -223h108v-300z" />
    <glyph glyph-name="uni0497" unicode="&#x497;" horiz-adv-x="918" 
d="M530 560v-220h59l138 220h166l-173 -269l92 -151h88v-280h-140v140h-32l-131 215h-67v-215h-147v215h-72l-126 -215h-170l178 291l-173 269h166l133 -220h64v220h147z" />
    <glyph glyph-name="uni0498" unicode="&#x498;" horiz-adv-x="610" 
d="M60 30v161q41 -30 99 -48.5t117 -18.5q131 0 131 86t-140 86h-98v129h106q112 0 112 75q0 76 -109 76q-57 0 -115 -18t-99 -45v148q96 53 223 53q122 0 186.5 -50t64.5 -141q0 -118 -91 -157q113 -33 113 -161q0 -91 -55 -146.5t-160 -68.5l-6 -18q49 -27 49 -81
q0 -52 -31 -78.5t-82 -26.5q-38 0 -74 17l20 69q17 -9 36 -9q32 0 32 27q0 33 -52 37l18 60q-120 5 -195 43z" />
    <glyph glyph-name="uni0499" unicode="&#x499;" horiz-adv-x="525" 
d="M50 27v136q81 -51 193 -51q53 0 75 15t22 46q0 32 -24.5 44.5t-79.5 12.5h-90v109h89q92 0 92 53q0 28 -21.5 41t-73.5 13q-91 0 -175 -47v134q87 41 202 41q104 0 160 -40.5t56 -120.5q0 -81 -70 -120q85 -34 85 -127q0 -75 -48 -121t-136 -56l-10 -21q61 -20 61 -82
q0 -43 -31 -71.5t-83 -28.5q-43 0 -74 16l19 65q18 -9 37 -9q15 0 25 7.5t10 19.5q0 33 -56 37l27 65q-112 5 -181 40z" />
    <glyph glyph-name="uni049A" unicode="&#x49a;" horiz-adv-x="745" 
d="M249 700v-274h105l169 274h178l-214 -337l136 -223h107v-300h-144v160h-65l-169 289h-103v-289h-159v700h159z" />
    <glyph glyph-name="uni049B" unicode="&#x49b;" horiz-adv-x="651" 
d="M235 560v-213h76l141 213h175l-182 -272l98 -148h91v-137l2 -3h-2v-140h-140v140h-39l-135 213h-85v-213h-155v560h155z" />
    <glyph glyph-name="uni049C" unicode="&#x49c;" horiz-adv-x="734" 
d="M280 507h72v-81h28l155 274h175l-196 -333l205 -367h-180l-160 289h-27v-68h-72v68h-35v-289h-155v700h155v-274h35v81z" />
    <glyph glyph-name="uni049D" unicode="&#x49d;" horiz-adv-x="688" 
d="M233 216v-216h-153v560h153v-216h38v119h73v-119h25l136 216h173l-184 -272l189 -288h-177l-133 216h-29v-99h-73v99h-38z" />
    <glyph glyph-name="uni049E" unicode="&#x49e;" horiz-adv-x="738" 
d="M264 700v-86h130v-87h-130v-101h105l169 274h178l-214 -337l221 -363h-187l-169 289h-103v-289h-159v527h-85v87h85v86h159z" />
    <glyph glyph-name="uni049F" unicode="&#x49f;" horiz-adv-x="655" 
d="M467 0l-139 213h-83v-213h-155v576h-75v104h75v100h155v-100h140v-104h-140v-229h83l138 213h176l-188 -272l196 -288h-183z" />
    <glyph glyph-name="uni04A0" unicode="&#x4a0;" horiz-adv-x="858" 
d="M843 0h-187l-169 289h-103v-289h-159v556h-195v144h354v-274h105l169 274h178l-214 -337z" />
    <glyph glyph-name="uni04A1" unicode="&#x4a1;" horiz-adv-x="770" 
d="M364 560v-213h76l141 213h175l-182 -272l191 -288h-181l-135 213h-85v-213h-152v420h-177v140h329z" />
    <glyph glyph-name="uni04A2" unicode="&#x4a2;" horiz-adv-x="856" 
d="M90 700h159v-273h318v273h159v-560h110v-300h-144v160h-125v287h-318v-287h-159v700z" />
    <glyph glyph-name="uni04A3" unicode="&#x4a3;" horiz-adv-x="724" 
d="M235 0h-155v560h155v-208h226v208h155v-420h90v-280h-140v140h-105v212h-226v-212z" />
    <glyph glyph-name="uni04A4" unicode="&#x4a4;" horiz-adv-x="1046" 
d="M90 700h159v-273h318v273h449v-144h-290v-556h-159v287h-318v-287h-159v700z" />
    <glyph glyph-name="uni04A5" unicode="&#x4a5;" horiz-adv-x="890" 
d="M459 0v212h-224v-212h-155v560h155v-208h224v208h396v-142h-242v-418h-154z" />
    <glyph glyph-name="uni04A6" unicode="&#x4a6;" horiz-adv-x="1209" 
d="M90 700h614v-194l-1 -82q72 61 188 61q120 0 189 -77t69 -215v-149q0 -258 -214 -258q-53 0 -90 17v130q27 -9 54 -9q48 0 71 27.5t23 90.5v142q0 153 -137 153q-73 0 -112.5 -39t-39.5 -116v-182h-159v560h-296v-560h-159v700z" />
    <glyph glyph-name="uni04A7" unicode="&#x4a7;" horiz-adv-x="1055" 
d="M80 0v560h548v-119q0 -9 -0.5 -35.5t-0.5 -42.5q61 49 156 49q116 0 176.5 -70t60.5 -203v-119q0 -106 -48.5 -170t-150.5 -64q-49 0 -89 15v124q27 -10 58 -10q80 0 80 101v118q0 136 -112 136q-58 0 -94 -34.5t-36 -105.5v-130h-155v420h-238v-420h-155z" />
    <glyph glyph-name="uni04A8" unicode="&#x4a8;" horiz-adv-x="1003" 
d="M447 -14q-182 0 -289.5 94.5t-107.5 266.5q0 177 101 271t262 96v-144q-91 -9 -145.5 -65t-54.5 -154q0 -105 64.5 -167.5t178.5 -62.5q34 0 49 1q-100 113 -100 266q0 136 78.5 209t198.5 73q112 0 183 -71.5t71 -188.5q0 -166 -131 -295l-4 -4q9 -2 40 -2q57 0 105 18
v-127q-40 -23 -123 -23q-94 0 -178 40q-88 -31 -198 -31zM557 390q0 -143 103 -223q26 17 51 43q79 85 79 193q0 58 -29.5 93.5t-80.5 35.5q-55 0 -89 -38.5t-34 -103.5z" />
    <glyph glyph-name="uni04A9" unicode="&#x4a9;" horiz-adv-x="821" 
d="M674 -31q-92 0 -169 44q-77 -27 -147 -27q-144 0 -232 75.5t-88 214.5q0 131 78 211.5t208 88.5v-140q-55 -11 -94 -52t-39 -108q0 -74 50 -119t124 -45q19 0 30 1q-68 89 -68 202q0 112 65.5 175.5t160.5 63.5q94 0 152 -59t58 -157q0 -71 -33 -136t-89 -111
q13 -4 34 -4q62 0 112 24v-120q-40 -22 -113 -22zM463 318q0 -101 64 -165q50 33 76 80.5t26 97.5q0 45 -20.5 70t-56.5 25q-39 0 -64 -28t-25 -80z" />
    <glyph glyph-name="uni04AA" unicode="&#x4aa;" horiz-adv-x="685" 
d="M50 346q0 171 104 269.5t270 98.5q127 0 202 -47v-158q-77 61 -188 61q-98 0 -161 -57t-63 -164q0 -104 59 -161.5t162 -57.5q55 0 108.5 14.5t86.5 37.5v-148q-70 -43 -196 -48l-5 -14q49 -27 49 -81q0 -52 -31 -78.5t-82 -26.5q-38 0 -74 17l20 69q17 -9 36 -9
q32 0 32 27q0 33 -52 37l20 64q-141 19 -219 110t-78 245z" />
    <glyph glyph-name="uni04AB" unicode="&#x4ab;" horiz-adv-x="566" 
d="M38 277q0 134 82 215.5t221 81.5q101 0 173 -46v-144q-58 49 -160 49q-71 0 -116.5 -38.5t-45.5 -113.5q0 -77 44 -115.5t119 -38.5q103 0 161 49v-142q-55 -43 -160 -47l-8 -19q61 -20 61 -82q0 -43 -31 -71.5t-83 -28.5q-43 0 -74 16l19 65q18 -9 37 -9q15 0 25 7.5
t10 19.5q0 33 -56 37l28 67q-116 14 -181 93t-65 195z" />
    <glyph glyph-name="uni04AC" unicode="&#x4ac;" horiz-adv-x="709" 
d="M544 -160h-144v160h-125v556h-245v144h649v-144h-245v-416h110v-300z" />
    <glyph glyph-name="uni04AD" unicode="&#x4ad;" horiz-adv-x="616" 
d="M581 418h-195v-278h90v-280h-140v140h-105v418h-196v142h546v-142z" />
    <glyph glyph-name="uni04AE" unicode="&#x4ae;" horiz-adv-x="690" 
d="M271 0v263l-266 437h181l166 -278l154 278h179l-255 -436v-264h-159z" />
    <glyph glyph-name="uni04AF" unicode="&#x4af;" horiz-adv-x="640" 
d="M406 -200h-155v210l-226 550h164l142 -370l134 370h161l-220 -550v-210z" />
    <glyph glyph-name="uni04B0" unicode="&#x4b0;" horiz-adv-x="690" 
d="M271 0v214h-150v100h119l-235 386h181l166 -278l154 278h179l-226 -386h121v-100h-150v-214h-159z" />
    <glyph glyph-name="uni04B1" unicode="&#x4b1;" horiz-adv-x="654" 
d="M30 560h165l145 -381l132 381h162l-185 -460h97v-100h-131v-200h-155v200h-141v100h104z" />
    <glyph glyph-name="uni04B2" unicode="&#x4b2;" horiz-adv-x="774" 
d="M547 0l-146 286h-58l-144 -286h-174l192 360l-190 340h175l143 -279h51l144 279h171l-183 -336l120 -224h106v-300h-144v160h-63z" />
    <glyph glyph-name="uni04B3" unicode="&#x4b3;" horiz-adv-x="659" 
d="M17 560h176l109 -204h29l117 204h171l-161 -269l88 -151h101v-280h-140v140h-57l-116 214h-31l-112 -214h-172l161 286z" />
    <glyph glyph-name="uni04B4" unicode="&#x4b4;" horiz-adv-x="979" 
d="M225 0v560h-195v140h552v-140h-198v-420h306v560h159v-560h110v-300h-144v160h-590z" />
    <glyph glyph-name="uni04B5" unicode="&#x4b5;" horiz-adv-x="850" 
d="M487 560v-140h-130v-280h230v420h155v-420h90v-280h-140v140h-487v420h-170v140h452z" />
    <glyph glyph-name="uni04B6" unicode="&#x4b6;" horiz-adv-x="795" 
d="M775 -160h-144v160h-125v262q-63 -56 -175 -56q-124 0 -195 69t-71 207v218h159v-206q0 -146 142 -146q140 0 140 147v205h159v-560h110v-300z" />
    <glyph glyph-name="uni04B7" unicode="&#x4b7;" horiz-adv-x="687" 
d="M529 0h-110v148v55q-48 -45 -151 -45q-104 0 -163.5 63.5t-59.5 192.5v146h155v-141q0 -123 109 -123q110 0 110 124v140h155v-420h95v-280h-140v140z" />
    <glyph glyph-name="uni04B8" unicode="&#x4b8;" horiz-adv-x="755" 
d="M506 0v262q-39 -34 -98 -48v-96h-96v88q-116 6 -181.5 74.5t-65.5 201.5v218h159v-206q0 -116 88 -140v95h96v-97q98 21 98 143v205h159v-700h-159z" />
    <glyph glyph-name="uni04B9" unicode="&#x4b9;" horiz-adv-x="659" 
d="M579 560v-560h-155v209q-33 -28 -77 -38v-105h-73v98q-104 0 -164 60t-60 186v150h155v-146q0 -100 69 -119v98h73v-99q77 17 77 121v145h155z" />
    <glyph glyph-name="uni04BA" unicode="&#x4ba;" horiz-adv-x="765" 
d="M249 215v-215h-159v700h159v-182q0 -17 -2 -71q73 62 182 62q122 0 191.5 -73t69.5 -211v-225h-159v217q0 74 -35.5 111.5t-98.5 37.5q-65 0 -106.5 -37.5t-41.5 -113.5z" />
    <glyph glyph-name="uni04BB" unicode="&#x4bb;" horiz-adv-x="692" 
d="M80 0v780h155v-199q0 -9 -0.5 -32.5t-0.5 -36.5q65 58 169 58q107 0 165.5 -66.5t58.5 -173.5v-330h-155v308q0 122 -114 122q-56 0 -89.5 -33t-33.5 -100v-297h-155z" />
    <glyph glyph-name="uni04BC" unicode="&#x4bc;" horiz-adv-x="912" 
d="M580 714q126 0 201.5 -61.5t75.5 -164.5q0 -105 -67 -153t-211 -48h-212q28 -157 223 -157q53 0 122 19t112 46v-150q-39 -26 -108.5 -42.5t-137.5 -16.5q-169 0 -265 85.5t-108 232.5q-96 14 -146.5 70t-50.5 146q0 44 15 85h135q-11 -41 -11 -68q0 -81 65 -103
q27 133 125.5 206.5t242.5 73.5zM580 574q-77 0 -135.5 -42t-75.5 -119h211q122 0 122 74q0 41 -31 64t-91 23z" />
    <glyph glyph-name="uni04BD" unicode="&#x4bd;" horiz-adv-x="758" 
d="M482 574q108 0 173 -50t65 -137q0 -94 -66.5 -132.5t-208.5 -38.5h-115q17 -50 59.5 -72.5t114.5 -22.5q118 0 194 51v-138q-84 -48 -214 -48q-127 0 -208.5 61t-96.5 180q-83 9 -126 55t-43 122q0 65 31 106h116q-27 -52 -27 -97q0 -58 51 -74q18 108 98.5 171.5
t202.5 63.5zM478 445q-59 0 -100.5 -31t-53.5 -89h144q57 0 82 12.5t25 44.5q0 63 -97 63z" />
    <glyph glyph-name="uni04BE" unicode="&#x4be;" horiz-adv-x="912" 
d="M512 -111q0 60 55 98q-164 2 -257 87.5t-105 229.5q-96 14 -146.5 70t-50.5 146q0 36 15 85h135q-11 -41 -11 -68q0 -81 65 -103q27 133 125.5 206.5t242.5 73.5q126 0 201.5 -61.5t75.5 -164.5q0 -105 -67 -153t-211 -48h-212q28 -157 223 -157q53 0 122 19t112 46v-150
q-26 -13 -69 -30q-30 -11 -47.5 -18.5t-37.5 -20t-29.5 -26.5t-9.5 -32q0 -37 50 -37q23 0 42 7v-87q-30 -15 -80 -15q-57 0 -94 27t-37 76zM580 574q-77 0 -135.5 -42t-75.5 -119h211q122 0 122 74q0 41 -31 64t-91 23z" />
    <glyph glyph-name="uni04BF" unicode="&#x4bf;" horiz-adv-x="758" 
d="M409 -116q0 63 62 102q-122 2 -199.5 64t-92.5 177q-83 9 -126 55t-43 122q0 65 31 106h116q-27 -52 -27 -97q0 -58 51 -74q18 108 98.5 171.5t202.5 63.5q108 0 173 -50t65 -137q0 -94 -66.5 -132.5t-208.5 -38.5h-115q17 -50 59.5 -72.5t114.5 -22.5q118 0 194 51v-135
l-81 -33q-27 -11 -49 -26q-43 -29 -43 -67q0 -36 50 -36q22 0 40 6v-77q-30 -18 -82 -18q-54 0 -89 25.5t-35 72.5zM478 445q-59 0 -100.5 -31t-53.5 -89h144q57 0 82 12.5t25 44.5q0 63 -97 63z" />
    <glyph glyph-name="uni04C0" unicode="&#x4c0;" horiz-adv-x="339" 
d="M90 0v700h159v-700h-159z" />
    <glyph glyph-name="uni04C1" unicode="&#x4c1;" horiz-adv-x="1064" 
d="M1049 0h-183l-159 289h-98v-289h-154v289h-98l-160 -289h-182l210 362l-204 338h175l160 -274h99v274h154v-274h99l160 274h175l-204 -337zM589 902h107q2 -14 2 -26q0 -67 -44 -101t-121 -34h-10q-77 0 -121 34t-44 101q0 12 2 26h107v-15q0 -63 61 -63t61 63v15z" />
    <glyph glyph-name="uni04C2" unicode="&#x4c2;" horiz-adv-x="913" 
d="M530 560v-220h59l138 220h166l-173 -269l178 -291h-170l-131 215h-67v-215h-147v215h-72l-126 -215h-170l178 291l-173 269h166l133 -220h64v220h147zM514 766h108q2 -14 2 -26q0 -66 -43.5 -100.5t-117.5 -34.5h-10q-73 0 -117 34.5t-44 100.5q0 12 2 26h108v-15
q0 -63 56 -63t56 63v15z" />
    <glyph glyph-name="uni04C3" unicode="&#x4c3;" horiz-adv-x="745" 
d="M700 700l-195 -311q181 -62 181 -286v-59q0 -258 -214 -258q-53 0 -90 17v130q27 -9 54 -9q48 0 71 27.5t23 90.5v52q0 183 -211 183h-70v-277h-159v700h159v-285h74h21l177 285h179z" />
    <glyph glyph-name="uni04C4" unicode="&#x4c4;" horiz-adv-x="657" 
d="M232 560v-217h75l139 217h176l-168 -245q79 -28 117.5 -90t38.5 -166v-39q0 -107 -47 -170.5t-149 -63.5q-48 0 -89 15v124q27 -10 58 -10q80 0 80 101v30q0 85 -40.5 125t-127.5 40h-63v-211h-152v560h152z" />
    <glyph glyph-name="uni04C5" unicode="&#x4c5;" horiz-adv-x="823" 
d="M699 -160h-142l70 160h-83v560h-237l-2 -161q0 -10 -3 -103q-10 -168 -56 -239t-154 -71q-28 0 -67 10v145q16 -2 26 -2q48 0 72.5 34.5t32.5 131.5q4 41 4 111l3 284h540v-560h120z" />
    <glyph glyph-name="uni04C6" unicode="&#x4c6;" horiz-adv-x="721" 
d="M144 560h467v-420h100l-82 -280h-133l40 140h-80v418h-174l-4 -119q-5 -118 -19 -176q-16 -68 -54.5 -100.5t-110.5 -32.5q-40 0 -64 10v138q22 -2 26 -2q61 0 74 67q3 13 10 109q4 73 4 248z" />
    <glyph glyph-name="uni04C7" unicode="&#x4c7;" horiz-adv-x="816" 
d="M726 700v-656q0 -258 -217 -258q-53 0 -90 17v130q27 -9 54 -9q48 0 71 27.5t23 90.5v245h-318v-287h-159v700h159v-273h318v273h159z" />
    <glyph glyph-name="uni04C8" unicode="&#x4c8;" horiz-adv-x="694" 
d="M235 0h-155v560h155v-208h224v208h155v-540q0 -105 -51 -169.5t-153 -64.5q-48 0 -89 15v124q27 -10 58 -10q80 0 80 101v196h-224v-212z" />
    <glyph glyph-name="uni04C9" unicode="&#x4c9;" horiz-adv-x="846" 
d="M722 -160h-142l70 160h-83v287h-318v-287h-159v700h159v-273h318v273h159v-560h120z" />
    <glyph glyph-name="uni04CA" unicode="&#x4ca;" horiz-adv-x="726" 
d="M634 -140h-133l40 140h-80v212h-226v-212h-155v560h155v-208h226v208h155v-420h100z" />
    <glyph glyph-name="uni04CB" unicode="&#x4cb;" horiz-adv-x="755" 
d="M535 0v-160h-144v291h120v145q-55 -65 -180 -65q-124 0 -195 69t-71 207v213h159v-201q0 -146 142 -146q140 0 140 147v200h159v-700h-130z" />
    <glyph glyph-name="uni04CC" unicode="&#x4cc;" horiz-adv-x="652" 
d="M572 0h-113v-140h-132v262h90v43v77q-52 -58 -142 -58q-232 0 -232 260v116h155v-111q0 -124 112 -124q107 0 107 125v110h155v-560z" />
    <glyph glyph-name="uni04CD" unicode="&#x4cd;" horiz-adv-x="986" 
d="M862 -160h-142l70 160h-81v498l-199 -291h-68l-199 290v-497h-153v700h192l198 -293l196 293h190v-560h120z" />
    <glyph glyph-name="uni04CE" unicode="&#x4ce;" horiz-adv-x="866" 
d="M774 -140h-133l40 140h-73v370l-149 -244h-87l-149 245v-371h-143v560h180l158 -266l156 266h182v-420h100z" />
    <glyph glyph-name="uni04CF" unicode="&#x4cf;" horiz-adv-x="315" 
d="M80 0v780h155v-780h-155z" />
    <glyph glyph-name="uni04D0" unicode="&#x4d0;" horiz-adv-x="741" 
d="M230 157l-52 -157h-161l242 700h220l245 -700h-167l-51 157h-276zM540 905h-107v-15q0 -63 -61 -63t-61 63v15h-107q-2 -14 -2 -26q0 -67 44 -101t121 -34h10q77 0 121 34t44 101q0 12 -2 26zM369 579l-94 -285h186z" />
    <glyph glyph-name="uni04D1" unicode="&#x4d1;" 
d="M80 384v142q99 44 219 44q131 0 191.5 -59.5t58.5 -182.5l-3 -160q-2 -50 46 -50q7 0 21 2v-115q-33 -15 -80 -15q-94 0 -119 72q-58 -72 -182 -72q-88 0 -139 43.5t-51 122.5q0 182 255 182h106q0 98 -117 98q-105 0 -206 -52zM352 776h108q2 -14 2 -26
q0 -66 -43.5 -100.5t-117.5 -34.5h-10q-73 0 -117 34.5t-44 100.5q0 12 2 26h108v-15q0 -63 56 -63t56 63v15zM273 117q56 0 93 30t37 85v2h-100q-106 0 -106 -62q0 -28 21.5 -41.5t54.5 -13.5z" />
    <glyph glyph-name="uni04D2" unicode="&#x4d2;" horiz-adv-x="741" 
d="M230 157l-52 -157h-161l242 700h220l245 -700h-167l-51 157h-276zM369 579l-94 -285h186zM192 817q0 -32 22 -53.5t52 -21.5q32 0 53.5 21.5t21.5 53.5t-21.5 54t-53.5 22q-30 0 -52 -22t-22 -54zM402 817q0 -32 21.5 -53.5t52.5 -21.5q30 0 52 21.5t22 53.5t-22 54
t-52 22q-31 0 -52.5 -22t-21.5 -54z" />
    <glyph glyph-name="uni04D3" unicode="&#x4d3;" 
d="M80 384v142q99 44 219 44q131 0 191.5 -59.5t58.5 -182.5l-3 -160q-2 -50 46 -50q7 0 21 2v-115q-33 -15 -80 -15q-94 0 -119 72q-58 -72 -182 -72q-88 0 -139 43.5t-51 122.5q0 182 255 182h106q0 98 -117 98q-105 0 -206 -52zM273 117q56 0 93 30t37 85v2h-100
q-106 0 -106 -62q0 -28 21.5 -41.5t54.5 -13.5zM196 625q-30 0 -52 21.5t-22 53.5t22 54t52 22q32 0 53.5 -22t21.5 -54t-21.5 -53.5t-53.5 -21.5zM395 625q-31 0 -52.5 21.5t-21.5 53.5t21.5 54t52.5 22q30 0 52 -22t22 -54t-22 -53.5t-52 -21.5z" />
    <glyph glyph-name="uni04D4" unicode="&#x4d4;" horiz-adv-x="1052" 
d="M997 0h-488v176h-234l-105 -176h-170l431 700h566v-137h-341v-146h237v-132h-237v-148h341v-137zM509 565l-156 -259h156v259z" />
    <glyph glyph-name="uni04D5" unicode="&#x4d5;" horiz-adv-x="956" 
d="M896 172v-138q-76 -48 -198 -48q-159 0 -232 98q-72 -98 -219 -98q-92 0 -148.5 45.5t-56.5 124.5q0 97 67 137.5t192 40.5h107q-4 101 -126 101q-96 0 -202 -51v141q105 45 213 45q130 0 193 -80q75 84 204 84q103 0 165.5 -51t62.5 -137q0 -91 -61 -126t-195 -35h-118
q28 -104 160 -104q113 0 192 51zM686 445q-51 0 -92.5 -30.5t-52.5 -85.5h124q58 0 83 11.5t25 41.5q0 63 -87 63zM271 117q53 0 94 31.5t45 81.5h-114q-101 0 -101 -58q0 -28 21.5 -41.5t54.5 -13.5z" />
    <glyph glyph-name="uni04D6" unicode="&#x4d6;" horiz-adv-x="645" 
d="M90 0v700h500v-137h-342v-146h238v-132h-238v-148h342v-137h-500zM404 902h107q2 -14 2 -26q0 -67 -44 -101t-121 -34h-10q-77 0 -121 34t-44 101q0 12 2 26h107v-15q0 -63 61 -63t61 63v15z" />
    <glyph glyph-name="uni04D7" unicode="&#x4d7;" horiz-adv-x="620" 
d="M343 574q104 0 171.5 -51.5t67.5 -141.5q0 -89 -69.5 -127t-205.5 -38h-115q17 -50 59.5 -72.5t114.5 -22.5q118 0 194 51v-138q-84 -48 -212 -48q-141 0 -225.5 75t-84.5 219q0 135 85 214.5t220 79.5zM379 776h108q2 -14 2 -26q0 -66 -43.5 -100.5t-117.5 -34.5h-10
q-73 0 -117 34.5t-44 100.5q0 12 2 26h108v-15q0 -63 56 -63t56 63v15zM342 445q-59 0 -101.5 -31t-54.5 -89h144q57 0 82 12t25 41t-24 48t-71 19z" />
    <glyph glyph-name="uni04D8" unicode="&#x4d8;" horiz-adv-x="752" 
d="M348 -14q-131 0 -212 64.5t-81 167.5q0 202 267 202h218q-33 152 -206 152q-128 0 -246 -62v152q102 52 251 52q166 0 264.5 -97t98.5 -263q0 -164 -92 -266t-262 -102zM346 127q81 0 132 44t64 123h-222q-107 0 -107 -77q0 -41 37.5 -65.5t95.5 -24.5z" />
    <glyph glyph-name="uni04D9" unicode="&#x4d9;" horiz-adv-x="606" 
d="M268 440q-111 0 -202 -53v141q95 46 217 46q132 0 208.5 -79t76.5 -214t-76.5 -215t-215.5 -80q-106 0 -172 51.5t-66 133.5q0 171 235 171h147q-29 98 -152 98zM280 113q123 0 144 120h-155q-88 0 -88 -57q0 -31 27.5 -47t71.5 -16z" />
    <glyph glyph-name="uni04DA" unicode="&#x4da;" horiz-adv-x="752" 
d="M348 -14q-131 0 -212 64.5t-81 167.5q0 202 267 202h218q-33 152 -206 152q-128 0 -246 -62v152q102 52 251 52q166 0 264.5 -97t98.5 -263q0 -164 -92 -266t-262 -102zM346 127q81 0 132 44t64 123h-222q-107 0 -107 -77q0 -41 37.5 -65.5t95.5 -24.5zM168 822
q0 32 22 54t52 22q32 0 53.5 -22t21.5 -54t-21.5 -53.5t-53.5 -21.5q-30 0 -52 21.5t-22 53.5zM378 822q0 32 21.5 54t52.5 22q30 0 52 -22t22 -54t-22 -53.5t-52 -21.5q-31 0 -52.5 21.5t-21.5 53.5z" />
    <glyph glyph-name="uni04DB" unicode="&#x4db;" horiz-adv-x="606" 
d="M268 440q-111 0 -202 -53v141q95 46 217 46q132 0 208.5 -79t76.5 -214t-76.5 -215t-215.5 -80q-106 0 -172 51.5t-66 133.5q0 171 235 171h147q-29 98 -152 98zM280 113q123 0 144 120h-155q-88 0 -88 -57q0 -31 27.5 -47t71.5 -16zM184 617q-30 0 -52 21.5t-22 53.5
t22 54t52 22q32 0 53.5 -22t21.5 -54t-21.5 -53.5t-53.5 -21.5zM383 617q-31 0 -52.5 21.5t-21.5 53.5t21.5 54t52.5 22q30 0 52 -22t22 -54t-22 -53.5t-52 -21.5z" />
    <glyph glyph-name="uni04DC" unicode="&#x4dc;" horiz-adv-x="1064" 
d="M1049 0h-183l-159 289h-98v-289h-154v289h-98l-160 -289h-182l210 362l-204 338h175l160 -274h99v274h154v-274h99l160 274h175l-204 -337zM349 817q0 32 22 54t52 22q32 0 53.5 -22t21.5 -54t-21.5 -53.5t-53.5 -21.5q-30 0 -52 21.5t-22 53.5zM559 817q0 32 21.5 54
t52.5 22q30 0 52 -22t22 -54t-22 -53.5t-52 -21.5q-31 0 -52.5 21.5t-21.5 53.5z" />
    <glyph glyph-name="uni04DD" unicode="&#x4dd;" horiz-adv-x="913" 
d="M530 560v-220h59l138 220h166l-173 -269l178 -291h-170l-131 215h-67v-215h-147v215h-72l-126 -215h-170l178 291l-173 269h166l133 -220h64v220h147zM358 615q-30 0 -52 21.5t-22 53.5t22 54t52 22q32 0 53.5 -22t21.5 -54t-21.5 -53.5t-53.5 -21.5zM557 615
q-31 0 -52.5 21.5t-21.5 53.5t21.5 54t52.5 22q30 0 52 -22t22 -54t-22 -53.5t-52 -21.5z" />
    <glyph glyph-name="uni04DE" unicode="&#x4de;" horiz-adv-x="610" 
d="M60 30v161q41 -30 99 -48.5t117 -18.5q131 0 131 86t-140 86h-98v129h106q112 0 112 75q0 76 -109 76q-57 0 -115 -18t-99 -45v148q96 53 223 53q122 0 186.5 -50t64.5 -141q0 -118 -91 -157q113 -33 113 -161q0 -104 -71 -161.5t-207 -57.5t-222 44zM111 822q0 32 22 54
t52 22q32 0 53.5 -22t21.5 -54t-21.5 -53.5t-53.5 -21.5q-30 0 -52 21.5t-22 53.5zM321 822q0 32 21.5 54t52.5 22q30 0 52 -22t22 -54t-22 -53.5t-52 -21.5q-31 0 -52.5 21.5t-21.5 53.5z" />
    <glyph glyph-name="uni04DF" unicode="&#x4df;" horiz-adv-x="525" 
d="M50 27v136q81 -51 193 -51q53 0 75 15t22 46q0 32 -24.5 44.5t-79.5 12.5h-90v109h89q92 0 92 53q0 28 -21.5 41t-73.5 13q-91 0 -175 -47v134q87 41 202 41q104 0 160 -40.5t56 -120.5q0 -81 -70 -120q85 -34 85 -127q0 -86 -61 -133t-172 -47q-130 0 -207 41zM150 624
q-30 0 -52 21.5t-22 53.5t22 54t52 22q32 0 53.5 -22t21.5 -54t-21.5 -53.5t-53.5 -21.5zM349 624q-31 0 -52.5 21.5t-21.5 53.5t21.5 54t52.5 22q30 0 52 -22t22 -54t-22 -53.5t-52 -21.5z" />
    <glyph glyph-name="uni04E0" unicode="&#x4e0;" horiz-adv-x="648" 
d="M446 208q0 84 -144 84q-101 0 -132 -2v108l211 160h-312v142h501v-147l-203 -148q105 -2 168 -49.5t63 -142.5q0 -105 -73.5 -166t-208.5 -61q-163 0 -251 45v156q105 -63 241 -63q140 0 140 84z" />
    <glyph glyph-name="uni04E1" unicode="&#x4e1;" horiz-adv-x="567" 
d="M537 28q0 -113 -75.5 -177.5t-205.5 -64.5q-129 0 -220 38v152q107 -51 215 -51q142 0 142 99q0 50 -40 73t-126 23q-20 0 -66 -2t-56 -2v104l221 200h-288v140h463v-148l-199 -171q83 -2 138 -34t76 -77t21 -102z" />
    <glyph glyph-name="uni04E2" unicode="&#x4e2;" horiz-adv-x="790" 
d="M700 700v-700h-154v68q-64 -83 -199 -83q-124 0 -195.5 77.5t-71.5 224.5v413h159v-403q0 -82 39.5 -124.5t111.5 -42.5t111.5 42t39.5 123v405h159zM239 777v98h292v-98h-292z" />
    <glyph glyph-name="uni04E3" unicode="&#x4e3;" horiz-adv-x="693" 
d="M613 0h-151v25v32q-51 -67 -166 -67q-116 0 -173.5 71t-57.5 198v301h155v-289q0 -139 116 -139q122 0 122 143v285h155v-560zM199 641v98h280v-98h-280z" />
    <glyph glyph-name="uni04E4" unicode="&#x4e4;" horiz-adv-x="790" 
d="M700 700v-700h-154v68q-64 -83 -199 -83q-124 0 -195.5 77.5t-71.5 224.5v413h159v-403q0 -82 39.5 -124.5t111.5 -42.5t111.5 42t39.5 123v405h159zM211 817q0 32 22 54t52 22q32 0 53.5 -22t21.5 -54t-21.5 -53.5t-53.5 -21.5q-30 0 -52 21.5t-22 53.5zM421 817
q0 32 21.5 54t52.5 22q30 0 52 -22t22 -54t-22 -53.5t-52 -21.5q-31 0 -52.5 21.5t-21.5 53.5z" />
    <glyph glyph-name="uni04E5" unicode="&#x4e5;" horiz-adv-x="693" 
d="M613 0h-151v25v32q-51 -67 -166 -67q-116 0 -173.5 71t-57.5 198v301h155v-289q0 -139 116 -139q122 0 122 143v285h155v-560zM240 614q-30 0 -52 21.5t-22 53.5t22 54t52 22q32 0 53.5 -22t21.5 -54t-21.5 -53.5t-53.5 -21.5zM439 614q-31 0 -52.5 21.5t-21.5 53.5
t21.5 54t52.5 22q30 0 52 -22t22 -54t-22 -53.5t-52 -21.5z" />
    <glyph glyph-name="uni04E6" unicode="&#x4e6;" horiz-adv-x="860" 
d="M810 350q0 -167 -104 -265.5t-275 -98.5q-173 0 -277 98.5t-104 265.5t104 265.5t277 98.5q171 0 275 -98.5t104 -265.5zM646 350q0 106 -60.5 162.5t-155.5 56.5q-96 0 -156 -57t-60 -162t60 -162t156 -57q95 0 155.5 57.5t60.5 161.5zM461 822q0 32 21.5 54t52.5 22
q30 0 52 -22t22 -54t-22 -53.5t-52 -21.5q-31 0 -52.5 21.5t-21.5 53.5zM251 822q0 32 22 54t52 22q32 0 53.5 -22t21.5 -54t-21.5 -53.5t-53.5 -21.5q-30 0 -52 21.5t-22 53.5z" />
    <glyph glyph-name="uni04E7" unicode="&#x4e7;" horiz-adv-x="686" 
d="M648 282q0 -140 -87.5 -218t-217.5 -78q-131 0 -218 77t-87 218q0 138 87.5 215.5t217.5 77.5t217.5 -77t87.5 -215zM494 282q0 74 -43.5 113.5t-107.5 39.5t-107.5 -40.5t-43.5 -113.5t43 -114.5t108 -41.5q64 0 107.5 41.5t43.5 115.5zM439 624q-31 0 -52.5 21.5
t-21.5 53.5t21.5 54t52.5 22q30 0 52 -22t22 -54t-22 -53.5t-52 -21.5zM240 624q-30 0 -52 21.5t-22 53.5t22 54t52 22q32 0 53.5 -22t21.5 -54t-21.5 -53.5t-53.5 -21.5z" />
    <glyph glyph-name="uni04E8" unicode="&#x4e8;" horiz-adv-x="848" 
d="M798 350q0 -168 -101 -266t-272 -98q-172 0 -273.5 98t-101.5 266t101.5 266t273.5 98q171 0 272 -98t101 -266zM424 574q-83 0 -140 -41.5t-74 -120.5h427q-17 79 -74.5 120.5t-138.5 41.5zM424 126q81 0 138 41t75 120h-427q18 -79 74.5 -120t139.5 -41z" />
    <glyph glyph-name="uni04E9" unicode="&#x4e9;" horiz-adv-x="680" 
d="M642 282q0 -140 -86 -218t-216 -78q-131 0 -216.5 76.5t-85.5 218.5q0 139 86 216t216 77t216 -77t86 -215zM340 118q58 0 98.5 28t54.5 79h-309q29 -107 156 -107zM340 441q-60 0 -101 -27.5t-55 -78.5h310q-29 106 -154 106z" />
    <glyph glyph-name="uni04EA" unicode="&#x4ea;" horiz-adv-x="848" 
d="M798 350q0 -168 -101 -266t-272 -98q-172 0 -273.5 98t-101.5 266t101.5 266t273.5 98q171 0 272 -98t101 -266zM424 574q-83 0 -140 -41.5t-74 -120.5h427q-17 79 -74.5 120.5t-138.5 41.5zM424 126q81 0 138 41t75 120h-427q18 -79 74.5 -120t139.5 -41zM245 822
q0 32 22 54t52 22q32 0 53.5 -22t21.5 -54t-21.5 -53.5t-53.5 -21.5q-30 0 -52 21.5t-22 53.5zM455 822q0 32 21.5 54t52.5 22q30 0 52 -22t22 -54t-22 -53.5t-52 -21.5q-31 0 -52.5 21.5t-21.5 53.5z" />
    <glyph glyph-name="uni04EB" unicode="&#x4eb;" horiz-adv-x="680" 
d="M642 282q0 -140 -86 -218t-216 -78q-131 0 -216.5 76.5t-85.5 218.5q0 139 86 216t216 77t216 -77t86 -215zM340 118q58 0 98.5 28t54.5 79h-309q29 -107 156 -107zM340 441q-60 0 -101 -27.5t-55 -78.5h310q-29 106 -154 106zM240 624q-30 0 -52 21.5t-22 53.5t22 54
t52 22q32 0 53.5 -22t21.5 -54t-21.5 -53.5t-53.5 -21.5zM439 624q-31 0 -52.5 21.5t-21.5 53.5t21.5 54t52.5 22q30 0 52 -22t22 -54t-22 -53.5t-52 -21.5z" />
    <glyph glyph-name="uni04EC" unicode="&#x4ec;" horiz-adv-x="699" 
d="M63 513v153q86 48 213 48q166 0 267.5 -98.5t101.5 -264.5q0 -170 -95 -267.5t-277 -97.5q-125 0 -213 48v147q97 -53 199 -53q89 0 144.5 41.5t73.5 116.5h-283v129h282q-17 75 -73.5 116t-143.5 41q-107 0 -196 -59zM126 822q0 32 22 54t52 22q32 0 53.5 -22t21.5 -54
t-21.5 -53.5t-53.5 -21.5q-30 0 -52 21.5t-22 53.5zM336 822q0 32 21.5 54t52.5 22q30 0 52 -22t22 -54t-22 -53.5t-52 -21.5q-31 0 -52.5 21.5t-21.5 53.5z" />
    <glyph glyph-name="uni04ED" unicode="&#x4ed;" horiz-adv-x="569" 
d="M168 223v115h216q-16 50 -60 77t-108 27q-88 0 -165 -53v142q69 43 181 43q133 0 216 -78t83 -213t-79.5 -216t-217.5 -81q-113 0 -184 42v143q75 -53 173 -53q131 0 161 105h-216zM163 615q-30 0 -52 21.5t-22 53.5t22 54t52 22q32 0 53.5 -22t21.5 -54t-21.5 -53.5
t-53.5 -21.5zM362 615q-31 0 -52.5 21.5t-21.5 53.5t21.5 54t52.5 22q30 0 52 -22t22 -54t-22 -53.5t-52 -21.5z" />
    <glyph glyph-name="uni04EE" unicode="&#x4ee;" horiz-adv-x="729" 
d="M334 -15q-145 0 -245 45v164q111 -69 232 -69q90 0 135.5 37.5t45.5 106.5v1v41q-55 -58 -168 -58q-130 0 -199.5 69.5t-69.5 203.5v174h159v-169q0 -135 138 -135q62 0 98 33.5t36 103.5v167h158v-431q0 -284 -320 -284zM213 777v98h292v-98h-292z" />
    <glyph glyph-name="uni04EF" unicode="&#x4ef;" horiz-adv-x="682" 
d="M607 560v-513q0 -131 -81.5 -196t-212.5 -65q-136 0 -226 38v152q108 -51 217 -51q163 0 163 140v4v26q-47 -61 -156 -61q-246 0 -246 254v272h155v-266q0 -64 29 -91.5t86 -27.5q56 0 86.5 30.5t30.5 88.5v266h155zM194 641v98h280v-98h-280z" />
    <glyph glyph-name="uni04F0" unicode="&#x4f0;" horiz-adv-x="729" 
d="M334 -15q-145 0 -245 45v164q111 -69 232 -69q90 0 135.5 37.5t45.5 106.5v1v41q-55 -58 -168 -58q-130 0 -199.5 69.5t-69.5 203.5v174h159v-169q0 -135 138 -135q62 0 98 33.5t36 103.5v167h158v-431q0 -284 -320 -284zM180 817q0 32 22 54t52 22q32 0 53.5 -22
t21.5 -54t-21.5 -53.5t-53.5 -21.5q-30 0 -52 21.5t-22 53.5zM390 817q0 32 21.5 54t52.5 22q30 0 52 -22t22 -54t-22 -53.5t-52 -21.5q-31 0 -52.5 21.5t-21.5 53.5z" />
    <glyph glyph-name="uni04F1" unicode="&#x4f1;" horiz-adv-x="682" 
d="M607 560v-513q0 -131 -81.5 -196t-212.5 -65q-136 0 -226 38v152q108 -51 217 -51q163 0 163 140v4v26q-47 -61 -156 -61q-246 0 -246 254v272h155v-266q0 -64 29 -91.5t86 -27.5q56 0 86.5 30.5t30.5 88.5v266h155zM235 615q-30 0 -52 21.5t-22 53.5t22 54t52 22
q32 0 53.5 -22t21.5 -54t-21.5 -53.5t-53.5 -21.5zM434 615q-31 0 -52.5 21.5t-21.5 53.5t21.5 54t52.5 22q30 0 52 -22t22 -54t-22 -53.5t-52 -21.5z" />
    <glyph glyph-name="uni04F2" unicode="&#x4f2;" horiz-adv-x="729" 
d="M334 -15q-145 0 -245 45v164q111 -69 232 -69q90 0 135.5 37.5t45.5 106.5v1v41q-55 -58 -168 -58q-130 0 -199.5 69.5t-69.5 203.5v174h159v-169q0 -135 138 -135q62 0 98 33.5t36 103.5v167h158v-431q0 -284 -320 -284zM463 742h-106l145 141h150zM292 742h-99l101 141
h122z" />
    <glyph glyph-name="uni04F3" unicode="&#x4f3;" horiz-adv-x="682" 
d="M607 560v-513q0 -131 -81.5 -196t-212.5 -65q-136 0 -226 38v152q108 -51 217 -51q163 0 163 140v4v26q-47 -61 -156 -61q-246 0 -246 254v272h155v-266q0 -64 29 -91.5t86 -27.5q56 0 86.5 30.5t30.5 88.5v266h155zM447 611h-104l122 160h138zM288 611h-93l87 160h116z
" />
    <glyph glyph-name="uni04F4" unicode="&#x4f4;" horiz-adv-x="755" 
d="M506 0v262q-66 -56 -175 -56q-124 0 -195 69t-71 207v218h159v-206q0 -146 142 -146q140 0 140 147v205h159v-700h-159zM186 817q0 32 22 54t52 22q32 0 53.5 -22t21.5 -54t-21.5 -53.5t-53.5 -21.5q-30 0 -52 21.5t-22 53.5zM396 817q0 32 21.5 54t52.5 22q30 0 52 -22
t22 -54t-22 -53.5t-52 -21.5q-31 0 -52.5 21.5t-21.5 53.5z" />
    <glyph glyph-name="uni04F5" unicode="&#x4f5;" horiz-adv-x="654" 
d="M574 0h-155v148v55q-48 -45 -151 -45q-104 0 -163.5 63.5t-59.5 192.5v146h155v-141q0 -123 109 -123q110 0 110 124v140h155v-560zM214 615q-30 0 -52 21.5t-22 53.5t22 54t52 22q32 0 53.5 -22t21.5 -54t-21.5 -53.5t-53.5 -21.5zM413 615q-31 0 -52.5 21.5t-21.5 53.5
t21.5 54t52.5 22q30 0 52 -22t22 -54t-22 -53.5t-52 -21.5z" />
    <glyph glyph-name="uni04F6" unicode="&#x4f6;" horiz-adv-x="569" 
d="M90 700h449v-144h-290v-416h110v-300h-144v160h-125v700z" />
    <glyph glyph-name="uni04F7" unicode="&#x4f7;" horiz-adv-x="512" 
d="M477 560v-142h-242v-278h90v-280h-140v140h-105v560h397z" />
    <glyph glyph-name="uni04F8" unicode="&#x4f8;" horiz-adv-x="1015" 
d="M80 276v424h159v-150q0 -40 -1 -63q69 60 174 60q125 0 200 -76.5t75 -205.5q0 -132 -83 -211t-218 -79q-146 0 -226 79t-80 222zM766 0v700h159v-700h-159zM239 263q0 -68 41.5 -107.5t106.5 -39.5q61 0 101 40.5t40 106.5q0 68 -37.5 105.5t-103.5 37.5t-107 -39
t-41 -104zM324 811q0 32 22 54t52 22q32 0 53.5 -22t21.5 -54t-21.5 -53.5t-53.5 -21.5q-30 0 -52 21.5t-22 53.5zM534 811q0 32 21.5 54t52.5 22q30 0 52 -22t22 -54t-22 -53.5t-52 -21.5q-31 0 -52.5 21.5t-21.5 53.5z" />
    <glyph glyph-name="uni04F9" unicode="&#x4f9;" horiz-adv-x="870" 
d="M65 560h149v-89q0 -10 -2 -64q54 42 135 42q92 0 152.5 -62.5t60.5 -165.5q0 -106 -67 -172t-178 -66q-120 0 -185 65.5t-65 193.5v318zM790 0h-155v560h155v-560zM418 219q0 45 -28 73t-73 28q-46 0 -75.5 -27.5t-29.5 -74.5q0 -45 28.5 -73.5t74.5 -28.5t74.5 28.5
t28.5 74.5zM326 615q-30 0 -52 21.5t-22 53.5t22 54t52 22q32 0 53.5 -22t21.5 -54t-21.5 -53.5t-53.5 -21.5zM525 615q-31 0 -52.5 21.5t-21.5 53.5t21.5 54t52.5 22q30 0 52 -22t22 -54t-22 -53.5t-52 -21.5z" />
    <glyph glyph-name="uni0524" unicode="&#x524;" horiz-adv-x="844" 
d="M90 700h624v-560h110v-300h-144v160h-125v560h-306v-560h-159v700z" />
    <glyph glyph-name="uni0525" unicode="&#x525;" horiz-adv-x="736" 
d="M80 0v560h548v-420h90v-280h-140v140h-105v418h-238v-418h-155z" />
    <glyph glyph-name="uni1EA0" unicode="&#x1ea0;" horiz-adv-x="741" 
d="M230 157l-52 -157h-161l242 700h220l245 -700h-167l-51 157h-276zM369 579l-94 -285h186zM369 -202q-33 0 -56 23t-23 57t23.5 57.5t55.5 23.5q33 0 56 -23.5t23 -57.5t-23 -57t-56 -23z" />
    <glyph glyph-name="uni1EA1" unicode="&#x1ea1;" 
d="M80 384v142q99 44 219 44q131 0 191.5 -59.5t58.5 -182.5l-3 -160q-2 -50 46 -50q7 0 21 2v-115q-33 -15 -80 -15q-94 0 -119 72q-58 -72 -182 -72q-88 0 -139 43.5t-51 122.5q0 182 255 182h106q0 98 -117 98q-105 0 -206 -52zM324 -205q-32 0 -55.5 23.5t-23.5 56.5
q0 34 23.5 57.5t55.5 23.5q33 0 56 -23.5t23 -57.5t-23 -57t-56 -23zM273 117q56 0 93 30t37 85v2h-100q-106 0 -106 -62q0 -28 21.5 -41.5t54.5 -13.5z" />
    <glyph glyph-name="uni1EA2" unicode="&#x1ea2;" horiz-adv-x="741" 
d="M230 157l-52 -157h-161l242 700h220l245 -700h-167l-51 157h-276zM369 579l-94 -285h186zM318 740h86q0 14 5.5 22.5t24.5 21.5q34 23 34 62q0 37 -27.5 59t-75.5 22t-79 -16v-75q28 13 58 13q31 0 31 -18q0 -2 -0.5 -4t-2 -4t-3 -3.5t-4.5 -3.5t-5 -3.5t-6 -4t-7 -4.5
q-19 -12 -25 -25t-4 -39z" />
    <glyph glyph-name="uni1EA3" unicode="&#x1ea3;" 
d="M80 384v142q99 44 219 44q131 0 191.5 -59.5t58.5 -182.5l-3 -160q-2 -50 46 -50q7 0 21 2v-115q-33 -15 -80 -15q-94 0 -119 72q-58 -72 -182 -72q-88 0 -139 43.5t-51 122.5q0 182 255 182h106q0 98 -117 98q-105 0 -206 -52zM341 615h-90q-2 25 6 41.5t31 30.5
q17 10 22 14.5t5 12.5q0 19 -36 19q-32 0 -60 -14v79q32 16 78 16q52 0 82 -22.5t30 -66.5q0 -24 -9.5 -37.5t-29.5 -28.5q-18 -15 -24 -23.5t-5 -20.5zM273 117q56 0 93 30t37 85v2h-100q-106 0 -106 -62q0 -28 21.5 -41.5t54.5 -13.5z" />
    <glyph glyph-name="uni1EA4" unicode="&#x1ea4;" horiz-adv-x="741" 
d="M230 157l-52 -157h-161l242 700h220l245 -700h-167l-51 157h-276zM362 810l50 -63h131l-113 121h-137l-112 -121h130zM369 579l-94 -285h186zM484 832h87l118 152h-124z" />
    <glyph glyph-name="uni1EA5" unicode="&#x1ea5;" 
d="M80 384v142q99 44 219 44q131 0 191.5 -59.5t58.5 -182.5l-3 -160q-2 -50 46 -50q7 0 21 2v-115q-33 -15 -80 -15q-94 0 -119 72q-58 -72 -182 -72q-88 0 -139 43.5t-51 122.5q0 182 255 182h106q0 98 -117 98q-105 0 -206 -52zM343 615l-49 79l-50 -79h-126l111 149h132
l112 -149h-130zM273 117q56 0 93 30t37 85v2h-100q-106 0 -106 -62q0 -28 21.5 -41.5t54.5 -13.5zM496 728h-87l66 152h120z" />
    <glyph glyph-name="uni1EA6" unicode="&#x1ea6;" horiz-adv-x="741" 
d="M230 157l-52 -157h-161l242 700h220l245 -700h-167l-51 157h-276zM355 810l50 -63h131l-113 121h-137l-112 -121h130zM369 579l-94 -285h186zM379 973l131 -148h90l-92 148h-129z" />
    <glyph glyph-name="uni1EA7" unicode="&#x1ea7;" 
d="M80 384v142q99 44 219 44q131 0 191.5 -59.5t58.5 -182.5l-3 -160q-2 -50 46 -50q7 0 21 2v-115q-33 -15 -80 -15q-94 0 -119 72q-58 -72 -182 -72q-88 0 -139 43.5t-51 122.5q0 182 255 182h106q0 98 -117 98q-105 0 -206 -52zM331 615l-49 79l-50 -79h-126l111 149h132
l112 -149h-130zM273 117q56 0 93 30t37 85v2h-100q-106 0 -106 -62q0 -28 21.5 -41.5t54.5 -13.5zM423 726l-112 154h128l76 -154h-92z" />
    <glyph glyph-name="uni1EA8" unicode="&#x1ea8;" horiz-adv-x="741" 
d="M230 157l-52 -157h-161l242 700h220l245 -700h-167l-51 157h-276zM369 579l-94 -285h186zM356 808l50 -61h131l-117 116h-130l-116 -116h131zM489 816h77q0 15 4.5 23t19.5 20q33 26 33 57q0 36 -28 57.5t-74 21.5q-39 0 -71 -13v-72q28 11 54 11q31 0 31 -18
q0 -2 -0.5 -4t-1.5 -4t-2 -3l-3 -3t-4 -3t-5.5 -3.5t-5.5 -4.5q-19 -13 -23 -26.5t-1 -35.5z" />
    <glyph glyph-name="uni1EA9" unicode="&#x1ea9;" 
d="M80 384v142q99 44 219 44q131 0 191.5 -59.5t58.5 -182.5l-3 -160q-2 -50 46 -50q7 0 21 2v-115q-33 -15 -80 -15q-94 0 -119 72q-58 -72 -182 -72q-88 0 -139 43.5t-51 122.5q0 182 255 182h106q0 98 -117 98q-105 0 -206 -52zM339 615l-49 61l-50 -61h-130l113 126h136
l111 -126h-131zM485 712h-77q-4 42 28 65q16 10 20 13.5t4 11.5q0 17 -34 17q-22 0 -54 -13v71q33 14 73 14q46 0 73 -21t27 -56q0 -36 -36 -62q-15 -10 -20 -18t-4 -22zM273 117q56 0 93 30t37 85v2h-100q-106 0 -106 -62q0 -28 21.5 -41.5t54.5 -13.5z" />
    <glyph glyph-name="uni1EAA" unicode="&#x1eaa;" horiz-adv-x="741" 
d="M230 157l-52 -157h-161l242 700h220l245 -700h-167l-51 157h-276zM526 1003h-83q-3 -41 -27 -41q-10 0 -47 21.5t-68 21.5q-94 0 -103 -117h81q4 40 29 40q12 0 51 -22.5t71 -22.5q42 0 68 29.5t28 90.5zM369 579l-94 -285h186zM364 810l50 -63h134l-116 115h-138
l-115 -115h135z" />
    <glyph glyph-name="uni1EAB" unicode="&#x1eab;" 
d="M80 384v142q99 44 219 44q131 0 191.5 -59.5t58.5 -182.5l-3 -160q-2 -50 46 -50q7 0 21 2v-115q-33 -15 -80 -15q-94 0 -119 72q-58 -72 -182 -72q-88 0 -139 43.5t-51 122.5q0 182 255 182h106q0 98 -117 98q-105 0 -206 -52zM369 884h88q0 -126 -104 -126
q-29 0 -64.5 23t-44.5 23q-22 0 -25 -43h-85q0 62 28.5 92t74.5 30q30 0 65 -22.5t43 -22.5q23 0 24 46zM345 615l-50 67l-51 -67h-131l111 122h140l112 -122h-131zM273 117q56 0 93 30t37 85v2h-100q-106 0 -106 -62q0 -28 21.5 -41.5t54.5 -13.5z" />
    <glyph glyph-name="uni1EAC" unicode="&#x1eac;" horiz-adv-x="741" 
d="M230 157l-52 -157h-161l242 700h220l245 -700h-167l-51 157h-276zM369 833l71 -81h126l-140 146h-115l-138 -146h125zM369 579l-94 -285h186zM369 -202q33 0 56 23t23 57t-23 57.5t-56 23.5q-32 0 -55.5 -23.5t-23.5 -57.5t23 -57t56 -23z" />
    <glyph glyph-name="uni1EAD" unicode="&#x1ead;" 
d="M80 384v142q99 44 219 44q131 0 191.5 -59.5t58.5 -182.5l-3 -160q-2 -50 46 -50q7 0 21 2v-115q-33 -15 -80 -15q-94 0 -119 72q-58 -72 -182 -72q-88 0 -139 43.5t-51 122.5q0 182 255 182h106q0 98 -117 98q-105 0 -206 -52zM346 618l-58 92l-63 -92h-119l125 162h113
l125 -162h-123zM324 -205q-32 0 -55.5 23.5t-23.5 56.5q0 34 23.5 57.5t55.5 23.5q33 0 56 -23.5t23 -57.5t-23 -57t-56 -23zM273 117q56 0 93 30t37 85v2h-100q-106 0 -106 -62q0 -28 21.5 -41.5t54.5 -13.5z" />
    <glyph glyph-name="uni1EAE" unicode="&#x1eae;" horiz-adv-x="741" 
d="M230 157l-52 -157h-161l242 700h220l245 -700h-167l-51 157h-276zM371 740q74 0 119.5 34t50.5 99h-94q-17 -55 -75 -55q-60 0 -77 55h-94q5 -65 50.5 -99t119.5 -34zM369 579l-94 -285h186zM314 890h108l145 115h-144z" />
    <glyph glyph-name="uni1EAF" unicode="&#x1eaf;" 
d="M80 384v142q99 44 219 44q131 0 191.5 -59.5t58.5 -182.5l-3 -160q-2 -50 46 -50q7 0 21 2v-115q-33 -15 -80 -15q-94 0 -119 72q-58 -72 -182 -72q-88 0 -139 43.5t-51 122.5q0 182 255 182h106q0 98 -117 98q-105 0 -206 -52zM298 607q-74 0 -120 36t-51 101h94
q15 -55 78 -55q61 0 76 55h94q-5 -65 -51 -101t-120 -36zM273 117q56 0 93 30t37 85v2h-100q-106 0 -106 -62q0 -28 21.5 -41.5t54.5 -13.5zM341 754h-99l98 144h144z" />
    <glyph glyph-name="uni1EB0" unicode="&#x1eb0;" horiz-adv-x="741" 
d="M230 157l-52 -157h-161l242 700h220l245 -700h-167l-51 157h-276zM363 740q74 0 119.5 34t50.5 99h-94q-16 -55 -75 -55q-60 0 -77 55h-94q5 -65 50.5 -99t119.5 -34zM369 579l-94 -285h186zM163 1005l155 -115h109l-117 115h-147z" />
    <glyph glyph-name="uni1EB1" unicode="&#x1eb1;" 
d="M80 384v142q99 44 219 44q131 0 191.5 -59.5t58.5 -182.5l-3 -160q-2 -50 46 -50q7 0 21 2v-115q-33 -15 -80 -15q-94 0 -119 72q-58 -72 -182 -72q-88 0 -139 43.5t-51 122.5q0 182 255 182h106q0 98 -117 98q-105 0 -206 -52zM304 607q-74 0 -120 36t-51 101h94
q15 -55 78 -55q61 0 76 55h94q-5 -65 -51 -101t-120 -36zM273 117q56 0 93 30t37 85v2h-100q-106 0 -106 -62q0 -28 21.5 -41.5t54.5 -13.5zM263 754l-144 144h144l99 -144h-99z" />
    <glyph glyph-name="uni1EB2" unicode="&#x1eb2;" horiz-adv-x="741" 
d="M230 157l-52 -157h-161l242 700h220l245 -700h-167l-51 157h-276zM371 735q74 0 120 36t51 101h-93q-17 -55 -77 -55q-63 0 -80 55h-92q5 -65 51 -101t120 -36zM369 579l-94 -285h186zM327 873h75q-1 13 4 19.5t22 17.5q34 23 34 59q0 33 -27.5 55t-72.5 22
q-41 0 -71 -14v-68q28 11 54 11q33 0 33 -18q0 -10 -22 -24q-19 -12 -25.5 -23.5t-3.5 -36.5z" />
    <glyph glyph-name="uni1EB3" unicode="&#x1eb3;" 
d="M80 384v142q99 44 219 44q131 0 191.5 -59.5t58.5 -182.5l-3 -160q-2 -50 46 -50q7 0 21 2v-115q-33 -15 -80 -15q-94 0 -119 72q-58 -72 -182 -72q-88 0 -139 43.5t-51 122.5q0 182 255 182h106q0 98 -117 98q-105 0 -206 -52zM300 607q-74 0 -120 36t-51 101h94
q15 -55 78 -55q61 0 76 55h94q-5 -65 -51 -101t-120 -36zM334 747h-77q-3 41 28 62q24 15 24 27q0 18 -34 18q-22 0 -54 -13v71q33 14 73 14q46 0 73 -21t27 -56t-36 -62q-14 -11 -18.5 -18.5t-5.5 -21.5zM273 117q56 0 93 30t37 85v2h-100q-106 0 -106 -62
q0 -28 21.5 -41.5t54.5 -13.5z" />
    <glyph glyph-name="uni1EB4" unicode="&#x1eb4;" horiz-adv-x="741" 
d="M230 157l-52 -157h-161l242 700h220l245 -700h-167l-51 157h-276zM553 1018h-90q-5 -45 -29 -45q-9 0 -47.5 24.5t-70.5 24.5q-49 0 -79 -29t-32 -91h88q5 44 30 44q9 0 49 -24.5t76 -24.5q45 0 74.5 30.5t30.5 90.5zM372 740q72 0 114 33t47 95h-93q-13 -51 -65 -51
q-58 0 -71 51h-93q5 -61 48 -94.5t113 -33.5zM369 579l-94 -285h186z" />
    <glyph glyph-name="uni1EB5" unicode="&#x1eb5;" 
d="M80 384v142q99 44 219 44q131 0 191.5 -59.5t58.5 -182.5l-3 -160q-2 -50 46 -50q7 0 21 2v-115q-33 -15 -80 -15q-94 0 -119 72q-58 -72 -182 -72q-88 0 -139 43.5t-51 122.5q0 182 255 182h106q0 98 -117 98q-105 0 -206 -52zM373 889h88q0 -126 -104 -126
q-29 0 -64.5 23t-44.5 23q-22 0 -25 -43h-85q0 62 28.5 92t74.5 30q30 0 65 -22.5t43 -22.5q23 0 24 46zM300 607q-71 0 -113.5 35.5t-47.5 96.5h94q17 -50 68 -50q49 0 65 50h94q-5 -61 -47 -96.5t-113 -35.5zM273 117q56 0 93 30t37 85v2h-100q-106 0 -106 -62
q0 -28 21.5 -41.5t54.5 -13.5z" />
    <glyph glyph-name="uni1EB6" unicode="&#x1eb6;" horiz-adv-x="741" 
d="M230 157l-52 -157h-161l242 700h220l245 -700h-167l-51 157h-276zM368 744q70 0 113 35.5t48 103.5h-95q-13 -55 -66 -55t-66 55h-95q5 -68 48 -103.5t113 -35.5zM369 579l-94 -285h186zM369 -202q33 0 56 23t23 57t-23 57.5t-56 23.5q-32 0 -55.5 -23.5t-23.5 -57.5
t23 -57t56 -23z" />
    <glyph glyph-name="uni1EB7" unicode="&#x1eb7;" 
d="M80 384v142q99 44 219 44q131 0 191.5 -59.5t58.5 -182.5l-3 -160q-2 -50 46 -50q7 0 21 2v-115q-33 -15 -80 -15q-94 0 -119 72q-58 -72 -182 -72q-88 0 -139 43.5t-51 122.5q0 182 255 182h106q0 98 -117 98q-105 0 -206 -52zM297 618q-70 0 -113 37t-48 105h97
q16 -55 65 -55q47 0 63 55h97q-5 -68 -48 -105t-113 -37zM324 -205q-32 0 -55.5 23.5t-23.5 56.5q0 34 23.5 57.5t55.5 23.5q33 0 56 -23.5t23 -57.5t-23 -57t-56 -23zM273 117q56 0 93 30t37 85v2h-100q-106 0 -106 -62q0 -28 21.5 -41.5t54.5 -13.5z" />
    <glyph glyph-name="uni1EB8" unicode="&#x1eb8;" horiz-adv-x="645" 
d="M90 0v700h500v-137h-342v-146h238v-132h-238v-148h342v-137h-500zM349 -204q-33 0 -56 23t-23 57t23.5 57.5t55.5 23.5q33 0 56 -23.5t23 -57.5t-23 -57t-56 -23z" />
    <glyph glyph-name="uni1EB9" unicode="&#x1eb9;" horiz-adv-x="620" 
d="M343 574q104 0 171.5 -51.5t67.5 -141.5q0 -89 -69.5 -127t-205.5 -38h-115q17 -50 59.5 -72.5t114.5 -22.5q118 0 194 51v-138q-84 -48 -212 -48q-141 0 -225.5 75t-84.5 219q0 135 85 214.5t220 79.5zM342 445q-59 0 -101.5 -31t-54.5 -89h144q57 0 82 12t25 41t-24 48
t-71 19zM340 -211q-32 0 -55.5 23.5t-23.5 56.5q0 34 23.5 57.5t55.5 23.5q33 0 56 -23.5t23 -57.5t-23 -57t-56 -23z" />
    <glyph glyph-name="uni1EBA" unicode="&#x1eba;" horiz-adv-x="645" 
d="M90 0v700h500v-137h-342v-146h238v-132h-238v-148h342v-137h-500zM375 740h-86q-2 26 4 39t25 25q3 2 7 4.5t6 4t5 3.5t4.5 3.5t3 3.5t2 4t0.5 4q0 18 -31 18q-30 0 -58 -13v75q31 16 79 16t75.5 -22t27.5 -59q0 -39 -34 -62q-19 -13 -24.5 -21.5t-5.5 -22.5z" />
    <glyph glyph-name="uni1EBB" unicode="&#x1ebb;" horiz-adv-x="620" 
d="M343 574q104 0 171.5 -51.5t67.5 -141.5q0 -89 -69.5 -127t-205.5 -38h-115q17 -50 59.5 -72.5t114.5 -22.5q118 0 194 51v-138q-84 -48 -212 -48q-141 0 -225.5 75t-84.5 219q0 135 85 214.5t220 79.5zM366 615h-90q-2 25 6 41.5t31 30.5q17 10 22 14.5t5 12.5
q0 19 -36 19q-32 0 -60 -14v79q32 16 78 16q52 0 82 -22.5t30 -66.5q0 -24 -9.5 -37.5t-29.5 -28.5q-18 -15 -24 -23.5t-5 -20.5zM342 445q-59 0 -101.5 -31t-54.5 -89h144q57 0 82 12t25 41t-24 48t-71 19z" />
    <glyph glyph-name="uni1EBC" unicode="&#x1ebc;" horiz-adv-x="645" 
d="M90 0v700h500v-137h-342v-146h238v-132h-238v-148h342v-137h-500zM433 889h88q-3 -65 -33.5 -99.5t-80.5 -34.5q-37 0 -76 33q-24 22 -39 22q-28 0 -33 -49h-86q11 133 111 133q38 0 77 -32q27 -23 40 -23q27 0 32 50z" />
    <glyph glyph-name="uni1EBD" unicode="&#x1ebd;" horiz-adv-x="620" 
d="M343 574q104 0 171.5 -51.5t67.5 -141.5q0 -89 -69.5 -127t-205.5 -38h-115q17 -50 59.5 -72.5t114.5 -22.5q118 0 194 51v-138q-84 -48 -212 -48q-141 0 -225.5 75t-84.5 219q0 135 85 214.5t220 79.5zM414 767h88q-3 -66 -34 -105.5t-80 -39.5q-35 0 -70 28
q-3 3 -13 12.5t-17 13.5t-15 4q-27 0 -33 -52h-86q6 70 35 107t75 37q36 0 77 -34q3 -3 8 -7t8 -7t7 -5.5t8.5 -4t9.5 -1.5q27 0 32 54zM342 445q-59 0 -101.5 -31t-54.5 -89h144q57 0 82 12t25 41t-24 48t-71 19z" />
    <glyph glyph-name="uni1EBE" unicode="&#x1ebe;" horiz-adv-x="645" 
d="M90 0v700h500v-137h-342v-146h238v-132h-238v-148h342v-137h-500zM398 747l-50 63l-51 -63h-130l112 121h137l113 -121h-131zM557 832h-87l81 152h124z" />
    <glyph glyph-name="uni1EBF" unicode="&#x1ebf;" horiz-adv-x="620" 
d="M343 574q104 0 171.5 -51.5t67.5 -141.5q0 -89 -69.5 -127t-205.5 -38h-115q17 -50 59.5 -72.5t114.5 -22.5q118 0 194 51v-138q-84 -48 -212 -48q-141 0 -225.5 75t-84.5 219q0 135 85 214.5t220 79.5zM372 615l-49 79l-50 -79h-126l111 149h132l112 -149h-130zM342 445
q-59 0 -101.5 -31t-54.5 -89h144q57 0 82 12t25 41t-24 48t-71 19zM525 728h-87l66 152h120z" />
    <glyph glyph-name="uni1EC0" unicode="&#x1ec0;" horiz-adv-x="645" 
d="M90 0v700h500v-137h-342v-146h238v-132h-238v-148h342v-137h-500zM395 747l-50 63l-51 -63h-130l112 121h137l113 -121h-131zM500 825l-131 148h129l92 -148h-90z" />
    <glyph glyph-name="uni1EC1" unicode="&#x1ec1;" horiz-adv-x="620" 
d="M343 574q104 0 171.5 -51.5t67.5 -141.5q0 -89 -69.5 -127t-205.5 -38h-115q17 -50 59.5 -72.5t114.5 -22.5q118 0 194 51v-138q-84 -48 -212 -48q-141 0 -225.5 75t-84.5 219q0 135 85 214.5t220 79.5zM367 615l-49 79l-50 -79h-126l111 149h132l112 -149h-130zM342 445
q-59 0 -101.5 -31t-54.5 -89h144q57 0 82 12t25 41t-24 48t-71 19zM459 726l-112 154h128l76 -154h-92z" />
    <glyph glyph-name="uni1EC2" unicode="&#x1ec2;" horiz-adv-x="645" 
d="M90 0v700h500v-137h-342v-146h238v-132h-238v-148h342v-137h-500zM388 747l-50 61l-51 -61h-131l116 116h130l117 -116h-131zM548 816h-77q-3 22 1 35.5t23 26.5q2 2 5.5 4.5t5.5 3.5t4 3l3 3t2 3t1.5 4t0.5 4q0 18 -31 18q-26 0 -54 -11v72q32 13 71 13q46 0 74 -21.5
t28 -57.5q0 -31 -33 -57q-15 -12 -19.5 -20t-4.5 -23z" />
    <glyph glyph-name="uni1EC3" unicode="&#x1ec3;" horiz-adv-x="620" 
d="M343 574q104 0 171.5 -51.5t67.5 -141.5q0 -89 -69.5 -127t-205.5 -38h-115q17 -50 59.5 -72.5t114.5 -22.5q118 0 194 51v-138q-84 -48 -212 -48q-141 0 -225.5 75t-84.5 219q0 135 85 214.5t220 79.5zM372 615l-49 61l-50 -61h-130l113 126h136l111 -126h-131zM342 445
q-59 0 -101.5 -31t-54.5 -89h144q57 0 82 12t25 41t-24 48t-71 19zM518 712h-77q-4 42 28 65q16 10 20 13.5t4 11.5q0 17 -34 17q-22 0 -54 -13v71q33 14 73 14q46 0 73 -21t27 -56q0 -36 -36 -62q-15 -10 -20 -18t-4 -22z" />
    <glyph glyph-name="uni1EC4" unicode="&#x1ec4;" horiz-adv-x="645" 
d="M90 0v700h500v-137h-342v-146h238v-132h-238v-148h342v-137h-500zM418 1003h83q-2 -61 -28 -90.5t-68 -29.5q-33 0 -72 22.5t-50 22.5q-25 0 -29 -40h-81q9 117 103 117q31 0 68 -21.5t47 -21.5q24 0 27 41zM389 747l-50 63l-50 -63h-135l115 115h138l116 -115h-134z" />
    <glyph glyph-name="uni1EC5" unicode="&#x1ec5;" horiz-adv-x="620" 
d="M343 574q104 0 171.5 -51.5t67.5 -141.5q0 -89 -69.5 -127t-205.5 -38h-115q17 -50 59.5 -72.5t114.5 -22.5q118 0 194 51v-138q-84 -48 -212 -48q-141 0 -225.5 75t-84.5 219q0 135 85 214.5t220 79.5zM406 884h88q0 -126 -104 -126q-29 0 -64.5 23t-44.5 23
q-22 0 -25 -43h-85q0 62 28.5 92t74.5 30q30 0 65 -22.5t43 -22.5q23 0 24 46zM382 615l-50 67l-51 -67h-131l111 122h140l112 -122h-131zM342 445q-59 0 -101.5 -31t-54.5 -89h144q57 0 82 12t25 41t-24 48t-71 19z" />
    <glyph glyph-name="uni1EC6" unicode="&#x1ec6;" horiz-adv-x="645" 
d="M90 0v700h500v-137h-342v-146h238v-132h-238v-148h342v-137h-500zM414 752l-71 81l-71 -81h-125l138 146h115l140 -146h-126zM349 -204q-33 0 -56 23t-23 57t23.5 57.5t55.5 23.5q33 0 56 -23.5t23 -57.5t-23 -57t-56 -23z" />
    <glyph glyph-name="uni1EC7" unicode="&#x1ec7;" horiz-adv-x="620" 
d="M343 574q104 0 171.5 -51.5t67.5 -141.5q0 -89 -69.5 -127t-205.5 -38h-115q17 -50 59.5 -72.5t114.5 -22.5q118 0 194 51v-138q-84 -48 -212 -48q-141 0 -225.5 75t-84.5 219q0 135 85 214.5t220 79.5zM387 618l-58 92l-63 -92h-119l125 162h113l125 -162h-123zM342 445
q-59 0 -101.5 -31t-54.5 -89h144q57 0 82 12t25 41t-24 48t-71 19zM340 -211q-32 0 -55.5 23.5t-23.5 56.5q0 34 23.5 57.5t55.5 23.5q33 0 56 -23.5t23 -57.5t-23 -57t-56 -23z" />
    <glyph glyph-name="uni1EC8" unicode="&#x1ec8;" horiz-adv-x="339" 
d="M90 0v700h159v-700h-159zM201 748h-86q-2 26 4 39t25 25q3 2 7 4.5t6 4t5 3.5t4.5 3.5t3 3.5t2 4t0.5 4q0 18 -31 18q-30 0 -58 -13v75q31 16 79 16t75.5 -22t27.5 -59q0 -39 -34 -62q-19 -13 -24.5 -21.5t-5.5 -22.5z" />
    <glyph glyph-name="uni1EC9" unicode="&#x1ec9;" horiz-adv-x="315" 
d="M80 0v560h155v-560h-155zM187 615h-90q-2 25 6 41.5t31 30.5q17 10 22 14.5t5 12.5q0 19 -36 19q-32 0 -60 -14v79q32 16 78 16q52 0 82 -22.5t30 -66.5q0 -24 -9.5 -37.5t-29.5 -28.5q-18 -15 -24 -23.5t-5 -20.5z" />
    <glyph glyph-name="uni1ECA" unicode="&#x1eca;" horiz-adv-x="289" 
d="M40 0v700h159v-700h-159zM120 -204q-32 0 -55.5 23t-23.5 57t23.5 57.5t55.5 23.5q33 0 56 -23.5t23 -57.5t-23 -57t-56 -23z" />
    <glyph glyph-name="uni1ECB" unicode="&#x1ecb;" horiz-adv-x="315" 
d="M156 617q-37 0 -62 22.5t-25 61.5t25 61.5t62 22.5t62.5 -22.5t25.5 -61.5t-25.5 -61.5t-62.5 -22.5zM80 0v560h155v-560h-155zM157 -205q-33 0 -56 23.5t-23 56.5q0 34 23.5 57.5t55.5 23.5q33 0 56 -23.5t23 -57.5t-23 -57t-56 -23z" />
    <glyph glyph-name="uni1ECC" unicode="&#x1ecc;" horiz-adv-x="860" 
d="M810 350q0 -167 -104 -265.5t-275 -98.5q-173 0 -277 98.5t-104 265.5t104 265.5t277 98.5q171 0 275 -98.5t104 -265.5zM646 350q0 106 -60.5 162.5t-155.5 56.5q-96 0 -156 -57t-60 -162t60 -162t156 -57q95 0 155.5 57.5t60.5 161.5zM432 -207q-32 0 -55.5 23.5
t-23.5 56.5q0 34 23.5 57.5t55.5 23.5q33 0 56 -23.5t23 -57.5t-23 -57t-56 -23z" />
    <glyph glyph-name="uni1ECD" unicode="&#x1ecd;" horiz-adv-x="686" 
d="M648 282q0 -140 -87.5 -218t-217.5 -78q-131 0 -218 77t-87 218q0 138 87.5 215.5t217.5 77.5t217.5 -77t87.5 -215zM494 282q0 74 -43.5 113.5t-107.5 39.5t-107.5 -40.5t-43.5 -113.5t43 -114.5t108 -41.5q64 0 107.5 41.5t43.5 115.5zM343 -211q-33 0 -56 23.5
t-23 56.5q0 34 23.5 57.5t55.5 23.5q33 0 56 -23.5t23 -57.5t-23 -57t-56 -23z" />
    <glyph glyph-name="uni1ECE" unicode="&#x1ece;" horiz-adv-x="860" 
d="M810 350q0 -167 -104 -265.5t-275 -98.5q-173 0 -277 98.5t-104 265.5t104 265.5t277 98.5q171 0 275 -98.5t104 -265.5zM646 350q0 106 -60.5 162.5t-155.5 56.5q-96 0 -156 -57t-60 -162t60 -162t156 -57q95 0 155.5 57.5t60.5 161.5zM477 747h-86q-2 26 4 39t25 25
q3 2 7 4.5t6 4t5 3.5t4.5 3.5t3 3.5t2 4t0.5 4q0 18 -31 18q-30 0 -58 -13v75q31 16 79 16t75.5 -22t27.5 -59q0 -39 -34 -62q-19 -13 -24.5 -21.5t-5.5 -22.5z" />
    <glyph glyph-name="uni1ECF" unicode="&#x1ecf;" horiz-adv-x="686" 
d="M648 282q0 -140 -87.5 -218t-217.5 -78q-131 0 -218 77t-87 218q0 138 87.5 215.5t217.5 77.5t217.5 -77t87.5 -215zM494 282q0 74 -43.5 113.5t-107.5 39.5t-107.5 -40.5t-43.5 -113.5t43 -114.5t108 -41.5q64 0 107.5 41.5t43.5 115.5zM382 615h-90q-2 25 6 41.5
t31 30.5q17 10 22 14.5t5 12.5q0 19 -36 19q-32 0 -60 -14v79q32 16 78 16q52 0 82 -22.5t30 -66.5q0 -24 -9.5 -37.5t-29.5 -28.5q-18 -15 -24 -23.5t-5 -20.5z" />
    <glyph glyph-name="uni1ED0" unicode="&#x1ed0;" horiz-adv-x="860" 
d="M810 350q0 -167 -104 -265.5t-275 -98.5q-173 0 -277 98.5t-104 265.5t104 265.5t277 98.5q171 0 275 -98.5t104 -265.5zM646 350q0 106 -60.5 162.5t-155.5 56.5q-96 0 -156 -57t-60 -162t60 -162t156 -57q95 0 155.5 57.5t60.5 161.5zM476 747l-50 63l-51 -63h-130
l112 121h137l113 -121h-131zM635 832h-87l81 152h124z" />
    <glyph glyph-name="uni1ED1" unicode="&#x1ed1;" horiz-adv-x="686" 
d="M648 282q0 -140 -87.5 -218t-217.5 -78q-131 0 -218 77t-87 218q0 138 87.5 215.5t217.5 77.5t217.5 -77t87.5 -215zM494 282q0 74 -43.5 113.5t-107.5 39.5t-107.5 -40.5t-43.5 -113.5t43 -114.5t108 -41.5q64 0 107.5 41.5t43.5 115.5zM382 615l-49 79l-50 -79h-126
l111 149h132l112 -149h-130zM535 728h-87l66 152h120z" />
    <glyph glyph-name="uni1ED2" unicode="&#x1ed2;" horiz-adv-x="860" 
d="M810 350q0 -167 -104 -265.5t-275 -98.5q-173 0 -277 98.5t-104 265.5t104 265.5t277 98.5q171 0 275 -98.5t104 -265.5zM646 350q0 106 -60.5 162.5t-155.5 56.5q-96 0 -156 -57t-60 -162t60 -162t156 -57q95 0 155.5 57.5t60.5 161.5zM475 747l-50 63l-51 -63h-130
l112 121h137l113 -121h-131zM580 825l-131 148h129l92 -148h-90z" />
    <glyph glyph-name="uni1ED3" unicode="&#x1ed3;" horiz-adv-x="686" 
d="M648 282q0 -140 -87.5 -218t-217.5 -78q-131 0 -218 77t-87 218q0 138 87.5 215.5t217.5 77.5t217.5 -77t87.5 -215zM494 282q0 74 -43.5 113.5t-107.5 39.5t-107.5 -40.5t-43.5 -113.5t43 -114.5t108 -41.5q64 0 107.5 41.5t43.5 115.5zM381 615l-49 79l-50 -79h-126
l111 149h132l112 -149h-130zM473 726l-112 154h128l76 -154h-92z" />
    <glyph glyph-name="uni1ED4" unicode="&#x1ed4;" horiz-adv-x="860" 
d="M810 350q0 -167 -104 -265.5t-275 -98.5q-173 0 -277 98.5t-104 265.5t104 265.5t277 98.5q171 0 275 -98.5t104 -265.5zM646 350q0 106 -60.5 162.5t-155.5 56.5q-96 0 -156 -57t-60 -162t60 -162t156 -57q95 0 155.5 57.5t60.5 161.5zM482 747l-50 61l-51 -61h-131
l116 116h130l117 -116h-131zM642 816h-77q-3 22 1 35.5t23 26.5q2 2 5.5 4.5t5.5 3.5t4 3l3 3t2 3t1.5 4t0.5 4q0 18 -31 18q-26 0 -54 -11v72q32 13 71 13q46 0 74 -21.5t28 -57.5q0 -31 -33 -57q-15 -12 -19.5 -20t-4.5 -23z" />
    <glyph glyph-name="uni1ED5" unicode="&#x1ed5;" horiz-adv-x="686" 
d="M648 282q0 -140 -87.5 -218t-217.5 -78q-131 0 -218 77t-87 218q0 138 87.5 215.5t217.5 77.5t217.5 -77t87.5 -215zM494 282q0 74 -43.5 113.5t-107.5 39.5t-107.5 -40.5t-43.5 -113.5t43 -114.5t108 -41.5q64 0 107.5 41.5t43.5 115.5zM391 615l-49 61l-50 -61h-130
l113 126h136l111 -126h-131zM537 712h-77q-4 42 28 65q16 10 20 13.5t4 11.5q0 17 -34 17q-22 0 -54 -13v71q33 14 73 14q46 0 73 -21t27 -56q0 -36 -36 -62q-15 -10 -20 -18t-4 -22z" />
    <glyph glyph-name="uni1ED6" unicode="&#x1ed6;" horiz-adv-x="860" 
d="M810 350q0 -167 -104 -265.5t-275 -98.5q-173 0 -277 98.5t-104 265.5t104 265.5t277 98.5q171 0 275 -98.5t104 -265.5zM646 350q0 106 -60.5 162.5t-155.5 56.5q-96 0 -156 -57t-60 -162t60 -162t156 -57q95 0 155.5 57.5t60.5 161.5zM510 1003h83q-2 -61 -28 -90.5
t-68 -29.5q-33 0 -72 22.5t-50 22.5q-25 0 -29 -40h-81q9 117 103 117q31 0 68 -21.5t47 -21.5q24 0 27 41zM481 747l-50 63l-50 -63h-135l115 115h138l116 -115h-134z" />
    <glyph glyph-name="uni1ED7" unicode="&#x1ed7;" horiz-adv-x="686" 
d="M648 282q0 -140 -87.5 -218t-217.5 -78q-131 0 -218 77t-87 218q0 138 87.5 215.5t217.5 77.5t217.5 -77t87.5 -215zM494 282q0 74 -43.5 113.5t-107.5 39.5t-107.5 -40.5t-43.5 -113.5t43 -114.5t108 -41.5q64 0 107.5 41.5t43.5 115.5zM416 884h88q0 -126 -104 -126
q-29 0 -64.5 23t-44.5 23q-22 0 -25 -43h-85q0 62 28.5 92t74.5 30q30 0 65 -22.5t43 -22.5q23 0 24 46zM392 615l-50 67l-51 -67h-131l111 122h140l112 -122h-131z" />
    <glyph glyph-name="uni1ED8" unicode="&#x1ed8;" horiz-adv-x="860" 
d="M810 350q0 -167 -104 -265.5t-275 -98.5q-173 0 -277 98.5t-104 265.5t104 265.5t277 98.5q171 0 275 -98.5t104 -265.5zM646 350q0 106 -60.5 162.5t-155.5 56.5q-96 0 -156 -57t-60 -162t60 -162t156 -57q95 0 155.5 57.5t60.5 161.5zM501 747l-71 81l-71 -81h-125
l138 146h115l140 -146h-126zM432 -207q-32 0 -55.5 23.5t-23.5 56.5q0 34 23.5 57.5t55.5 23.5q33 0 56 -23.5t23 -57.5t-23 -57t-56 -23z" />
    <glyph glyph-name="uni1ED9" unicode="&#x1ed9;" horiz-adv-x="686" 
d="M648 282q0 -140 -87.5 -218t-217.5 -78q-131 0 -218 77t-87 218q0 138 87.5 215.5t217.5 77.5t217.5 -77t87.5 -215zM494 282q0 74 -43.5 113.5t-107.5 39.5t-107.5 -40.5t-43.5 -113.5t43 -114.5t108 -41.5q64 0 107.5 41.5t43.5 115.5zM400 618l-58 92l-63 -92h-119
l125 162h113l125 -162h-123zM344 -211q-32 0 -55.5 23.5t-23.5 56.5q0 34 23.5 57.5t55.5 23.5q33 0 56 -23.5t23 -57.5t-23 -57t-56 -23z" />
    <glyph glyph-name="uni1EDA" unicode="&#x1eda;" horiz-adv-x="869" 
d="M859 708q0 -115 -118 -133q69 -90 69 -225q0 -167 -104 -265.5t-275 -98.5q-173 0 -277 98.5t-104 265.5t104 265.5t277 98.5q66 0 153 -25q65 -19 98 -19q54 0 54 51q0 31 -18 77h121q20 -42 20 -90zM646 350q0 106 -60.5 162.5t-155.5 56.5q-96 0 -156 -57t-60 -162
t60 -162t156 -57q95 0 155.5 57.5t60.5 161.5zM472 754h-142l158 141h178z" />
    <glyph glyph-name="uni1EDB" unicode="&#x1edb;" horiz-adv-x="697" 
d="M685 573q0 -89 -95 -109q58 -76 58 -182q0 -140 -87.5 -218t-217.5 -78q-131 0 -218 77t-87 218q0 138 87.5 215.5t217.5 77.5q50 0 106 -14q62 -16 76 -16q42 0 42 41q0 38 -17 77h115q20 -36 20 -89zM494 282q0 74 -43.5 113.5t-107.5 39.5t-107.5 -40.5t-43.5 -113.5
t43 -114.5t108 -41.5q64 0 107.5 41.5t43.5 115.5zM371 626h-126l134 154h161z" />
    <glyph glyph-name="uni1EDC" unicode="&#x1edc;" horiz-adv-x="869" 
d="M859 708q0 -115 -118 -133q69 -90 69 -225q0 -167 -104 -265.5t-275 -98.5q-173 0 -277 98.5t-104 265.5t104 265.5t277 98.5q66 0 153 -25q65 -19 98 -19q54 0 54 51q0 31 -18 77h121q20 -42 20 -90zM646 350q0 106 -60.5 162.5t-155.5 56.5q-96 0 -156 -57t-60 -162
t60 -162t156 -57q95 0 155.5 57.5t60.5 161.5zM405 757l-174 141h175l138 -141h-139z" />
    <glyph glyph-name="uni1EDD" unicode="&#x1edd;" horiz-adv-x="697" 
d="M685 573q0 -89 -95 -109q58 -76 58 -182q0 -140 -87.5 -218t-217.5 -78q-131 0 -218 77t-87 218q0 138 87.5 215.5t217.5 77.5q50 0 106 -14q62 -16 76 -16q42 0 42 41q0 38 -17 77h115q20 -36 20 -89zM494 282q0 74 -43.5 113.5t-107.5 39.5t-107.5 -40.5t-43.5 -113.5
t43 -114.5t108 -41.5q64 0 107.5 41.5t43.5 115.5zM316 625l-144 154h157l111 -154h-124z" />
    <glyph glyph-name="uni1EDE" unicode="&#x1ede;" horiz-adv-x="869" 
d="M859 708q0 -115 -118 -133q69 -90 69 -225q0 -167 -104 -265.5t-275 -98.5q-173 0 -277 98.5t-104 265.5t104 265.5t277 98.5q66 0 153 -25q65 -19 98 -19q54 0 54 51q0 31 -18 77h121q20 -42 20 -90zM646 350q0 106 -60.5 162.5t-155.5 56.5q-96 0 -156 -57t-60 -162
t60 -162t156 -57q95 0 155.5 57.5t60.5 161.5zM478 747h-86q-2 26 4 39t25 25q3 2 7 4.5t6 4t5 3.5t4.5 3.5t3 3.5t2 4t0.5 4q0 18 -31 18q-30 0 -58 -13v75q31 16 79 16t75.5 -22t27.5 -59q0 -39 -34 -62q-19 -13 -24.5 -21.5t-5.5 -22.5z" />
    <glyph glyph-name="uni1EDF" unicode="&#x1edf;" horiz-adv-x="697" 
d="M685 573q0 -89 -95 -109q58 -76 58 -182q0 -140 -87.5 -218t-217.5 -78q-131 0 -218 77t-87 218q0 138 87.5 215.5t217.5 77.5q50 0 106 -14q62 -16 76 -16q42 0 42 41q0 38 -17 77h115q20 -36 20 -89zM494 282q0 74 -43.5 113.5t-107.5 39.5t-107.5 -40.5t-43.5 -113.5
t43 -114.5t108 -41.5q64 0 107.5 41.5t43.5 115.5zM386 615h-90q-2 25 6 41.5t31 30.5q17 10 22 14.5t5 12.5q0 19 -36 19q-32 0 -60 -14v79q32 16 78 16q52 0 82 -22.5t30 -66.5q0 -24 -9.5 -37.5t-29.5 -28.5q-18 -15 -24 -23.5t-5 -20.5z" />
    <glyph glyph-name="uni1EE0" unicode="&#x1ee0;" horiz-adv-x="869" 
d="M859 708q0 -115 -118 -133q69 -90 69 -225q0 -167 -104 -265.5t-275 -98.5q-173 0 -277 98.5t-104 265.5t104 265.5t277 98.5q66 0 153 -25q65 -19 98 -19q54 0 54 51q0 31 -18 77h121q20 -42 20 -90zM646 350q0 106 -60.5 162.5t-155.5 56.5q-96 0 -156 -57t-60 -162
t60 -162t156 -57q95 0 155.5 57.5t60.5 161.5zM514 885h88q-3 -65 -33.5 -99.5t-80.5 -34.5q-37 0 -76 33q-24 22 -39 22q-28 0 -33 -49h-86q11 133 111 133q38 0 77 -32q27 -23 40 -23q27 0 32 50z" />
    <glyph glyph-name="uni1EE1" unicode="&#x1ee1;" horiz-adv-x="697" 
d="M685 573q0 -89 -95 -109q58 -76 58 -182q0 -140 -87.5 -218t-217.5 -78q-131 0 -218 77t-87 218q0 138 87.5 215.5t217.5 77.5q50 0 106 -14q62 -16 76 -16q42 0 42 41q0 38 -17 77h115q20 -36 20 -89zM494 282q0 74 -43.5 113.5t-107.5 39.5t-107.5 -40.5t-43.5 -113.5
t43 -114.5t108 -41.5q64 0 107.5 41.5t43.5 115.5zM424 767h87q-3 -66 -32.5 -105t-77.5 -39q-37 0 -74 35q-22 22 -39 22q-27 0 -33 -52h-85q12 143 106 143q39 0 77 -35q27 -23 39 -23q27 0 32 54z" />
    <glyph glyph-name="uni1EE2" unicode="&#x1ee2;" horiz-adv-x="869" 
d="M859 708q0 -115 -118 -133q69 -90 69 -225q0 -167 -104 -265.5t-275 -98.5q-173 0 -277 98.5t-104 265.5t104 265.5t277 98.5q66 0 153 -25q65 -19 98 -19q54 0 54 51q0 31 -18 77h121q20 -42 20 -90zM646 350q0 106 -60.5 162.5t-155.5 56.5q-96 0 -156 -57t-60 -162
t60 -162t156 -57q95 0 155.5 57.5t60.5 161.5zM432 -207q-32 0 -55.5 23.5t-23.5 56.5q0 34 23.5 57.5t55.5 23.5q33 0 56 -23.5t23 -57.5t-23 -57t-56 -23z" />
    <glyph glyph-name="uni1EE3" unicode="&#x1ee3;" horiz-adv-x="697" 
d="M685 573q0 -89 -95 -109q58 -76 58 -182q0 -140 -87.5 -218t-217.5 -78q-131 0 -218 77t-87 218q0 138 87.5 215.5t217.5 77.5q50 0 106 -14q62 -16 76 -16q42 0 42 41q0 38 -17 77h115q20 -36 20 -89zM494 282q0 74 -43.5 113.5t-107.5 39.5t-107.5 -40.5t-43.5 -113.5
t43 -114.5t108 -41.5q64 0 107.5 41.5t43.5 115.5zM344 -211q-32 0 -55.5 23.5t-23.5 56.5q0 34 23.5 57.5t55.5 23.5q33 0 56 -23.5t23 -57.5t-23 -57t-56 -23z" />
    <glyph glyph-name="uni1EE4" unicode="&#x1ee4;" horiz-adv-x="794" 
d="M399 133q75 0 116 44t41 132v391h160v-400q0 -150 -85.5 -232t-233.5 -82t-233.5 82t-85.5 232v400h160v-391q0 -88 42 -132t119 -44zM399 -207q-33 0 -56 23.5t-23 56.5q0 34 23.5 57.5t55.5 23.5q33 0 56 -23.5t23 -57.5t-23 -57t-56 -23z" />
    <glyph glyph-name="uni1EE5" unicode="&#x1ee5;" horiz-adv-x="673" 
d="M608 560v-326q0 -115 -74 -181.5t-197 -66.5q-124 0 -198 66.5t-74 181.5v326h158v-315q0 -53 29.5 -84.5t85.5 -31.5t84 31t28 85v315h158zM341 -211q-33 0 -56 23.5t-23 56.5q0 34 23.5 57.5t55.5 23.5q33 0 56 -23.5t23 -57.5t-23 -57t-56 -23z" />
    <glyph glyph-name="uni1EE6" unicode="&#x1ee6;" horiz-adv-x="794" 
d="M399 133q75 0 116 44t41 132v391h160v-400q0 -150 -85.5 -232t-233.5 -82t-233.5 82t-85.5 232v400h160v-391q0 -88 42 -132t119 -44zM439 726h-86q-2 26 4 39t25 25q3 2 7 4.5t6 4t5 3.5t4.5 3.5t3 3.5t2 4t0.5 4q0 18 -31 18q-30 0 -58 -13v75q31 16 79 16t75.5 -22
t27.5 -59q0 -39 -34 -62q-19 -13 -24.5 -21.5t-5.5 -22.5z" />
    <glyph glyph-name="uni1EE7" unicode="&#x1ee7;" horiz-adv-x="673" 
d="M608 560v-326q0 -115 -74 -181.5t-197 -66.5q-124 0 -198 66.5t-74 181.5v326h158v-315q0 -53 29.5 -84.5t85.5 -31.5t84 31t28 85v315h158zM378 602h-90q-2 25 6 41.5t31 30.5q17 10 22 14.5t5 12.5q0 19 -36 19q-32 0 -60 -14v79q32 16 78 16q52 0 82 -22.5t30 -66.5
q0 -24 -9.5 -37.5t-29.5 -28.5q-18 -15 -24 -23.5t-5 -20.5z" />
    <glyph glyph-name="uni1EE8" unicode="&#x1ee8;" horiz-adv-x="812" 
d="M399 133q75 0 116 44t41 132v391h118q50 4 50 51q0 33 -18 77h121q20 -42 20 -90q0 -59 -35 -93t-96 -40v-305q0 -150 -85.5 -232t-233.5 -82t-233.5 82t-85.5 232v400h160v-391q0 -88 42 -132t119 -44zM429 742h-142l158 141h178z" />
    <glyph glyph-name="uni1EE9" unicode="&#x1ee9;" horiz-adv-x="689" 
d="M705 603q0 -96 -97 -119v-250q0 -115 -74 -181.5t-197 -66.5q-124 0 -198 66.5t-74 181.5v326h158v-315q0 -53 29.5 -84.5t85.5 -31.5t84 31t28 85v315h95q44 1 44 45q0 30 -17 73h115q18 -38 18 -75zM376 616h-126l134 154h161z" />
    <glyph glyph-name="uni1EEA" unicode="&#x1eea;" horiz-adv-x="812" 
d="M399 133q75 0 116 44t41 132v391h118q50 4 50 51q0 33 -18 77h121q20 -42 20 -90q0 -59 -35 -93t-96 -40v-305q0 -150 -85.5 -232t-233.5 -82t-233.5 82t-85.5 232v400h160v-391q0 -88 42 -132t119 -44zM357 742l-174 141h175l138 -141h-139z" />
    <glyph glyph-name="uni1EEB" unicode="&#x1eeb;" horiz-adv-x="689" 
d="M705 603q0 -96 -97 -119v-250q0 -115 -74 -181.5t-197 -66.5q-124 0 -198 66.5t-74 181.5v326h158v-315q0 -53 29.5 -84.5t85.5 -31.5t84 31t28 85v315h95q44 1 44 45q0 30 -17 73h115q18 -38 18 -75zM296 616l-144 154h157l111 -154h-124z" />
    <glyph glyph-name="uni1EEC" unicode="&#x1eec;" horiz-adv-x="812" 
d="M399 133q75 0 116 44t41 132v391h118q50 4 50 51q0 33 -18 77h121q20 -42 20 -90q0 -59 -35 -93t-96 -40v-305q0 -150 -85.5 -232t-233.5 -82t-233.5 82t-85.5 232v400h160v-391q0 -88 42 -132t119 -44zM435 732h-86q-2 26 4 39t25 25q3 2 7 4.5t6 4t5 3.5t4.5 3.5t3 3.5
t2 4t0.5 4q0 18 -31 18q-30 0 -58 -13v75q31 16 79 16t75.5 -22t27.5 -59q0 -39 -34 -62q-19 -13 -24.5 -21.5t-5.5 -22.5z" />
    <glyph glyph-name="uni1EED" unicode="&#x1eed;" horiz-adv-x="689" 
d="M450 560h90q27 0 38 10.5t11 34.5q0 30 -17 73h115q18 -38 18 -75q0 -96 -97 -119v-250q0 -115 -74 -181.5t-197 -66.5q-124 0 -198 66.5t-74 181.5v326h158v-315q0 -53 29.5 -84.5t85.5 -31.5t84 31t28 85v315zM375 602h-90q-2 25 6 41.5t31 30.5q17 10 22 14.5t5 12.5
q0 19 -36 19q-32 0 -60 -14v79q32 16 78 16q52 0 82 -22.5t30 -66.5q0 -24 -9.5 -37.5t-29.5 -28.5q-18 -15 -24 -23.5t-5 -20.5z" />
    <glyph glyph-name="uni1EEE" unicode="&#x1eee;" horiz-adv-x="812" 
d="M399 133q75 0 116 44t41 132v391h118q50 4 50 51q0 33 -18 77h121q20 -42 20 -90q0 -59 -35 -93t-96 -40v-305q0 -150 -85.5 -232t-233.5 -82t-233.5 82t-85.5 232v400h160v-391q0 -88 42 -132t119 -44zM493 883h88q-3 -65 -33.5 -99.5t-80.5 -34.5q-37 0 -76 33
q-24 22 -39 22q-28 0 -33 -49h-86q11 133 111 133q38 0 77 -32q27 -23 40 -23q27 0 32 50z" />
    <glyph glyph-name="uni1EEF" unicode="&#x1eef;" horiz-adv-x="689" 
d="M705 603q0 -96 -97 -119v-250q0 -115 -74 -181.5t-197 -66.5q-124 0 -198 66.5t-74 181.5v326h158v-315q0 -53 29.5 -84.5t85.5 -31.5t84 31t28 85v315h95q44 1 44 45q0 30 -17 73h115q18 -38 18 -75zM426 757h88q-3 -66 -34 -105.5t-80 -39.5q-35 0 -70 28
q-3 3 -13 12.5t-17 13.5t-15 4q-27 0 -33 -52h-86q6 70 35 107t75 37q36 0 77 -34q3 -3 8 -7t8 -7t7 -5.5t8.5 -4t9.5 -1.5q27 0 32 54z" />
    <glyph glyph-name="uni1EF0" unicode="&#x1ef0;" horiz-adv-x="812" 
d="M399 133q75 0 116 44t41 132v391h112q56 0 56 51q0 33 -18 77h121q20 -42 20 -90q0 -59 -35 -93t-96 -40v-305q0 -150 -85.5 -232t-233.5 -82t-233.5 82t-85.5 232v400h160v-391q0 -88 42 -132t119 -44zM399 -207q-33 0 -56 23.5t-23 56.5q0 34 23.5 57.5t55.5 23.5
q33 0 56 -23.5t23 -57.5t-23 -57t-56 -23z" />
    <glyph glyph-name="uni1EF1" unicode="&#x1ef1;" horiz-adv-x="689" 
d="M450 560h90q27 0 38 10.5t11 34.5q0 30 -17 73h115q18 -38 18 -75q0 -96 -97 -119v-250q0 -115 -74 -181.5t-197 -66.5q-124 0 -198 66.5t-74 181.5v326h158v-315q0 -53 29.5 -84.5t85.5 -31.5t84 31t28 85v315zM346 -211q-32 0 -55.5 23.5t-23.5 56.5q0 34 23.5 57.5
t55.5 23.5q33 0 56 -23.5t23 -57.5t-23 -57t-56 -23z" />
    <glyph glyph-name="Ygrave" unicode="&#x1ef2;" horiz-adv-x="729" 
d="M334 -15q-145 0 -245 45v164q111 -69 232 -69q90 0 135.5 37.5t45.5 106.5v1v41q-55 -58 -168 -58q-130 0 -199.5 69.5t-69.5 203.5v174h159v-169q0 -135 138 -135q62 0 98 33.5t36 103.5v167h158v-431q0 -284 -320 -284zM327 743l-174 141h175l138 -141h-139z" />
    <glyph glyph-name="ygrave" unicode="&#x1ef3;" horiz-adv-x="682" 
d="M607 560v-513q0 -131 -81.5 -196t-212.5 -65q-136 0 -226 38v152q108 -51 217 -51q163 0 163 140v4v26q-47 -61 -156 -61q-246 0 -246 254v272h155v-266q0 -64 29 -91.5t86 -27.5q56 0 86.5 30.5t30.5 88.5v266h155zM292 621l-144 154h157l111 -154h-124z" />
    <glyph glyph-name="uni1EF4" unicode="&#x1ef4;" horiz-adv-x="729" 
d="M334 -15q-145 0 -245 45v164q111 -69 232 -69q90 0 135.5 37.5t45.5 106.5v1v41q-55 -58 -168 -58q-130 0 -199.5 69.5t-69.5 203.5v174h159v-169q0 -135 138 -135q62 0 98 33.5t36 103.5v167h158v-431q0 -284 -320 -284zM364 -209q-32 0 -55.5 23.5t-23.5 56.5
q0 34 23.5 57.5t55.5 23.5q33 0 56 -23.5t23 -57.5t-23 -57t-56 -23z" />
    <glyph glyph-name="uni1EF5" unicode="&#x1ef5;" horiz-adv-x="682" 
d="M607 560v-513q0 -131 -81.5 -196t-212.5 -65q-136 0 -226 38v152q108 -51 217 -51q163 0 163 140v4v26q-47 -61 -156 -61q-246 0 -246 254v272h155v-266q0 -64 29 -91.5t86 -27.5q56 0 86.5 30.5t30.5 88.5v266h155zM344 -411q-32 0 -55.5 23.5t-23.5 56.5
q0 34 23.5 57.5t55.5 23.5q33 0 56 -23.5t23 -57.5t-23 -57t-56 -23z" />
    <glyph glyph-name="uni1EF6" unicode="&#x1ef6;" horiz-adv-x="729" 
d="M334 -15q-145 0 -245 45v164q111 -69 232 -69q90 0 135.5 37.5t45.5 106.5v1v41q-55 -58 -168 -58q-130 0 -199.5 69.5t-69.5 203.5v174h159v-169q0 -135 138 -135q62 0 98 33.5t36 103.5v167h158v-431q0 -284 -320 -284zM400 727h-86q-2 26 4 39t25 25q3 2 7 4.5t6 4
t5 3.5t4.5 3.5t3 3.5t2 4t0.5 4q0 18 -31 18q-30 0 -58 -13v75q31 16 79 16t75.5 -22t27.5 -59q0 -39 -34 -62q-19 -13 -24.5 -21.5t-5.5 -22.5z" />
    <glyph glyph-name="uni1EF7" unicode="&#x1ef7;" horiz-adv-x="682" 
d="M607 560v-513q0 -131 -81.5 -196t-212.5 -65q-136 0 -226 38v152q108 -51 217 -51q163 0 163 140v4v26q-47 -61 -156 -61q-246 0 -246 254v272h155v-266q0 -64 29 -91.5t86 -27.5q56 0 86.5 30.5t30.5 88.5v266h155zM373 602h-90q-2 25 6 41.5t31 30.5q17 10 22 14.5
t5 12.5q0 19 -36 19q-32 0 -60 -14v79q32 16 78 16q52 0 82 -22.5t30 -66.5q0 -24 -9.5 -37.5t-29.5 -28.5q-18 -15 -24 -23.5t-5 -20.5z" />
    <glyph glyph-name="uni1EF8" unicode="&#x1ef8;" horiz-adv-x="729" 
d="M334 -15q-145 0 -245 45v164q111 -69 232 -69q90 0 135.5 37.5t45.5 106.5v1v41q-55 -58 -168 -58q-130 0 -199.5 69.5t-69.5 203.5v174h159v-169q0 -135 138 -135q62 0 98 33.5t36 103.5v167h158v-431q0 -284 -320 -284zM459 883h88q-3 -65 -33.5 -99.5t-80.5 -34.5
q-37 0 -76 33q-24 22 -39 22q-28 0 -33 -49h-86q11 133 111 133q38 0 77 -32q27 -23 40 -23q27 0 32 50z" />
    <glyph glyph-name="uni1EF9" unicode="&#x1ef9;" horiz-adv-x="682" 
d="M607 560v-513q0 -131 -81.5 -196t-212.5 -65q-136 0 -226 38v152q108 -51 217 -51q163 0 163 140v4v26q-47 -61 -156 -61q-246 0 -246 254v272h155v-266q0 -64 29 -91.5t86 -27.5q56 0 86.5 30.5t30.5 88.5v266h155zM426 767h88q-3 -66 -34 -105.5t-80 -39.5
q-35 0 -70 28q-3 3 -13 12.5t-17 13.5t-15 4q-27 0 -33 -52h-86q6 70 35 107t75 37q36 0 77 -34q3 -3 8 -7t8 -7t7 -5.5t8.5 -4t9.5 -1.5q27 0 32 54z" />
    <glyph glyph-name="endash" unicode="&#x2013;" horiz-adv-x="611" 
d="M60 239v140h491v-140h-491z" />
    <glyph glyph-name="emdash" unicode="&#x2014;" horiz-adv-x="898" 
d="M60 239v140h778v-140h-778z" />
    <glyph glyph-name="quoteleft" unicode="&#x2018;" horiz-adv-x="222" 
d="M145 678q0 -15 22 -37q28 -28 28 -62t-22 -56t-57 -22q-40 0 -65.5 28t-25.5 77q0 113 127 193l50 -59q-57 -36 -57 -62z" />
    <glyph glyph-name="quoteright" unicode="&#x2019;" horiz-adv-x="212" 
d="M77 613q0 15 -22 37q-28 28 -28 62t22 56t57 22q40 0 65.5 -28t25.5 -77q0 -113 -127 -193l-50 59q57 36 57 62z" />
    <glyph glyph-name="quotesinglbase" unicode="&#x201a;" horiz-adv-x="219" 
d="M78 -33q0 15 -22 37q-28 28 -28 62q0 33 22 55.5t55 22.5q40 0 64.5 -28t24.5 -77q0 -115 -124 -193l-50 59q58 37 58 62z" />
    <glyph glyph-name="quotedblleft" unicode="&#x201c;" horiz-adv-x="415" 
d="M136 678q0 -15 22 -37q28 -28 28 -62q0 -33 -22 -55.5t-55 -22.5q-40 0 -64.5 28t-24.5 77q0 113 124 193l50 -59q-58 -37 -58 -62zM337 678q0 -15 22 -37q28 -28 28 -62q0 -33 -22 -55.5t-55 -22.5q-40 0 -64.5 28t-24.5 77q0 113 124 193l50 -59q-58 -37 -58 -62z" />
    <glyph glyph-name="quotedblright" unicode="&#x201d;" horiz-adv-x="410" 
d="M279 613q0 15 -22 37q-28 28 -28 62q0 33 22 55.5t55 22.5q40 0 64.5 -28t24.5 -77q0 -115 -124 -193l-50 59q58 37 58 62zM78 613q0 15 -22 37q-28 28 -28 62q0 33 22 55.5t55 22.5q40 0 64.5 -28t24.5 -77q0 -115 -124 -193l-50 59q58 37 58 62z" />
    <glyph glyph-name="quotedblbase" unicode="&#x201e;" horiz-adv-x="420" 
d="M279 -33q0 15 -22 37q-28 28 -28 62q0 33 22 55.5t55 22.5q40 0 64.5 -28t24.5 -77q0 -115 -124 -193l-50 59q58 37 58 62zM78 -33q0 15 -22 37q-28 28 -28 62q0 33 22 55.5t55 22.5q40 0 64.5 -28t24.5 -77q0 -115 -124 -193l-50 59q58 37 58 62z" />
    <glyph glyph-name="dagger" unicode="&#x2020;" horiz-adv-x="564" 
d="M353 -200h-142l9 601l-190 -9v139l189 -11l-7 200h140l-7 -200l189 11v-139l-189 9z" />
    <glyph glyph-name="daggerdbl" unicode="&#x2021;" horiz-adv-x="635" 
d="M384 36l16 -236h-156l17 236l-201 -14v139l199 -10v242l-199 -11v139l201 -13l-17 212h156l-16 -212l191 13v-139l-189 11v-242l189 10v-139z" />
    <glyph glyph-name="bullet" unicode="&#x2022;" horiz-adv-x="400" 
d="M200 203q-67 0 -108.5 40.5t-41.5 108.5t41.5 109t108.5 41q69 0 109.5 -40t40.5 -110q0 -67 -41 -108t-109 -41z" />
    <glyph glyph-name="ellipsis" unicode="&#x2026;" horiz-adv-x="697" 
d="M578 -14q-39 0 -62.5 23.5t-23.5 62.5q0 37 23.5 61.5t62.5 24.5q40 0 63.5 -24t23.5 -62q0 -39 -23 -62.5t-64 -23.5zM348 -14q-39 0 -62.5 23.5t-23.5 62.5q0 37 23.5 61.5t62.5 24.5q40 0 63.5 -24t23.5 -62q0 -39 -23 -62.5t-64 -23.5zM118 -14q-39 0 -62.5 23.5
t-23.5 62.5q0 37 23.5 61.5t62.5 24.5q40 0 63.5 -24t23.5 -62q0 -39 -23 -62.5t-64 -23.5z" />
    <glyph glyph-name="perthousand" unicode="&#x2030;" horiz-adv-x="1358" 
d="M1128 86q33 0 52.5 19.5t19.5 54.5q0 32 -19 51t-53 19q-33 0 -52.5 -19t-19.5 -52q0 -34 19.5 -53.5t52.5 -19.5zM1313 158q0 -81 -49.5 -126.5t-136.5 -45.5q-80 0 -132 46t-52 126q0 79 49.5 125.5t135.5 46.5q80 0 132.5 -47.5t52.5 -124.5zM882 158
q0 -81 -49.5 -126.5t-136.5 -45.5q-80 0 -132 46t-52 126q0 79 49.5 125.5t135.5 46.5q80 0 132.5 -47.5t52.5 -124.5zM697 86q33 0 52.5 19.5t19.5 54.5q0 32 -19 51t-53 19q-33 0 -52.5 -19t-19.5 -52q0 -34 19.5 -53.5t52.5 -19.5zM757 700l-452 -700h-134l453 700h133z
M158 543q0 -34 19.5 -53.5t52.5 -19.5t52.5 19.5t19.5 54.5q0 32 -19 51t-53 19q-33 0 -52.5 -19t-19.5 -52zM415 542q0 -81 -49.5 -126.5t-136.5 -45.5q-80 0 -132 46t-52 126q0 79 49.5 125.5t135.5 46.5q80 0 132.5 -47.5t52.5 -124.5z" />
    <glyph glyph-name="guilsinglleft" unicode="&#x2039;" horiz-adv-x="317" 
d="M20 284l130 226h142l-126 -226l126 -225h-142z" />
    <glyph glyph-name="guilsinglright" unicode="&#x203a;" horiz-adv-x="317" 
d="M167 510l130 -225l-130 -226h-142l125 225l-125 226h142z" />
    <glyph glyph-name="Euro" unicode="&#x20ac;" horiz-adv-x="734" 
d="M535 384h-245q-1 -11 -1 -35q0 -22 1 -33h245v-103h-214q52 -89 184 -89q104 0 174 52v-144q-66 -46 -198 -46q-274 0 -333 227h-103v103h88q-1 11 -1 30q0 25 1 38h-88v103h106q34 110 121 168.5t219 58.5q112 0 184 -45v-151q-75 56 -170 56q-129 0 -182 -87h212v-103z
" />
    <glyph glyph-name="uni20B4" unicode="&#x20b4;" horiz-adv-x="753" 
d="M60 320h633v-100h-417q-3 -9 -3 -23q0 -67 109 -67q162 0 253 61v-154q-99 -51 -246 -51q-276 0 -276 215q0 5 2 19h-55v100zM693 378h-633v100h402q10 10 10 28q0 65 -117 65q-121 0 -205 -48v151q81 40 207 40q136 0 207.5 -52.5t71.5 -153.5q0 -18 -4 -30h61v-100z
" />
    <glyph glyph-name="Tenge" unicode="&#x20b8;" horiz-adv-x="720" 
d="M281 0v376h-231v134h620v-134h-230v-376h-159zM670 566h-620v134h620v-134z" />
    <glyph glyph-name="rubel" unicode="&#x20bd;" horiz-adv-x="744" 
d="M55 385h81v315h293q270 0 270 -221q0 -212 -251 -212h-158v-54h246v-113h-242v-100h-158v100h-81v113h85v54h-85v118zM294 385h132q116 0 116 88q0 90 -122 90h-126v-178z" />
    <glyph glyph-name="uni2116" unicode="&#x2116;" horiz-adv-x="1248" 
d="M90 700h164l326 -474v474h151v-700h-163l-327 476v-476h-151v700zM1198 450q0 -91 -53 -141.5t-136 -50.5q-85 0 -137.5 49.5t-52.5 142.5q0 89 53 138.5t137 49.5q83 0 136 -49.5t53 -138.5zM824 213h369v-110h-369v110zM1085 450q0 37 -21.5 58.5t-53.5 21.5
q-33 0 -55.5 -21.5t-22.5 -58.5q0 -40 21.5 -62t55.5 -22t55 22t21 62z" />
    <glyph glyph-name="trademark" unicode="&#x2122;" horiz-adv-x="888" 
d="M526 700l95 -140l98 140h104v-351h-92v226l-92 -126h-41l-92 126v-226h-92v351h112zM156 349v265h-116v86h332v-86h-116v-265h-100z" />
    <glyph glyph-name="minus" unicode="&#x2212;" horiz-adv-x="623" 
d="M50 275v140h523v-140h-523z" />
    <glyph glyph-name="infinity" unicode="&#x221e;" horiz-adv-x="872" 
d="M642 142q-122 0 -204 110q-77 -110 -200 -110q-84 0 -143.5 61t-59.5 158q0 99 59.5 158.5t144.5 59.5q121 0 199 -121q76 122 200 122q86 0 142.5 -60t56.5 -158q0 -99 -54.5 -159.5t-140.5 -60.5zM628 452q-36 0 -65 -23.5t-59 -73.5q61 -85 125 -85q35 0 59 26t24 65
t-24 65t-60 26zM248 270q69 0 122 82q-63 99 -121 99q-37 0 -62 -24t-25 -65t24 -66.5t62 -25.5z" />
    <glyph glyph-name="approxequal" unicode="&#x2248;" horiz-adv-x="626" 
d="M424 373q-57 0 -124 45q-52 34 -88 34q-54 0 -78 -62l-99 44q63 153 182 153q55 0 114 -39q3 -2 12.5 -8.5t13 -9t11 -7t12.5 -6.5t11.5 -4.5t13 -3.5t13.5 -1q28 0 42.5 15t21.5 49l109 -37q-22 -83 -61 -122.5t-106 -39.5zM424 137q-59 0 -124 44q-31 20 -48.5 27.5
t-39.5 7.5q-54 0 -78 -62l-99 44q63 153 182 153q55 0 114 -39q3 -2 12.5 -8.5t13 -9t11 -7t12.5 -6.5t11.5 -4.5t13 -3.5t13.5 -1q28 0 42.5 15t21.5 49l109 -37q-22 -83 -61 -122.5t-106 -39.5z" />
    <glyph glyph-name="notequal" unicode="&#x2260;" horiz-adv-x="649" 
d="M65 408v134h316l66 102h121l-65 -102h81v-134h-167l-59 -92h226v-134h-311l-61 -96h-122l61 96h-86v134h172l59 92h-231z" />
    <glyph glyph-name="lessequal" unicode="&#x2264;" horiz-adv-x="592" 
d="M60 336v185l467 162v-142l-353 -109l353 -87v-137zM61 51v130h466v-130h-466z" />
    <glyph glyph-name="greaterequal" unicode="&#x2265;" horiz-adv-x="592" 
d="M65 198v137l353 87l-353 109v142l467 -162v-185zM531 171v-130h-466v130h466z" />
    <glyph glyph-name="N.alt" horiz-adv-x="808" 
d="M404 560q-162 0 -162 -176v-384h-162v400q0 153 86.5 233.5t237.5 80.5t237.5 -80.5t86.5 -233.5v-400h-162v384q0 176 -162 176z" />
    <glyph glyph-name="Nacute.alt" horiz-adv-x="808" 
d="M448 757h-142l158 141h178zM404 560q-162 0 -162 -176v-384h-162v400q0 153 86.5 233.5t237.5 80.5t237.5 -80.5t86.5 -233.5v-400h-162v384q0 176 -162 176z" />
    <glyph glyph-name="Ncaron.alt" horiz-adv-x="808" 
d="M404 560q-162 0 -162 -176v-384h-162v400q0 153 86.5 233.5t237.5 80.5t237.5 -80.5t86.5 -233.5v-400h-162v384q0 176 -162 176zM332 898l71 -81l71 81h125l-138 -146h-115l-140 146h126z" />
    <glyph glyph-name="Ncommaaccent.alt" horiz-adv-x="808" 
d="M369 -232l-34 57q42 17 42 40q0 11 -14 25q-20 20 -20 42q0 26 18 42t46 16q32 0 52.5 -21.5t20.5 -56.5q0 -45 -25 -79.5t-86 -64.5zM404 560q-162 0 -162 -176v-384h-162v400q0 153 86.5 233.5t237.5 80.5t237.5 -80.5t86.5 -233.5v-400h-162v384q0 176 -162 176z" />
    <glyph glyph-name="Ntilde.alt" horiz-adv-x="808" 
d="M487 885h88q-3 -65 -33.5 -99.5t-80.5 -34.5q-37 0 -76 33q-24 22 -39 22q-28 0 -33 -49h-86q11 133 111 133q38 0 77 -32q27 -23 40 -23q27 0 32 50zM404 560q-162 0 -162 -176v-384h-162v400q0 153 86.5 233.5t237.5 80.5t237.5 -80.5t86.5 -233.5v-400h-162v384
q0 176 -162 176z" />
    <glyph glyph-name="P.alt" horiz-adv-x="684" 
d="M90 700h283q132 0 201.5 -61t69.5 -182q0 -120 -73 -182t-201 -62h-121v-213h-159v700zM249 562v-211h121q118 0 118 105q0 51 -30 78.5t-88 27.5h-121z" />
    <glyph glyph-name="acute.cap" horiz-adv-x="376" 
d="M162 780h-142l158 141h178z" />
    <glyph glyph-name="acutecmb.cap" horiz-adv-x="376" 
d="M162 780h-142l158 141h178z" />
    <glyph glyph-name="arcviet" horiz-adv-x="261" 
d="M155 615h-90q-2 25 6 41.5t31 30.5q17 10 22 14.5t5 12.5q0 19 -36 19q-32 0 -60 -14v79q32 16 78 16q52 0 82 -22.5t30 -66.5q0 -24 -9.5 -37.5t-29.5 -28.5q-18 -15 -24 -23.5t-5 -20.5z" />
    <glyph glyph-name="arcviet.cap" horiz-adv-x="261" 
d="M160 748h-86q-2 26 4 39t25 25q3 2 7 4.5t6 4t5 3.5t4.5 3.5t3 3.5t2 4t0.5 4q0 18 -31 18q-30 0 -58 -13v75q31 16 79 16t75.5 -22t27.5 -59q0 -39 -34 -62q-19 -13 -24.5 -21.5t-5.5 -22.5z" />
    <glyph glyph-name="backslash.cap" horiz-adv-x="421" 
d="M404 -80h-142l-270 860h142z" />
    <glyph glyph-name="bar.cap" horiz-adv-x="325" 
d="M90 -80v860h145v-860h-145z" />
    <glyph glyph-name="braceleft.cap" horiz-adv-x="421" 
d="M52 287h-12v126h12q47 0 65.5 22.5t18.5 82.5v74q0 97 42.5 145t144.5 48q35 0 60 -5v-119h-34q-73 0 -73 -74v-73q0 -130 -83 -162q83 -26 83 -147v-90q0 -76 73 -76h34v-119q-25 -5 -57 -5q-103 0 -146.5 41t-43.5 129v118q0 46 -18.5 65t-65.5 19z" />
    <glyph glyph-name="braceright.cap" horiz-adv-x="421" 
d="M285 615v-118q0 -46 18.5 -65t65.5 -19h12v-126h-12q-47 0 -65.5 -22.5t-18.5 -82.5v-74q0 -97 -42.5 -145t-144.5 -48q-33 0 -60 5v119h34q73 0 73 74v73q0 129 82 161q-82 28 -82 148v90q0 76 -73 76h-34v119q27 5 57 5q103 0 146.5 -41t43.5 -129z" />
    <glyph glyph-name="bracketleft.cap" horiz-adv-x="393" 
d="M100 -80v860h243v-125h-100v-610h100v-125h-243z" />
    <glyph glyph-name="bracketright.cap" horiz-adv-x="393" 
d="M293 -80h-243v125h100v610h-100v125h243v-860z" />
    <glyph glyph-name="breve.cap" horiz-adv-x="402" 
d="M201 777q-70 0 -113 35.5t-48 103.5h95q13 -55 66 -55t66 55h95q-5 -68 -48 -103.5t-113 -35.5z" />
    <glyph glyph-name="breve_acute" horiz-adv-x="465" 
d="M245 750h-99l98 144h144zM202 603q-74 0 -120 36t-51 101h94q15 -55 78 -55q61 0 76 55h94q-5 -65 -51 -101t-120 -36z" />
    <glyph glyph-name="breve_acute.cap" horiz-adv-x="475" 
d="M252 890h-108l109 115h144zM201 740q-74 0 -119.5 34t-50.5 99h94q17 -55 77 -55q58 0 75 55h94q-5 -65 -50.5 -99t-119.5 -34z" />
    <glyph glyph-name="breve_grave" horiz-adv-x="437" 
d="M195 750l-144 144h144l99 -144h-99zM236 603q-74 0 -120 36t-51 101h94q15 -55 78 -55q61 0 76 55h94q-5 -65 -51 -101t-120 -36z" />
    <glyph glyph-name="breve_grave.cap" horiz-adv-x="453" 
d="M206 890l-155 115h147l117 -115h-109zM251 740q-74 0 -119.5 34t-50.5 99h94q17 -55 77 -55q59 0 75 55h94q-5 -65 -50.5 -99t-119.5 -34z" />
    <glyph glyph-name="breve_tilde" horiz-adv-x="410" 
d="M282 896h88q0 -126 -104 -126q-29 0 -64.5 23t-44.5 23q-22 0 -25 -43h-85q0 62 28.5 92t74.5 30q30 0 65 -22.5t43 -22.5q23 0 24 46zM209 614q-71 0 -113.5 35.5t-47.5 96.5h94q17 -50 68 -50q49 0 65 50h94q-5 -61 -47 -96.5t-113 -35.5z" />
    <glyph glyph-name="breve_tilde.cap" horiz-adv-x="428" 
d="M219 743q-70 0 -113 33.5t-48 94.5h93q13 -51 71 -51q52 0 65 51h93q-5 -62 -47 -95t-114 -33zM310 1021h90q-1 -60 -30.5 -90.5t-74.5 -30.5q-36 0 -76 24.5t-49 24.5q-25 0 -30 -44h-88q2 62 32 91t79 29q32 0 70.5 -24.5t47.5 -24.5q24 0 29 45z" />
    <glyph glyph-name="brevearc" horiz-adv-x="402" 
d="M235 743h-77q-3 41 28 62q24 15 24 27q0 18 -34 18q-22 0 -54 -13v71q33 14 73 14q46 0 73 -21t27 -56t-36 -62q-14 -11 -18.5 -18.5t-5.5 -21.5zM201 603q-74 0 -120 36t-51 101h94q15 -55 78 -55q61 0 76 55h94q-5 -65 -51 -101t-120 -36z" />
    <glyph glyph-name="brevearc.cap" horiz-adv-x="402" 
d="M201 740q-74 0 -120 36t-51 101h92q17 -55 80 -55q60 0 77 55h93q-5 -65 -51 -101t-120 -36zM232 878h-75q-3 25 3.5 36.5t25.5 23.5q22 14 22 24q0 18 -33 18q-26 0 -54 -11v68q30 14 71 14q45 0 72.5 -22t27.5 -55q0 -36 -34 -59q-12 -8 -16.5 -11.5t-7 -10t-2.5 -15.5
z" />
    <glyph glyph-name="brokenbar.cap" horiz-adv-x="325" 
d="M235 457h-145v323h145v-323zM90 -80v335h145v-335h-145z" />
    <glyph glyph-name="bullet.cap" horiz-adv-x="400" 
d="M200 207q-67 0 -108.5 40.5t-41.5 108.5t41.5 109t108.5 41q69 0 109.5 -40t40.5 -110q0 -67 -41 -108t-109 -41z" />
    <glyph glyph-name="caron.alt" horiz-adv-x="217" 
d="M186 780l-61 -180h-95l38 180h118z" />
    <glyph glyph-name="caron.cap" horiz-adv-x="453" 
d="M156 916l71 -81l71 81h125l-138 -146h-115l-140 146h126z" />
    <glyph glyph-name="cedilla.cap" horiz-adv-x="283" 
d="M83 -73l28 89h90l-16 -44q49 -27 49 -81q0 -52 -31 -78.5t-82 -26.5q-38 0 -74 17l20 69q17 -9 36 -9q32 0 32 27q0 33 -52 37z" />
    <glyph glyph-name="circumarc" horiz-adv-x="513" 
d="M271 615l-49 61l-50 -61h-130l113 126h136l111 -126h-131zM417 712h-77q-4 42 28 65q16 10 20 13.5t4 11.5q0 17 -34 17q-22 0 -54 -13v71q33 14 73 14q46 0 73 -21t27 -56q0 -36 -36 -62q-15 -10 -20 -18t-4 -22z" />
    <glyph glyph-name="circumarc.cap" horiz-adv-x="509" 
d="M272 747l-50 61l-51 -61h-131l116 116h130l117 -116h-131zM432 816h-77q-3 22 1 35.5t23 26.5q2 2 5.5 4.5t5.5 3.5t4 3l3 3t2 3t1.5 4t0.5 4q0 18 -31 18q-26 0 -54 -11v72q32 13 71 13q46 0 74 -21.5t28 -57.5q0 -31 -33 -57q-15 -12 -19.5 -20t-4.5 -23z" />
    <glyph glyph-name="circumflex.cap" horiz-adv-x="453" 
d="M297 773l-71 81l-71 -81h-125l138 146h115l140 -146h-126z" />
    <glyph glyph-name="circumflex_acute" horiz-adv-x="542" 
d="M271 615l-49 79l-50 -79h-126l111 149h132l112 -149h-130zM424 728h-87l66 152h120z" />
    <glyph glyph-name="circumflex_acute.cap" horiz-adv-x="563" 
d="M272 747l-50 63l-51 -63h-130l112 121h137l113 -121h-131zM431 832h-87l81 152h124z" />
    <glyph glyph-name="circumflex_grave" horiz-adv-x="560" 
d="M271 615l-49 79l-50 -79h-126l111 149h132l112 -149h-130zM363 726l-112 154h128l76 -154h-92z" />
    <glyph glyph-name="circumflex_grave.cap" horiz-adv-x="545" 
d="M272 747l-50 63l-51 -63h-130l112 121h137l113 -121h-131zM377 825l-131 148h129l92 -148h-90z" />
    <glyph glyph-name="circumflex_tilde" horiz-adv-x="443" 
d="M296 894h88q0 -126 -104 -126q-29 0 -64.5 23t-44.5 23q-22 0 -25 -43h-85q0 62 28.5 92t74.5 30q30 0 65 -22.5t43 -22.5q23 0 24 46zM272 625l-50 67l-51 -67h-131l111 122h140l112 -122h-131z" />
    <glyph glyph-name="circumflex_tilde.cap" horiz-adv-x="443" 
d="M301 1003h83q-2 -61 -28 -90.5t-68 -29.5q-33 0 -71.5 22.5t-50.5 22.5q-25 0 -29 -40h-81q9 117 103 117q31 0 68 -21.5t47 -21.5q24 0 27 41zM272 747l-50 63l-50 -63h-135l115 115h138l116 -115h-134z" />
    <glyph glyph-name="commaaccent" horiz-adv-x="230" 
d="M85 -145q0 11 -14 25q-19 19 -19 42q0 26 17.5 42t45.5 16q32 0 52.5 -21.5t20.5 -56.5q0 -45 -24.5 -79t-84.5 -65l-33 57q39 18 39 40z" />
    <glyph glyph-name="commaaccent.cap" horiz-adv-x="231" 
d="M77 -242l-34 57q42 17 42 40q0 11 -14 25q-20 20 -20 42q0 26 18 42t46 16q32 0 52.5 -21.5t20.5 -56.5q0 -45 -25 -79.5t-86 -64.5z" />
    <glyph glyph-name="cyrbreve" horiz-adv-x="412" 
d="M262 771h108q2 -14 2 -26q0 -66 -43.5 -100.5t-117.5 -34.5h-10q-73 0 -117 34.5t-44 100.5q0 12 2 26h108v-15q0 -63 56 -63t56 63v15z" />
    <glyph glyph-name="cyrbreve.cap" horiz-adv-x="412" 
d="M267 923h107q2 -14 2 -26q0 -67 -44 -101t-121 -34h-10q-77 0 -121 34t-44 101q0 12 2 26h107v-15q0 -63 61 -63t61 63v15z" />
    <glyph glyph-name="dieresis.cap" horiz-adv-x="440" 
d="M251 845q0 32 21.5 54t52.5 22q30 0 52 -22t22 -54t-22 -53.5t-52 -21.5q-31 0 -52.5 21.5t-21.5 53.5zM41 845q0 32 22 54t52 22q32 0 53.5 -22t21.5 -54t-21.5 -53.5t-53.5 -21.5q-30 0 -52 21.5t-22 53.5z" />
    <glyph glyph-name="dotaccent.cap" horiz-adv-x="238" 
d="M119 765q-33 0 -56 23.5t-23 56.5q0 34 23.5 57.5t55.5 23.5q33 0 56 -23.5t23 -57.5t-23 -57t-56 -23z" />
    </font>
</defs>
</svg>
